<?xml version="1.0" encoding="UTF-8" standalone="no"?>
<svg
   xmlns:dc="http://purl.org/dc/elements/1.1/"
   xmlns:cc="http://creativecommons.org/ns#"
   xmlns:rdf="http://www.w3.org/1999/02/22-rdf-syntax-ns#"
   xmlns:svg="http://www.w3.org/2000/svg"
   xmlns="http://www.w3.org/2000/svg"
   xmlns:sodipodi="http://sodipodi.sourceforge.net/DTD/sodipodi-0.dtd"
   xmlns:inkscape="http://www.inkscape.org/namespaces/inkscape"
   version="1.1"
   viewBox="0 0 888 297.33334"
   fill="none"
   stroke="none"
   stroke-linecap="square"
   stroke-miterlimit="10"
   id="svg111"
   sodipodi:docname="figure-c.2-group-did-controllers.svg"
   width="888"
   height="297.33334"
   inkscape:version="1.0.2 (e86c870879, 2021-01-15)">
  <metadata
     id="metadata117">
    <rdf:RDF>
      <cc:Work
         rdf:about="">
        <dc:format>image/svg+xml</dc:format>
        <dc:type
           rdf:resource="http://purl.org/dc/dcmitype/StillImage" />
        <dc:title></dc:title>
      </cc:Work>
    </rdf:RDF>
  </metadata>
  <defs
     id="defs115" />
  <sodipodi:namedview
     pagecolor="#ffffff"
     bordercolor="#666666"
     borderopacity="1"
     objecttolerance="10"
     gridtolerance="10"
     guidetolerance="10"
     inkscape:pageopacity="0"
     inkscape:pageshadow="2"
     inkscape:window-width="1920"
     inkscape:window-height="1016"
     id="namedview113"
     showgrid="false"
     fit-margin-top="0"
     fit-margin-left="0"
     fit-margin-right="0"
     fit-margin-bottom="0"
     inkscape:zoom="1.296875"
     inkscape:cx="422.40349"
     inkscape:cy="145.27963"
     inkscape:window-x="0"
     inkscape:window-y="27"
     inkscape:window-maximized="1"
     inkscape:current-layer="svg111" />
  <clipPath
     id="p11.0">
    <path
       d="M 0,0 H 960 V 600 H 0 Z"
       clip-rule="nonzero"
       id="path2" />
  </clipPath>
  <path
     fill="#000000"
     fill-opacity="0"
     d="m 331.8862,149.43848 v 0 c 0,-8.83655 7.16345,-16 16,-16 v 0 c 4.24347,0 8.31311,1.68573 11.31369,4.68631 3.00061,3.00058 4.68631,7.07022 4.68631,11.31369 v 0 c 0,8.83655 -7.16345,16 -16,16 v 0 c -8.83655,0 -16,-7.16345 -16,-16 z"
     fill-rule="evenodd"
     id="path7" />
  <path
     stroke="#000000"
     stroke-width="2.66667"
     stroke-linejoin="round"
     stroke-linecap="butt"
     d="m 331.8862,149.43848 v 0 c 0,-8.83655 7.16345,-16 16,-16 v 0 c 4.24347,0 8.31311,1.68573 11.31369,4.68631 3.00061,3.00058 4.68631,7.07022 4.68631,11.31369 v 0 c 0,8.83655 -7.16345,16 -16,16 v 0 c -8.83655,0 -16,-7.16345 -16,-16 z"
     fill-rule="evenodd"
     id="path9" />
  <path
     fill="#000000"
     fill-opacity="0"
     d="M 520,65.439229 H 648.20032 V 212.07063 l -21.36713,21.36713 H 520 Z"
     fill-rule="evenodd"
     id="path11" />
  <path
     fill="#000000"
     fill-opacity="0"
     d="m 626.8332,233.43775 4.27344,-17.09372 17.09369,-4.27341 z"
     fill-rule="evenodd"
     id="path13" />
  <path
     fill="#000000"
     fill-opacity="0"
     d="m 626.8332,233.43775 4.27344,-17.09372 17.09369,-4.27341 -21.36713,21.36713 H 520.00001 V 65.439229 H 648.20033 V 212.07063"
     fill-rule="evenodd"
     id="path15" />
  <path
     fill="#000000"
     fill-opacity="0.2"
     d="m 626.8332,233.43775 4.27344,-17.09372 17.09369,-4.27341 z"
     fill-rule="evenodd"
     id="path17" />
  <path
     stroke="#000000"
     stroke-width="2"
     stroke-linejoin="round"
     stroke-linecap="butt"
     d="m 626.8332,233.43775 4.27344,-17.09372 17.09369,-4.27341 -21.36713,21.36713 H 520.00001 V 65.439229 H 648.20033 V 212.07063"
     fill-rule="evenodd"
     id="path19" />
  <path
     fill="#000000"
     d="m 580.02203,84.666719 q 0,2.09375 -0.54688,3.57812 -0.54687,1.48438 -1.5625,2.42188 -1.01562,0.9375 -2.48437,1.375 -1.45313,0.4375 -3.46875,0.4375 h -3.625 q -0.375,0 -0.64063,-0.21875 -0.26562,-0.23438 -0.26562,-0.75 v -13.21875 q 0,-0.51563 0.26562,-0.75 0.26563,-0.23438 0.64063,-0.23438 h 3.89062 q 2.03125,0 3.4375,0.48438 1.42188,0.46875 2.39063,1.40625 0.96875,0.92187 1.46875,2.29687 0.5,1.375 0.5,3.17188 z m -3.1875,0.10937 q 0,-1.07812 -0.25,-2 -0.25,-0.92187 -0.8125,-1.59375 -0.54688,-0.6875 -1.42188,-1.0625 -0.875,-0.39062 -2.29687,-0.39062 h -1.5625 v 10.3125 h 1.60937 q 1.26563,0 2.125,-0.32813 0.875,-0.32812 1.45313,-0.98437 0.57812,-0.67188 0.85937,-1.65625 0.29688,-0.98438 0.29688,-2.29688 z m 8.81641,7.28125 q 0,0.10938 -0.0781,0.20313 -0.0781,0.0937 -0.25,0.15625 -0.17187,0.0625 -0.46875,0.0937 -0.29687,0.0469 -0.75,0.0469 -0.45312,0 -0.75,-0.0469 -0.29687,-0.0312 -0.46875,-0.0937 -0.17187,-0.0625 -0.25,-0.15625 -0.0781,-0.0937 -0.0781,-0.20313 v -14.32812 q 0,-0.10938 0.0781,-0.20313 0.0781,-0.0937 0.25,-0.15625 0.1875,-0.0625 0.46875,-0.0937 0.29688,-0.0312 0.75,-0.0312 0.45313,0 0.75,0.0312 0.29688,0.0312 0.46875,0.0937 0.17188,0.0625 0.25,0.15625 0.0781,0.0937 0.0781,0.20313 z m 15.89843,-7.39062 q 0,2.09375 -0.54687,3.57812 -0.54688,1.48438 -1.5625,2.42188 -1.01563,0.9375 -2.48438,1.375 -1.45312,0.4375 -3.46875,0.4375 h -3.625 q -0.375,0 -0.64062,-0.21875 -0.26563,-0.23438 -0.26563,-0.75 v -13.21875 q 0,-0.51563 0.26563,-0.75 0.26562,-0.23438 0.64062,-0.23438 h 3.89063 q 2.03125,0 3.4375,0.48438 1.42187,0.46875 2.39062,1.40625 0.96875,0.92187 1.46875,2.29687 0.5,1.375 0.5,3.17188 z m -3.1875,0.10937 q 0,-1.07812 -0.25,-2 -0.25,-0.92187 -0.8125,-1.59375 -0.54687,-0.6875 -1.42187,-1.0625 -0.875,-0.39062 -2.29688,-0.39062 h -1.5625 v 10.3125 h 1.60938 q 1.26562,0 2.125,-0.32813 0.875,-0.32812 1.45312,-0.98437 0.57813,-0.67188 0.85938,-1.65625 0.29687,-0.98438 0.29687,-2.29688 z"
     fill-rule="nonzero"
     id="path21" />
  <path
     fill="#000000"
     d="m 546.5826,113.46671 q 0,2.09375 -0.54688,3.57812 -0.54687,1.48438 -1.5625,2.42188 -1.01562,0.9375 -2.48437,1.375 -1.45313,0.4375 -3.46875,0.4375 h -3.625 q -0.375,0 -0.64063,-0.21875 -0.26562,-0.23438 -0.26562,-0.75 v -13.21875 q 0,-0.51562 0.26562,-0.75 0.26563,-0.23437 0.64063,-0.23437 h 3.89062 q 2.03125,0 3.4375,0.48437 1.42188,0.46875 2.39063,1.40625 0.96875,0.92189 1.46875,2.29687 0.5,1.375 0.5,3.17188 z m -3.1875,0.10937 q 0,-1.07812 -0.25,-2 -0.25,-0.92187 -0.8125,-1.59375 -0.54688,-0.68748 -1.42188,-1.06248 -0.875,-0.39062 -2.29687,-0.39062 h -1.5625 v 10.31248 h 1.60937 q 1.26563,0 2.125,-0.32812 0.875,-0.32813 1.45313,-0.98438 0.57812,-0.67187 0.85937,-1.65625 0.29688,-0.98437 0.29688,-2.29688 z m 16.11328,1.96875 q 0,1.34375 -0.35937,2.45313 -0.34375,1.09375 -1.0625,1.89062 -0.70313,0.79688 -1.78125,1.23438 -1.07813,0.42187 -2.53125,0.42187 -1.39063,0 -2.42188,-0.375 -1.03125,-0.39062 -1.71875,-1.125 -0.67187,-0.75 -1,-1.82812 -0.32812,-1.07813 -0.32812,-2.45313 0,-1.34375 0.35937,-2.45312 0.35938,-1.10938 1.0625,-1.89063 0.71875,-0.79687 1.79688,-1.21875 1.07812,-0.4375 2.51562,-0.4375 1.40625,0 2.4375,0.375 1.03125,0.375 1.70313,1.125 0.67187,0.73438 1,1.8125 0.32812,1.07813 0.32812,2.46875 z m -3.03125,0.125 q 0,-0.78125 -0.125,-1.42187 -0.125,-0.65625 -0.42187,-1.14063 -0.28125,-0.48437 -0.78125,-0.75 -0.48438,-0.26562 -1.21875,-0.26562 -0.65625,0 -1.15625,0.25 -0.48438,0.23437 -0.79688,0.70312 -0.3125,0.45313 -0.48437,1.10938 -0.15625,0.64062 -0.15625,1.46875 0,0.78125 0.125,1.4375 0.14062,0.64062 0.42187,1.125 0.29688,0.48437 0.78125,0.75 0.5,0.25 1.21875,0.25 0.67188,0 1.15625,-0.23438 0.5,-0.23437 0.8125,-0.6875 0.3125,-0.46875 0.46875,-1.10937 0.15625,-0.65625 0.15625,-1.48438 z m 13.27734,3.54688 q 0,0.29687 -0.0156,0.51562 -0.0156,0.20313 -0.0469,0.34375 -0.0312,0.14063 -0.0781,0.23438 -0.0312,0.0781 -0.17188,0.21875 -0.14062,0.125 -0.48437,0.32812 -0.34375,0.1875 -0.78125,0.34375 -0.42188,0.15625 -0.9375,0.25 -0.51563,0.0937 -1.04688,0.0937 -1.20312,0 -2.14062,-0.375 -0.9375,-0.39062 -1.57813,-1.10937 -0.625,-0.73438 -0.95312,-1.78125 -0.3125,-1.0625 -0.3125,-2.42188 0,-1.57812 0.39062,-2.71875 0.39063,-1.14062 1.09375,-1.89062 0.70313,-0.75 1.65625,-1.10938 0.96875,-0.375 2.125,-0.375 0.46875,0 0.92188,0.0937 0.45312,0.0781 0.84375,0.21875 0.39062,0.14063 0.70312,0.3125 0.3125,0.17188 0.4375,0.3125 0.125,0.125 0.17188,0.21875 0.0625,0.0781 0.0937,0.21875 0.0312,0.14063 0.0469,0.34375 0.0156,0.20313 0.0156,0.5 0,0.6875 -0.125,0.96875 -0.10938,0.26563 -0.29688,0.26563 -0.20312,0 -0.42187,-0.15625 -0.21875,-0.17188 -0.53125,-0.375 -0.29688,-0.20313 -0.71875,-0.35938 -0.42188,-0.17187 -1.01563,-0.17187 -1.14062,0 -1.75,0.89062 -0.60937,0.89063 -0.60937,2.59375 0,0.84375 0.14062,1.5 0.15625,0.64063 0.45313,1.07813 0.29687,0.42187 0.75,0.64062 0.45312,0.21875 1.04687,0.21875 0.60938,0 1.04688,-0.17187 0.45312,-0.1875 0.78125,-0.40625 0.32812,-0.23438 0.54687,-0.40625 0.21875,-0.1875 0.375,-0.1875 0.10938,0 0.17188,0.0625 0.0781,0.0469 0.10937,0.21875 0.0469,0.15625 0.0625,0.40625 0.0312,0.23437 0.0312,0.625 z m 12.04297,1.65625 q 0,0.125 -0.0625,0.21875 -0.0469,0.0781 -0.20312,0.14062 -0.14063,0.0625 -0.39063,0.0937 -0.23437,0.0312 -0.59375,0.0312 -0.39062,0 -0.64062,-0.0312 -0.23438,-0.0312 -0.375,-0.0937 -0.14063,-0.0625 -0.20313,-0.14062 -0.0469,-0.0937 -0.0469,-0.21875 v -1.20313 q -0.875,0.9375 -1.76563,1.40625 -0.89062,0.46875 -1.85937,0.46875 -1.07813,0 -1.8125,-0.34375 -0.73438,-0.35937 -1.1875,-0.96875 -0.4375,-0.60937 -0.64063,-1.40625 -0.1875,-0.8125 -0.1875,-2 v -6.40625 q 0,-0.10937 0.0625,-0.1875 0.0625,-0.0937 0.23438,-0.15625 0.17187,-0.0625 0.45312,-0.0937 0.29688,-0.0312 0.71875,-0.0312 0.42188,0 0.70313,0.0312 0.28125,0.0312 0.45312,0.0937 0.17188,0.0625 0.23438,0.15625 0.0781,0.0781 0.0781,0.1875 v 5.90625 q 0,0.82813 0.10938,1.26563 0.10937,0.42187 0.3125,0.73437 0.21875,0.3125 0.54687,0.48438 0.34375,0.17187 0.79688,0.17187 0.5625,0 1.125,-0.40625 0.5625,-0.42187 1.21875,-1.20312 v -6.95313 q 0,-0.10937 0.0625,-0.1875 0.0625,-0.0937 0.23437,-0.15625 0.17188,-0.0625 0.45313,-0.0937 0.28125,-0.0312 0.70312,-0.0312 0.4375,0 0.71875,0.0312 0.28125,0.0312 0.4375,0.0937 0.17188,0.0625 0.23438,0.15625 0.0781,0.0781 0.0781,0.1875 z m 19.59766,0 q 0,0.125 -0.0781,0.21875 -0.0625,0.0781 -0.23437,0.14062 -0.15625,0.0625 -0.4375,0.0937 -0.28125,0.0312 -0.71875,0.0312 -0.4375,0 -0.71875,-0.0312 -0.28125,-0.0312 -0.45313,-0.0937 -0.17187,-0.0625 -0.23437,-0.14062 -0.0625,-0.0937 -0.0625,-0.21875 v -6.1875 q 0,-0.53125 -0.10938,-0.96875 -0.0937,-0.4375 -0.29687,-0.73438 -0.20313,-0.3125 -0.51563,-0.48437 -0.3125,-0.17188 -0.75,-0.17188 -0.53125,0 -1.07812,0.40625 -0.53125,0.40625 -1.15625,1.20313 v 6.9375 q 0,0.125 -0.0781,0.21875 -0.0625,0.0781 -0.23437,0.14062 -0.17188,0.0625 -0.45313,0.0937 -0.28125,0.0312 -0.70312,0.0312 -0.4375,0 -0.71875,-0.0312 -0.28125,-0.0312 -0.45313,-0.0937 -0.15625,-0.0625 -0.23437,-0.14062 -0.0625,-0.0937 -0.0625,-0.21875 v -6.1875 q 0,-0.53125 -0.10938,-0.96875 -0.0937,-0.4375 -0.29687,-0.73438 -0.20313,-0.3125 -0.51563,-0.48437 -0.3125,-0.17188 -0.73437,-0.17188 -0.54688,0 -1.09375,0.40625 -0.53125,0.40625 -1.14063,1.20313 v 6.9375 q 0,0.125 -0.0781,0.21875 -0.0625,0.0781 -0.23438,0.14062 -0.17187,0.0625 -0.45312,0.0937 -0.28125,0.0312 -0.71875,0.0312 -0.4375,0 -0.71875,-0.0312 -0.28125,-0.0312 -0.45313,-0.0937 -0.15625,-0.0625 -0.23437,-0.14062 -0.0625,-0.0937 -0.0625,-0.21875 v -10.45313 q 0,-0.10937 0.0469,-0.1875 0.0625,-0.0937 0.21875,-0.15625 0.15625,-0.0625 0.39063,-0.0937 0.23437,-0.0312 0.60937,-0.0312 0.375,0 0.60938,0.0312 0.25,0.0312 0.375,0.0937 0.14062,0.0625 0.20312,0.15625 0.0625,0.0781 0.0625,0.1875 v 1.21875 q 0.85938,-0.9375 1.71875,-1.40625 0.875,-0.46875 1.8125,-0.46875 0.64063,0 1.15625,0.14063 0.51563,0.125 0.92188,0.375 0.40625,0.25 0.6875,0.60937 0.29687,0.34375 0.5,0.78125 0.46875,-0.5 0.92187,-0.85937 0.45313,-0.375 0.89063,-0.59375 0.4375,-0.23438 0.875,-0.34375 0.4375,-0.10938 0.89062,-0.10938 1.04688,0 1.76563,0.35938 0.71875,0.34375 1.15625,0.95312 0.4375,0.59375 0.625,1.40625 0.1875,0.79688 0.1875,1.70313 z m 12.55469,-5.53125 q 0,0.54687 -0.25,0.8125 -0.23438,0.25 -0.65625,0.25 h -6.35938 q 0,0.67187 0.15625,1.21875 0.15625,0.53125 0.5,0.92187 0.34375,0.375 0.89063,0.57813 0.54687,0.20312 1.3125,0.20312 0.76562,0 1.34375,-0.10937 0.59375,-0.125 1.01562,-0.25 0.4375,-0.14063 0.71875,-0.25 0.28125,-0.10938 0.45313,-0.10938 0.10937,0 0.17187,0.0469 0.0781,0.0312 0.125,0.14062 0.0469,0.10938 0.0625,0.29688 0.0156,0.1875 0.0156,0.48437 0,0.26563 -0.0156,0.45313 0,0.17187 -0.0312,0.29687 -0.0156,0.125 -0.0625,0.21875 -0.0469,0.0937 -0.125,0.17188 -0.0781,0.0781 -0.42187,0.21875 -0.34375,0.14062 -0.875,0.28125 -0.51563,0.14062 -1.20313,0.23437 -0.67187,0.0937 -1.45312,0.0937 -1.39063,0 -2.4375,-0.34375 -1.04688,-0.35937 -1.75,-1.0625 -0.70313,-0.71875 -1.04688,-1.8125 -0.34375,-1.09375 -0.34375,-2.5625 0,-1.39062 0.35938,-2.5 0.35937,-1.125 1.04687,-1.90625 0.70313,-0.78125 1.6875,-1.1875 0.98438,-0.40625 2.23438,-0.40625 1.3125,0 2.23437,0.39063 0.9375,0.375 1.53125,1.0625 0.60938,0.6875 0.89063,1.625 0.28125,0.9375 0.28125,2.03125 z m -2.85938,-0.84375 q 0.0312,-1.23438 -0.5,-1.9375 -0.53125,-0.71875 -1.65625,-0.71875 -0.5625,0 -0.98437,0.21875 -0.40625,0.20312 -0.6875,0.5625 -0.26563,0.35937 -0.42188,0.84375 -0.14062,0.48437 -0.15625,1.03125 z m 15.26953,6.375 q 0,0.125 -0.0781,0.21875 -0.0625,0.0781 -0.23438,0.14062 -0.15625,0.0625 -0.45312,0.0937 -0.28125,0.0312 -0.70313,0.0312 -0.4375,0 -0.73437,-0.0312 -0.28125,-0.0312 -0.45313,-0.0937 -0.15625,-0.0625 -0.23437,-0.14062 -0.0625,-0.0937 -0.0625,-0.21875 v -5.95313 q 0,-0.76562 -0.10938,-1.20312 -0.10937,-0.4375 -0.32812,-0.73438 -0.20313,-0.3125 -0.54688,-0.48437 -0.32812,-0.17188 -0.76562,-0.17188 -0.5625,0 -1.14063,0.40625 -0.57812,0.40625 -1.1875,1.20313 v 6.9375 q 0,0.125 -0.0781,0.21875 -0.0625,0.0781 -0.23438,0.14062 -0.17187,0.0625 -0.45312,0.0937 -0.28125,0.0312 -0.71875,0.0312 -0.4375,0 -0.71875,-0.0312 -0.28125,-0.0312 -0.45313,-0.0937 -0.15625,-0.0625 -0.23437,-0.14062 -0.0625,-0.0937 -0.0625,-0.21875 v -10.45313 q 0,-0.10937 0.0469,-0.1875 0.0625,-0.0937 0.21875,-0.15625 0.15625,-0.0625 0.39063,-0.0937 0.23437,-0.0312 0.60937,-0.0312 0.375,0 0.60938,0.0312 0.25,0.0312 0.375,0.0937 0.14062,0.0625 0.20312,0.15625 0.0625,0.0781 0.0625,0.1875 v 1.21875 q 0.85938,-0.9375 1.75,-1.40625 0.90625,-0.46875 1.875,-0.46875 1.07813,0 1.79688,0.35938 0.73437,0.34375 1.1875,0.95312 0.45312,0.59375 0.65625,1.40625 0.20312,0.79688 0.20312,1.9375 z m 8.85938,-1.03125 q 0,0.51562 -0.0781,0.79687 -0.0625,0.28125 -0.17187,0.39063 -0.0937,0.10937 -0.29688,0.20312 -0.20312,0.0781 -0.48437,0.14063 -0.28125,0.0781 -0.60938,0.10937 -0.3125,0.0312 -0.64062,0.0312 -0.875,0 -1.53125,-0.23437 -0.64063,-0.21875 -1.0625,-0.67188 -0.42188,-0.46875 -0.625,-1.17187 -0.1875,-0.70313 -0.1875,-1.65625 v -5.35938 h -1.25 q -0.23438,0 -0.35938,-0.26562 -0.10937,-0.28125 -0.10937,-0.9375 0,-0.32813 0.0312,-0.5625 0.0312,-0.23438 0.0937,-0.375 0.0625,-0.14063 0.14062,-0.1875 0.0937,-0.0625 0.20313,-0.0625 h 1.25 v -2.32812 q 0,-0.125 0.0625,-0.21875 0.0625,-0.0937 0.23437,-0.15625 0.17188,-0.0625 0.45313,-0.0937 0.29687,-0.0312 0.71875,-0.0312 0.42187,0 0.70312,0.0312 0.29688,0.0312 0.45313,0.0937 0.17187,0.0625 0.23437,0.15625 0.0781,0.0937 0.0781,0.21875 v 2.32812 h 2.28125 q 0.10937,0 0.1875,0.0625 0.0937,0.0469 0.15625,0.1875 0.0625,0.14062 0.0937,0.375 0.0312,0.23437 0.0312,0.5625 0,0.65625 -0.125,0.9375 -0.10938,0.26562 -0.34375,0.26562 h -2.28125 v 4.90625 q 0,0.85938 0.26562,1.29688 0.28125,0.42187 0.96875,0.42187 0.23438,0 0.42188,-0.0469 0.1875,-0.0469 0.32812,-0.0937 0.15625,-0.0469 0.25,-0.0937 0.0937,-0.0469 0.1875,-0.0469 0.0625,0 0.125,0.0469 0.0625,0.0469 0.0937,0.17187 0.0469,0.10938 0.0781,0.32813 0.0312,0.20312 0.0312,0.53125 z"
     fill-rule="nonzero"
     id="path23" />
  <path
     fill="#000000"
     d="m 756.2818,149.43848 v 0 c 0,-8.83655 7.16345,-16 16,-16 v 0 c 4.24347,0 8.31317,1.68573 11.31372,4.68631 3.00061,3.00058 4.68628,7.07022 4.68628,11.31369 v 0 c 0,8.83655 -7.16339,16 -16,16 v 0 c -8.83655,0 -16,-7.16345 -16,-16 z"
     fill-rule="evenodd"
     id="path25" />
  <path
     stroke="#4a7dba"
     stroke-width="1"
     stroke-linejoin="round"
     stroke-linecap="butt"
     d="m 756.2818,149.43848 v 0 c 0,-8.83655 7.16345,-16 16,-16 v 0 c 4.24347,0 8.31317,1.68573 11.31372,4.68631 3.00061,3.00058 4.68628,7.07022 4.68628,11.31369 v 0 c 0,8.83655 -7.16339,16 -16,16 v 0 c -8.83655,0 -16,-7.16345 -16,-16 z"
     fill-rule="evenodd"
     id="path27" />
  <path
     fill="#000000"
     fill-opacity="0"
     d="m 783.8722,118.90201 h 104.12781 v 67.85626 H 783.8722 Z"
     fill-rule="evenodd"
     id="path29" />
  <path
     fill="#000000"
     d="m 831.858,138.12952 q 0,2.09375 -0.54688,3.57813 -0.54687,1.48437 -1.5625,2.42187 -1.01562,0.9375 -2.48437,1.375 -1.45313,0.4375 -3.46875,0.4375 h -3.625 q -0.375,0 -0.64063,-0.21875 -0.26562,-0.23437 -0.26562,-0.75 v -13.21875 q 0,-0.51562 0.26562,-0.75 0.26563,-0.23437 0.64063,-0.23437 h 3.89062 q 2.03125,0 3.4375,0.48437 1.42188,0.46875 2.39063,1.40625 0.96875,0.92188 1.46875,2.29688 0.5,1.375 0.5,3.17187 z m -3.1875,0.10938 q 0,-1.07813 -0.25,-2 -0.25,-0.92188 -0.8125,-1.59375 -0.54688,-0.6875 -1.42188,-1.0625 -0.875,-0.39063 -2.29687,-0.39063 h -1.5625 v 10.3125 h 1.60937 q 1.26563,0 2.125,-0.32812 0.875,-0.32813 1.45313,-0.98438 0.57812,-0.67187 0.85937,-1.65625 0.29688,-0.98437 0.29688,-2.29687 z m 8.81641,7.28125 q 0,0.10937 -0.0781,0.20312 -0.0781,0.0937 -0.25,0.15625 -0.17187,0.0625 -0.46875,0.0937 -0.29687,0.0469 -0.75,0.0469 -0.45312,0 -0.75,-0.0469 -0.29687,-0.0312 -0.46875,-0.0937 -0.17187,-0.0625 -0.25,-0.15625 -0.0781,-0.0937 -0.0781,-0.20312 v -14.32813 q 0,-0.10937 0.0781,-0.20312 0.0781,-0.0937 0.25,-0.15625 0.1875,-0.0625 0.46875,-0.0937 0.29688,-0.0312 0.75,-0.0312 0.45313,0 0.75,0.0312 0.29688,0.0312 0.46875,0.0937 0.17188,0.0625 0.25,0.15625 0.0781,0.0937 0.0781,0.20312 z m 15.89843,-7.39063 q 0,2.09375 -0.54687,3.57813 -0.54688,1.48437 -1.5625,2.42187 -1.01563,0.9375 -2.48438,1.375 -1.45312,0.4375 -3.46875,0.4375 h -3.625 q -0.375,0 -0.64062,-0.21875 -0.26563,-0.23437 -0.26563,-0.75 v -13.21875 q 0,-0.51562 0.26563,-0.75 0.26562,-0.23437 0.64062,-0.23437 h 3.89063 q 2.03125,0 3.4375,0.48437 1.42187,0.46875 2.39062,1.40625 0.96875,0.92188 1.46875,2.29688 0.5,1.375 0.5,3.17187 z m -3.1875,0.10938 q 0,-1.07813 -0.25,-2 -0.25,-0.92188 -0.8125,-1.59375 -0.54687,-0.6875 -1.42187,-1.0625 -0.875,-0.39063 -2.29688,-0.39063 h -1.5625 v 10.3125 h 1.60938 q 1.26562,0 2.125,-0.32812 0.875,-0.32813 1.45312,-0.98438 0.57813,-0.67187 0.85938,-1.65625 0.29687,-0.98437 0.29687,-2.29687 z"
     fill-rule="nonzero"
     id="path31" />
  <path
     fill="#000000"
     d="m 809.73883,170.19515 q 0,1.1875 -0.45313,2.09375 -0.4375,0.90625 -1.20312,1.51563 -0.75,0.59375 -1.78125,0.90625 -1.01563,0.29687 -2.17188,0.29687 -0.78125,0 -1.46875,-0.125 -0.67187,-0.125 -1.1875,-0.3125 -0.51562,-0.1875 -0.85937,-0.375 -0.34375,-0.20312 -0.5,-0.35937 -0.14063,-0.15625 -0.21875,-0.4375 -0.0625,-0.28125 -0.0625,-0.82813 0,-0.35937 0.0156,-0.60937 0.0312,-0.25 0.0781,-0.39063 0.0625,-0.15625 0.14062,-0.21875 0.0937,-0.0625 0.21875,-0.0625 0.15625,0 0.45313,0.1875 0.3125,0.1875 0.78125,0.42188 0.46875,0.23437 1.10937,0.4375 0.65625,0.1875 1.51563,0.1875 0.5625,0 1,-0.125 0.45312,-0.14063 0.75,-0.39063 0.3125,-0.25 0.46875,-0.60937 0.17187,-0.35938 0.17187,-0.8125 0,-0.51563 -0.28125,-0.875 -0.28125,-0.375 -0.73437,-0.65625 -0.4375,-0.29688 -1.01563,-0.54688 -0.57812,-0.25 -1.1875,-0.53125 -0.60937,-0.28125 -1.1875,-0.64062 -0.5625,-0.35938 -1.01562,-0.84375 -0.45313,-0.5 -0.73438,-1.17188 -0.28125,-0.6875 -0.28125,-1.64062 0,-1.09375 0.40625,-1.92188 0.40625,-0.82812 1.07813,-1.35937 0.6875,-0.54688 1.625,-0.8125 0.9375,-0.28125 1.96875,-0.28125 0.54687,0 1.07812,0.0937 0.54688,0.0781 1.01563,0.21875 0.46875,0.14062 0.82812,0.3125 0.35938,0.17187 0.46875,0.29687 0.125,0.10938 0.17188,0.20313 0.0469,0.0781 0.0625,0.21875 0.0312,0.125 0.0469,0.32812 0.0156,0.20313 0.0156,0.51563 0,0.32812 -0.0156,0.5625 -0.0156,0.23437 -0.0625,0.39062 -0.0469,0.15625 -0.125,0.23438 -0.0625,0.0625 -0.20312,0.0625 -0.125,0 -0.40625,-0.15625 -0.28125,-0.17188 -0.6875,-0.35938 -0.40625,-0.20312 -0.95313,-0.35937 -0.53125,-0.15625 -1.1875,-0.15625 -0.5,0 -0.875,0.125 -0.375,0.125 -0.625,0.34375 -0.25,0.20312 -0.375,0.51562 -0.125,0.29688 -0.125,0.64063 0,0.5 0.26563,0.875 0.28125,0.375 0.75,0.65625 0.46875,0.28125 1.04687,0.54687 0.59375,0.25 1.20313,0.53125 0.60937,0.28125 1.1875,0.64063 0.59375,0.34375 1.04687,0.84375 0.45313,0.5 0.73438,1.17187 0.28125,0.67188 0.28125,1.59375 z m 12.09375,4.14063 q 0,0.125 -0.0625,0.21875 -0.0469,0.0781 -0.20313,0.14062 -0.14062,0.0625 -0.39062,0.0937 -0.23438,0.0312 -0.59375,0.0312 -0.39063,0 -0.64063,-0.0312 -0.23437,-0.0312 -0.375,-0.0937 -0.14062,-0.0625 -0.20312,-0.14062 -0.0469,-0.0937 -0.0469,-0.21875 v -1.20313 q -0.875,0.9375 -1.76562,1.40625 -0.89063,0.46875 -1.85938,0.46875 -1.07812,0 -1.8125,-0.34375 -0.73437,-0.35937 -1.1875,-0.96875 -0.4375,-0.60937 -0.64062,-1.40625 -0.1875,-0.8125 -0.1875,-2 v -6.40625 q 0,-0.10937 0.0625,-0.1875 0.0625,-0.0937 0.23437,-0.15625 0.17188,-0.0625 0.45313,-0.0937 0.29687,-0.0312 0.71875,-0.0312 0.42187,0 0.70312,0.0312 0.28125,0.0312 0.45313,0.0937 0.17187,0.0625 0.23437,0.15625 0.0781,0.0781 0.0781,0.1875 v 5.90625 q 0,0.82813 0.10937,1.26563 0.10938,0.42187 0.3125,0.73437 0.21875,0.3125 0.54688,0.48438 0.34375,0.17187 0.79687,0.17187 0.5625,0 1.125,-0.40625 0.5625,-0.42187 1.21875,-1.20312 v -6.95313 q 0,-0.10937 0.0625,-0.1875 0.0625,-0.0937 0.23438,-0.15625 0.17187,-0.0625 0.45312,-0.0937 0.28125,-0.0312 0.70313,-0.0312 0.4375,0 0.71875,0.0312 0.28125,0.0312 0.4375,0.0937 0.17187,0.0625 0.23437,0.15625 0.0781,0.0781 0.0781,0.1875 z m 13.48828,-5.35938 q 0,1.39063 -0.3125,2.51563 -0.29687,1.10937 -0.875,1.89062 -0.5625,0.78125 -1.40625,1.20313 -0.84375,0.42187 -1.90625,0.42187 -0.53125,0 -0.98437,-0.0937 -0.45313,-0.0937 -0.875,-0.3125 -0.40625,-0.23437 -0.8125,-0.57812 -0.40625,-0.34375 -0.82813,-0.8125 v 1.125 q 0,0.14062 -0.0625,0.23437 -0.0625,0.0781 -0.21875,0.14063 -0.14062,0.0625 -0.39062,0.0781 -0.25,0.0312 -0.59375,0.0312 -0.35938,0 -0.60938,-0.0312 -0.23437,-0.0156 -0.39062,-0.0781 -0.14063,-0.0625 -0.20313,-0.14063 -0.0469,-0.0937 -0.0469,-0.23437 v -15.40625 q 0,-0.10938 0.0625,-0.20313 0.0781,-0.0937 0.23437,-0.15625 0.17188,-0.0781 0.45313,-0.10937 0.28125,-0.0312 0.71875,-0.0312 0.4375,0 0.71875,0.0312 0.28125,0.0312 0.45312,0.10937 0.17188,0.0625 0.23438,0.15625 0.0781,0.0937 0.0781,0.20313 v 5.78125 q 0.39063,-0.40625 0.78125,-0.6875 0.40625,-0.28125 0.79688,-0.45313 0.40625,-0.1875 0.82812,-0.26562 0.42188,-0.0781 0.89063,-0.0781 1.15625,0 1.96875,0.46875 0.8125,0.45313 1.3125,1.23438 0.51562,0.78125 0.75,1.84375 0.23437,1.04687 0.23437,2.20312 z m -3.0625,0.20313 q 0,-0.65625 -0.0937,-1.28125 -0.0937,-0.625 -0.34375,-1.09375 -0.25,-0.48438 -0.64062,-0.76563 -0.39063,-0.29687 -0.98438,-0.29687 -0.29687,0 -0.57812,0.0781 -0.28125,0.0781 -0.57813,0.28125 -0.29687,0.20313 -0.625,0.51563 -0.3125,0.3125 -0.65625,0.78125 v 3.46875 q 0.60938,0.79687 1.17188,1.21875 0.57812,0.42187 1.20312,0.42187 0.57813,0 0.96875,-0.29687 0.40625,-0.29688 0.65625,-0.76563 0.26563,-0.46875 0.375,-1.0625 0.125,-0.59375 0.125,-1.20312 z m 8.59766,5.51562 q 0,1.23438 -0.21875,1.98438 -0.20313,0.76562 -0.64063,1.28125 -0.42187,0.53125 -1.0625,0.79687 -0.64062,0.26563 -1.51562,0.26563 -0.48438,0 -0.82813,-0.0625 -0.32812,-0.0625 -0.48437,-0.14063 -0.15625,-0.0625 -0.20313,-0.17187 -0.0625,-0.10938 -0.0781,-0.25 -0.0312,-0.125 -0.0469,-0.29688 -0.0156,-0.17187 -0.0156,-0.4375 0,-0.32812 0.0156,-0.54687 0.0156,-0.21875 0.0625,-0.34375 0.0469,-0.125 0.10938,-0.1875 0.0625,-0.0625 0.15625,-0.0625 0.0625,0 0.23437,0.0312 0.1875,0.0312 0.40625,0.0312 0.29688,0 0.51563,-0.0937 0.23437,-0.0937 0.375,-0.29688 0.14062,-0.20312 0.20312,-0.53125 0.0781,-0.32812 0.0781,-1.03125 v -10.71875 q 0,-0.125 0.0625,-0.20312 0.0781,-0.0937 0.23437,-0.15625 0.17188,-0.0625 0.45313,-0.0937 0.28125,-0.0469 0.70312,-0.0469 0.4375,0 0.71875,0.0469 0.28125,0.0312 0.45313,0.0937 0.17187,0.0625 0.23437,0.15625 0.0781,0.0781 0.0781,0.20312 z m 0.21875,-14.34375 q 0,0.89063 -0.35938,1.23438 -0.35937,0.32812 -1.34375,0.32812 -0.98437,0 -1.34375,-0.32812 -0.34375,-0.32813 -0.34375,-1.17188 0,-0.89062 0.35938,-1.23437 0.35937,-0.35938 1.34375,-0.35938 1,0 1.34375,0.34375 0.34375,0.32813 0.34375,1.1875 z m 12.39453,8.45313 q 0,0.54687 -0.25,0.8125 -0.23438,0.25 -0.65625,0.25 h -6.35938 q 0,0.67187 0.15625,1.21875 0.15625,0.53125 0.5,0.92187 0.34375,0.375 0.89063,0.57813 0.54687,0.20312 1.3125,0.20312 0.76562,0 1.34375,-0.10937 0.59375,-0.125 1.01562,-0.25 0.4375,-0.14063 0.71875,-0.25 0.28125,-0.10938 0.45313,-0.10938 0.10937,0 0.17187,0.0469 0.0781,0.0312 0.125,0.14062 0.0469,0.10938 0.0625,0.29688 0.0156,0.1875 0.0156,0.48437 0,0.26563 -0.0156,0.45313 0,0.17187 -0.0312,0.29687 -0.0156,0.125 -0.0625,0.21875 -0.0469,0.0937 -0.125,0.17188 -0.0781,0.0781 -0.42187,0.21875 -0.34375,0.14062 -0.875,0.28125 -0.51563,0.14062 -1.20313,0.23437 -0.67187,0.0937 -1.45312,0.0937 -1.39063,0 -2.4375,-0.34375 -1.04688,-0.35937 -1.75,-1.0625 -0.70313,-0.71875 -1.04688,-1.8125 -0.34375,-1.09375 -0.34375,-2.5625 0,-1.39062 0.35938,-2.5 0.35937,-1.125 1.04687,-1.90625 0.70313,-0.78125 1.6875,-1.1875 0.98438,-0.40625 2.23438,-0.40625 1.3125,0 2.23437,0.39063 0.9375,0.375 1.53125,1.0625 0.60938,0.6875 0.89063,1.625 0.28125,0.9375 0.28125,2.03125 z m -2.85938,-0.84375 q 0.0312,-1.23438 -0.5,-1.9375 -0.53125,-0.71875 -1.65625,-0.71875 -0.5625,0 -0.98437,0.21875 -0.40625,0.20312 -0.6875,0.5625 -0.26563,0.35937 -0.42188,0.84375 -0.14062,0.48437 -0.15625,1.03125 z m 13.19141,4.71875 q 0,0.29687 -0.0156,0.51562 -0.0156,0.20313 -0.0469,0.34375 -0.0312,0.14063 -0.0781,0.23438 -0.0312,0.0781 -0.17187,0.21875 -0.14063,0.125 -0.48438,0.32812 -0.34375,0.1875 -0.78125,0.34375 -0.42187,0.15625 -0.9375,0.25 -0.51562,0.0937 -1.04687,0.0937 -1.20313,0 -2.14063,-0.375 -0.9375,-0.39062 -1.57812,-1.10937 -0.625,-0.73438 -0.95313,-1.78125 -0.3125,-1.0625 -0.3125,-2.42188 0,-1.57812 0.39063,-2.71875 0.39062,-1.14062 1.09375,-1.89062 0.70312,-0.75 1.65625,-1.10938 0.96875,-0.375 2.125,-0.375 0.46875,0 0.92187,0.0937 0.45313,0.0781 0.84375,0.21875 0.39063,0.14063 0.70313,0.3125 0.3125,0.17188 0.4375,0.3125 0.125,0.125 0.17187,0.21875 0.0625,0.0781 0.0937,0.21875 0.0312,0.14063 0.0469,0.34375 0.0156,0.20313 0.0156,0.5 0,0.6875 -0.125,0.96875 -0.10937,0.26563 -0.29687,0.26563 -0.20313,0 -0.42188,-0.15625 -0.21875,-0.17188 -0.53125,-0.375 -0.29687,-0.20313 -0.71875,-0.35938 -0.42187,-0.17187 -1.01562,-0.17187 -1.14063,0 -1.75,0.89062 -0.60938,0.89063 -0.60938,2.59375 0,0.84375 0.14063,1.5 0.15625,0.64063 0.45312,1.07813 0.29688,0.42187 0.75,0.64062 0.45313,0.21875 1.04688,0.21875 0.60937,0 1.04687,-0.17187 0.45313,-0.1875 0.78125,-0.40625 0.32813,-0.23438 0.54688,-0.40625 0.21875,-0.1875 0.375,-0.1875 0.10937,0 0.17187,0.0625 0.0781,0.0469 0.10938,0.21875 0.0469,0.15625 0.0625,0.40625 0.0312,0.23437 0.0312,0.625 z m 8.32422,0.625 q 0,0.51562 -0.0781,0.79687 -0.0625,0.28125 -0.17187,0.39063 -0.0937,0.10937 -0.29688,0.20312 -0.20312,0.0781 -0.48437,0.14063 -0.28125,0.0781 -0.60938,0.10937 -0.3125,0.0312 -0.64062,0.0312 -0.875,0 -1.53125,-0.23437 -0.64063,-0.21875 -1.0625,-0.67188 -0.42188,-0.46875 -0.625,-1.17187 -0.1875,-0.70313 -0.1875,-1.65625 v -5.35938 h -1.25 q -0.23438,0 -0.35938,-0.26562 -0.10937,-0.28125 -0.10937,-0.9375 0,-0.32813 0.0312,-0.5625 0.0312,-0.23438 0.0937,-0.375 0.0625,-0.14063 0.14062,-0.1875 0.0937,-0.0625 0.20313,-0.0625 h 1.25 v -2.32813 q 0,-0.125 0.0625,-0.21875 0.0625,-0.0937 0.23437,-0.15625 0.17188,-0.0625 0.45313,-0.0937 0.29687,-0.0312 0.71875,-0.0312 0.42187,0 0.70312,0.0312 0.29688,0.0312 0.45313,0.0937 0.17187,0.0625 0.23437,0.15625 0.0781,0.0937 0.0781,0.21875 v 2.32813 h 2.28125 q 0.10937,0 0.1875,0.0625 0.0937,0.0469 0.15625,0.1875 0.0625,0.14062 0.0937,0.375 0.0312,0.23437 0.0312,0.5625 0,0.65625 -0.125,0.9375 -0.10938,0.26562 -0.34375,0.26562 h -2.28125 v 4.90625 q 0,0.85938 0.26562,1.29688 0.28125,0.42187 0.96875,0.42187 0.23438,0 0.42188,-0.0469 0.1875,-0.0469 0.32812,-0.0937 0.15625,-0.0469 0.25,-0.0937 0.0937,-0.0469 0.1875,-0.0469 0.0625,0 0.125,0.0469 0.0625,0.0469 0.0937,0.17187 0.0469,0.10938 0.0781,0.32813 0.0312,0.20312 0.0312,0.53125 z"
     fill-rule="nonzero"
     id="path33" />
  <path
     fill="#000000"
     fill-opacity="0"
     d="M 359.1999,138.12479 H 518.88496"
     fill-rule="evenodd"
     id="path35" />
  <path
     stroke="#119209"
     stroke-width="4"
     stroke-linejoin="round"
     stroke-linecap="butt"
     d="M 359.1999,138.12479 H 488.88496"
     fill-rule="evenodd"
     id="path37" />
  <path
     fill="#119209"
     stroke="#119209"
     stroke-width="4"
     stroke-linecap="butt"
     d="m 488.88495,146.91553 24.15234,-8.79074 -24.15234,-8.79077 z"
     fill-rule="evenodd"
     id="path39" />
  <path
     fill="#000000"
     fill-opacity="0"
     d="M 648.2003,149.43848 H 756.29478"
     fill-rule="evenodd"
     id="path41" />
  <path
     stroke="#2b40cd"
     stroke-width="4"
     stroke-linejoin="round"
     stroke-linecap="butt"
     d="m 648.2003,149.43848 h 78.09448"
     fill-rule="evenodd"
     id="path43" />
  <path
     fill="#2b40cd"
     stroke="#2b40cd"
     stroke-width="4"
     stroke-linecap="butt"
     d="m 726.2948,158.22925 24.15241,-8.79077 -24.15241,-8.79074 z"
     fill-rule="evenodd"
     id="path45" />
  <path
     fill="#000000"
     fill-opacity="0"
     d="m 359.1999,105.43774 h 158.26276 v 32.31257 H 359.1999 Z"
     fill-rule="evenodd"
     id="path47" />
  <path
     fill="#119209"
     d="m 417.52325,116.77961 q 0,0.1875 -0.0781,0.46875 -0.0625,0.28125 -0.17188,0.45312 -0.0937,0.15625 -0.21875,0.15625 -0.125,0 -0.29687,-0.17187 -0.17188,-0.17188 -0.46875,-0.35938 -0.28125,-0.20312 -0.75,-0.35937 -0.45313,-0.17188 -1.14063,-0.17188 -0.76562,0 -1.40625,0.28125 -0.625,0.28125 -1.14062,0.78125 -0.5,0.48438 -0.89063,1.125 -0.375,0.625 -0.625,1.32813 -0.25,0.70312 -0.375,1.42187 -0.125,0.70313 -0.125,1.32813 0,0.73437 0.17188,1.3125 0.1875,0.5625 0.53125,0.95312 0.35937,0.39063 0.85937,0.59375 0.5,0.20313 1.14063,0.20313 0.70312,0 1.21875,-0.15625 0.51562,-0.17188 0.875,-0.35938 0.375,-0.20312 0.625,-0.35937 0.25,-0.15625 0.40625,-0.15625 0.0937,0 0.14062,0.0781 0.0469,0.0625 0.0469,0.20313 0,0.0469 -0.0156,0.14062 -0.0156,0.0781 -0.0312,0.1875 -0.0156,0.0937 -0.0469,0.21875 -0.0156,0.10938 -0.0625,0.21875 -0.0312,0.10938 -0.0781,0.20313 -0.0312,0.0781 -0.125,0.17187 -0.0937,0.0937 -0.40625,0.26563 -0.29687,0.17187 -0.75,0.34375 -0.4375,0.15625 -0.98437,0.26562 -0.54688,0.10938 -1.17188,0.10938 -0.9375,0 -1.6875,-0.26563 -0.73437,-0.28125 -1.26562,-0.82812 -0.51563,-0.54688 -0.8125,-1.34375 -0.28125,-0.8125 -0.28125,-1.85938 0,-0.85937 0.17187,-1.76562 0.1875,-0.92188 0.54688,-1.78125 0.35937,-0.875 0.89062,-1.64063 0.53125,-0.76562 1.23438,-1.34375 0.70312,-0.57812 1.59375,-0.90625 0.89062,-0.34375 1.9375,-0.34375 0.67187,0 1.25,0.15625 0.57812,0.14063 0.98437,0.375 0.40625,0.23438 0.59375,0.40625 0.1875,0.17188 0.1875,0.42188 z m 8.21591,4.85937 q 0,0.6875 -0.14062,1.39063 -0.125,0.6875 -0.39063,1.34375 -0.25,0.65625 -0.65625,1.23437 -0.39062,0.5625 -0.9375,1 -0.54687,0.42188 -1.23437,0.67188 -0.6875,0.25 -1.53125,0.25 -0.875,0 -1.5,-0.20313 -0.625,-0.21875 -1.03125,-0.60937 -0.39063,-0.40625 -0.59375,-0.98438 -0.1875,-0.59375 -0.1875,-1.32812 0,-0.67188 0.125,-1.375 0.125,-0.70313 0.39062,-1.34375 0.26563,-0.65625 0.65625,-1.23438 0.40625,-0.57812 0.9375,-1 0.54688,-0.42187 1.23438,-0.67187 0.6875,-0.26563 1.53125,-0.26563 0.875,0 1.5,0.21875 0.625,0.21875 1.03125,0.625 0.40625,0.39063 0.59375,0.98438 0.20312,0.57812 0.20312,1.29687 z m -1.59375,0.0937 q 0,-0.45312 -0.0937,-0.8125 -0.0937,-0.375 -0.32812,-0.625 -0.21875,-0.25 -0.57813,-0.375 -0.35937,-0.14062 -0.85937,-0.14062 -0.54688,0 -1,0.20312 -0.4375,0.1875 -0.79688,0.53125 -0.34375,0.32813 -0.60937,0.78125 -0.26563,0.4375 -0.4375,0.9375 -0.15625,0.5 -0.25,1.04688 -0.0781,0.53125 -0.0781,1.03125 0,0.45312 0.0937,0.82812 0.10938,0.35938 0.32813,0.625 0.23437,0.25 0.57812,0.39063 0.35938,0.125 0.875,0.125 0.54688,0 0.98438,-0.1875 0.45312,-0.20313 0.79687,-0.53125 0.35938,-0.34375 0.60938,-0.78125 0.26562,-0.45313 0.4375,-0.95313 0.17187,-0.51562 0.25,-1.04687 0.0781,-0.53125 0.0781,-1.04688 z m 10.85532,-0.98437 q 0,0.3125 -0.0312,0.625 -0.0312,0.3125 -0.0937,0.64062 l -1.03125,5.10938 q -0.0156,0.0781 -0.0625,0.14062 -0.0469,0.0469 -0.14063,0.0781 -0.0937,0.0312 -0.25,0.0469 -0.14062,0.0156 -0.35937,0.0156 -0.21875,0 -0.35938,-0.0156 -0.14062,-0.0156 -0.21875,-0.0469 -0.0781,-0.0312 -0.10937,-0.0781 -0.0156,-0.0625 0,-0.14062 l 1,-5.0625 q 0.0625,-0.28125 0.0781,-0.54688 0.0312,-0.26562 0.0312,-0.45312 0,-0.5625 -0.23437,-0.90625 -0.23438,-0.34375 -0.79688,-0.34375 -0.48437,0 -0.98437,0.28125 -0.5,0.28125 -0.9375,0.76562 -0.4375,0.48438 -0.78125,1.15625 -0.32813,0.67188 -0.48438,1.45313 l -0.73437,3.65625 q -0.0156,0.0781 -0.0625,0.14062 -0.0469,0.0469 -0.14063,0.0781 -0.0937,0.0312 -0.25,0.0469 -0.14062,0.0156 -0.35937,0.0156 -0.21875,0 -0.35938,-0.0156 -0.14062,-0.0156 -0.21875,-0.0469 -0.0781,-0.0312 -0.10937,-0.0781 -0.0156,-0.0625 0,-0.14062 l 1.64062,-8.20313 q 0.0156,-0.0625 0.0469,-0.10937 0.0469,-0.0625 0.125,-0.0937 0.0937,-0.0469 0.21875,-0.0469 0.14062,-0.0156 0.32812,-0.0156 0.1875,0 0.3125,0.0156 0.125,0 0.1875,0.0469 0.0781,0.0312 0.0937,0.0937 0.0156,0.0469 0,0.10937 l -0.29687,1.5625 q 0.125,-0.29687 0.4375,-0.64062 0.3125,-0.35938 0.73437,-0.64063 0.4375,-0.29687 0.95313,-0.48437 0.51562,-0.20313 1.0625,-0.20313 0.60937,0 1.01562,0.1875 0.42188,0.1875 0.67188,0.5 0.25,0.29688 0.35937,0.70313 0.10938,0.40625 0.10938,0.84375 z m 7.26938,-1.71875 q 0,0.0781 -0.0156,0.17187 0,0.0937 -0.0312,0.20313 -0.0156,0.0937 -0.0625,0.20312 -0.0469,0.0937 -0.10937,0.17188 -0.0469,0.0781 -0.10938,0.125 -0.0625,0.0312 -0.14062,0.0312 h -2.09375 l -0.92188,4.57812 q -0.0312,0.1875 -0.0625,0.4375 -0.0312,0.23438 -0.0312,0.39063 0,0.45312 0.1875,0.67187 0.20313,0.21875 0.64063,0.21875 0.25,0 0.42187,-0.0469 0.1875,-0.0469 0.3125,-0.0781 0.14063,-0.0469 0.23438,-0.0937 0.10937,-0.0469 0.1875,-0.0469 0.0625,0 0.10937,0.0625 0.0469,0.0469 0.0469,0.1875 0,0.10937 -0.0312,0.25 -0.0156,0.14062 -0.0625,0.28125 -0.0312,0.14062 -0.0937,0.25 -0.0469,0.10937 -0.10938,0.17187 -0.0781,0.0625 -0.21875,0.125 -0.14062,0.0625 -0.34375,0.10938 -0.1875,0.0469 -0.40625,0.0781 -0.20312,0.0312 -0.42187,0.0312 -0.5,0 -0.875,-0.10937 -0.375,-0.10938 -0.64063,-0.34375 -0.25,-0.23438 -0.375,-0.57813 -0.10937,-0.35937 -0.10937,-0.84375 0,-0.10937 0,-0.23437 0.0156,-0.14063 0.0312,-0.28125 0.0312,-0.15625 0.0469,-0.29688 0.0312,-0.14062 0.0469,-0.28125 l 0.92187,-4.60937 h -1.14062 q -0.0937,0 -0.15625,-0.0469 -0.0469,-0.0625 -0.0469,-0.23437 0,-0.125 0.0156,-0.29688 0.0312,-0.17187 0.0781,-0.3125 0.0625,-0.15625 0.14063,-0.25 0.0937,-0.0937 0.21875,-0.0937 h 1.14062 l 0.40625,-1.95312 q 0,-0.0625 0.0469,-0.10938 0.0625,-0.0625 0.14062,-0.10937 0.0937,-0.0469 0.23438,-0.0625 0.15625,-0.0156 0.375,-0.0156 0.21875,0 0.35937,0.0156 0.15625,0.0156 0.21875,0.0625 0.0781,0.0469 0.0937,0.10937 0.0312,0.0469 0.0312,0.10938 l -0.39062,1.95312 h 2.09375 q 0.14062,0 0.17187,0.0937 0.0469,0.0937 0.0469,0.23438 z m 6.67099,-0.0937 q 0,0.0469 -0.0156,0.15625 -0.0156,0.0937 -0.0312,0.23437 -0.0156,0.14063 -0.0625,0.28125 -0.0312,0.14063 -0.0937,0.26563 -0.0469,0.125 -0.10937,0.20312 -0.0625,0.0781 -0.125,0.0781 -0.0781,0 -0.17188,-0.0312 -0.0781,-0.0312 -0.1875,-0.0625 -0.10937,-0.0469 -0.25,-0.0781 -0.125,-0.0469 -0.3125,-0.0469 -0.3125,0 -0.71875,0.28125 -0.39062,0.26562 -0.79687,0.73437 -0.39063,0.46875 -0.71875,1.125 -0.3125,0.64063 -0.46875,1.40625 l -0.71875,3.64063 q -0.0156,0.0781 -0.0625,0.14062 -0.0469,0.0469 -0.14063,0.0781 -0.0937,0.0312 -0.25,0.0469 -0.14062,0.0156 -0.35937,0.0156 -0.21875,0 -0.35938,-0.0156 -0.14062,-0.0156 -0.21875,-0.0469 -0.0781,-0.0312 -0.10937,-0.0781 -0.0156,-0.0625 0,-0.14062 l 1.625,-8.20313 q 0.0156,-0.0625 0.0625,-0.10937 0.0469,-0.0625 0.125,-0.0937 0.0937,-0.0469 0.21875,-0.0469 0.14062,-0.0156 0.32812,-0.0156 0.1875,0 0.3125,0.0156 0.125,0 0.1875,0.0469 0.0781,0.0312 0.0937,0.0937 0.0156,0.0469 0,0.10937 l -0.29687,1.5 q 0.21875,-0.375 0.5,-0.71875 0.28125,-0.34375 0.60937,-0.60937 0.34375,-0.26563 0.71875,-0.42188 0.375,-0.15625 0.71875,-0.15625 0.15625,0 0.3125,0.0312 0.17188,0.0156 0.29688,0.0469 0.14062,0.0312 0.25,0.0781 0.10937,0.0469 0.15625,0.0937 0.0625,0.0625 0.0625,0.17188 z m 8.42611,2.70312 q 0,0.6875 -0.14062,1.39063 -0.125,0.6875 -0.39063,1.34375 -0.25,0.65625 -0.65625,1.23437 -0.39062,0.5625 -0.9375,1 -0.54687,0.42188 -1.23437,0.67188 -0.6875,0.25 -1.53125,0.25 -0.875,0 -1.5,-0.20313 -0.625,-0.21875 -1.03125,-0.60937 -0.39063,-0.40625 -0.59375,-0.98438 -0.1875,-0.59375 -0.1875,-1.32812 0,-0.67188 0.125,-1.375 0.125,-0.70313 0.39062,-1.34375 0.26563,-0.65625 0.65625,-1.23438 0.40625,-0.57812 0.9375,-1 0.54688,-0.42187 1.23438,-0.67187 0.6875,-0.26563 1.53125,-0.26563 0.875,0 1.5,0.21875 0.625,0.21875 1.03125,0.625 0.40625,0.39063 0.59375,0.98438 0.20312,0.57812 0.20312,1.29687 z m -1.59375,0.0937 q 0,-0.45312 -0.0937,-0.8125 -0.0937,-0.375 -0.32812,-0.625 -0.21875,-0.25 -0.57813,-0.375 -0.35937,-0.14062 -0.85937,-0.14062 -0.54688,0 -1,0.20312 -0.4375,0.1875 -0.79688,0.53125 -0.34375,0.32813 -0.60937,0.78125 -0.26563,0.4375 -0.4375,0.9375 -0.15625,0.5 -0.25,1.04688 -0.0781,0.53125 -0.0781,1.03125 0,0.45312 0.0937,0.82812 0.10938,0.35938 0.32813,0.625 0.23437,0.25 0.57812,0.39063 0.35938,0.125 0.875,0.125 0.54688,0 0.98438,-0.1875 0.45312,-0.20313 0.79687,-0.53125 0.35938,-0.34375 0.60938,-0.78125 0.26562,-0.45313 0.4375,-0.95313 0.17187,-0.51562 0.25,-1.04687 0.0781,-0.53125 0.0781,-1.04688 z m 4.35535,5.39063 q -0.0156,0.0781 -0.0625,0.14062 -0.0469,0.0469 -0.14062,0.0781 -0.0937,0.0312 -0.25,0.0469 -0.14063,0.0156 -0.35938,0.0156 -0.21875,0 -0.35937,-0.0156 -0.14063,-0.0156 -0.21875,-0.0469 -0.0781,-0.0312 -0.10938,-0.0781 -0.0156,-0.0625 0,-0.14062 l 2.42188,-12.15625 q 0.0156,-0.0781 0.0469,-0.125 0.0469,-0.0625 0.14063,-0.0937 0.10937,-0.0469 0.25,-0.0625 0.15625,-0.0156 0.375,-0.0156 0.21875,0 0.35937,0.0156 0.15625,0.0156 0.21875,0.0625 0.0781,0.0312 0.0937,0.0937 0.0312,0.0469 0.0156,0.125 z m 9.00021,-7.75 q 0,0.0937 -0.0312,0.25 -0.0312,0.14062 -0.0781,0.29687 -0.0469,0.14063 -0.125,0.25 -0.0625,0.0937 -0.14063,0.0937 -0.10937,0 -0.26562,-0.0781 -0.15625,-0.0937 -0.375,-0.20313 -0.21875,-0.10937 -0.53125,-0.20312 -0.29688,-0.0937 -0.70313,-0.0937 -0.40625,0 -0.71875,0.125 -0.3125,0.10937 -0.53125,0.3125 -0.20312,0.1875 -0.3125,0.4375 -0.10937,0.25 -0.10937,0.51562 0,0.375 0.23437,0.625 0.25,0.23438 0.60938,0.42188 0.375,0.1875 0.79687,0.375 0.42188,0.1875 0.78125,0.45312 0.35938,0.26563 0.59375,0.65625 0.25,0.375 0.25,0.9375 0,0.64063 -0.25,1.20313 -0.25,0.54687 -0.71875,0.95312 -0.46875,0.39063 -1.14062,0.60938 -0.65625,0.21875 -1.48438,0.21875 -0.42187,0 -0.79687,-0.0625 -0.375,-0.0625 -0.6875,-0.15625 -0.29688,-0.10938 -0.51563,-0.23438 -0.21875,-0.125 -0.34375,-0.23437 -0.0781,-0.0625 -0.10937,-0.14063 -0.0312,-0.0781 -0.0312,-0.1875 0,-0.0781 0,-0.17187 0.0156,-0.10938 0.0469,-0.21875 0.0312,-0.10938 0.0625,-0.20313 0.0312,-0.10937 0.0781,-0.1875 0.0469,-0.0781 0.0937,-0.125 0.0469,-0.0469 0.10937,-0.0469 0.10938,0 0.26563,0.125 0.15625,0.10937 0.40625,0.25 0.25,0.14062 0.60937,0.26562 0.375,0.125 0.9375,0.125 0.5,0 0.85938,-0.125 0.35937,-0.125 0.59375,-0.32812 0.23437,-0.20313 0.34375,-0.46875 0.125,-0.28125 0.125,-0.57813 0,-0.39062 -0.23438,-0.625 -0.23437,-0.23437 -0.59375,-0.4375 -0.35937,-0.20312 -0.78125,-0.39062 -0.42187,-0.1875 -0.78125,-0.4375 -0.35937,-0.26563 -0.60937,-0.64063 -0.23438,-0.39062 -0.23438,-0.96875 0,-0.59375 0.23438,-1.10937 0.23437,-0.51563 0.67187,-0.89063 0.4375,-0.39062 1.03125,-0.59375 0.60938,-0.21875 1.35938,-0.21875 0.34375,0 0.65625,0.0625 0.32812,0.0469 0.59375,0.14063 0.28125,0.0781 0.48437,0.1875 0.20313,0.0937 0.29688,0.1875 0.10937,0.0937 0.10937,0.28125 z"
     fill-rule="nonzero"
     id="path49" />
  <path
     fill="#000000"
     fill-opacity="0"
     d="m 648.2003,152.83021 h 95.79968 v 32.31253 H 648.2003 Z"
     fill-rule="evenodd"
     id="path51" />
  <path
     fill="#2b40cd"
     d="m 671.3018,167.20331 q 0,0.59375 -0.0937,1.23437 -0.0781,0.64063 -0.25,1.29688 -0.17188,0.64062 -0.46875,1.26562 -0.28125,0.60938 -0.6875,1.17188 -0.39063,0.5625 -0.9375,1.03125 -0.53125,0.46875 -1.21875,0.82812 -0.67188,0.34375 -1.51563,0.53125 -0.82812,0.1875 -2.01562,0.1875 h -2.60938 q -0.10937,0 -0.21875,-0.0312 -0.10937,-0.0312 -0.1875,-0.0937 -0.0625,-0.0781 -0.0937,-0.20312 -0.0312,-0.125 0.0156,-0.3125 l 2.09375,-10.51563 q 0.0625,-0.34375 0.28125,-0.48437 0.21875,-0.14063 0.48437,-0.14063 h 2.48438 q 1.35937,0 2.25,0.28125 0.90625,0.28125 1.5,0.82813 0.59375,0.54687 0.89062,1.34375 0.29688,0.78125 0.29688,1.78125 z m -1.65625,0.14062 q 0,-0.67187 -0.1875,-1.23437 -0.1875,-0.5625 -0.59375,-0.96875 -0.39063,-0.40625 -1.01563,-0.64063 -0.625,-0.23437 -1.65625,-0.23437 h -1.64062 l -1.82813,9.17187 h 1.60938 q 1.125,0 1.85937,-0.26562 0.75,-0.26563 1.32813,-0.71875 0.57812,-0.46875 0.96875,-1.07813 0.40625,-0.60937 0.65625,-1.28125 0.26562,-0.6875 0.375,-1.39062 0.125,-0.70313 0.125,-1.35938 z m 10.43109,0.65625 q 0,0.625 -0.29687,1.125 -0.28125,0.5 -0.90625,0.85938 -0.60938,0.35937 -1.57813,0.54687 -0.96875,0.1875 -2.3125,0.1875 h -0.96875 q -0.0625,0.3125 -0.0937,0.59375 -0.0156,0.28125 -0.0156,0.51563 0,0.92187 0.45312,1.40625 0.45313,0.48437 1.45313,0.48437 0.59375,0 1.04687,-0.0937 0.46875,-0.0937 0.8125,-0.1875 0.34375,-0.0937 0.5625,-0.17187 0.21875,-0.0937 0.29688,-0.0937 0.0781,0 0.125,0.0625 0.0469,0.0469 0.0469,0.15625 0,0.0937 -0.0312,0.21875 -0.0156,0.125 -0.0469,0.26562 -0.0312,0.125 -0.0937,0.25 -0.0625,0.10938 -0.14063,0.20313 -0.10937,0.10937 -0.39062,0.21875 -0.26563,0.0937 -0.65625,0.1875 -0.375,0.0781 -0.82813,0.125 -0.45312,0.0625 -0.92187,0.0625 -0.79688,0 -1.42188,-0.17188 -0.60937,-0.1875 -1.01562,-0.5625 -0.39063,-0.39062 -0.59375,-0.95312 -0.20313,-0.5625 -0.20313,-1.32813 0,-0.59375 0.10938,-1.26562 0.10937,-0.6875 0.35937,-1.34375 0.25,-0.67188 0.64063,-1.28125 0.39062,-0.60938 0.92187,-1.0625 0.54688,-0.46875 1.25,-0.75 0.71875,-0.29688 1.625,-0.29688 0.76563,0 1.29688,0.20313 0.53125,0.1875 0.85937,0.48437 0.34375,0.29688 0.5,0.67188 0.15625,0.375 0.15625,0.73437 z m -1.53125,0.14063 q 0,-0.46875 -0.375,-0.75 -0.35937,-0.29688 -1.03125,-0.29688 -0.59375,0 -1.04687,0.21875 -0.45313,0.20313 -0.8125,0.54688 -0.34375,0.34375 -0.59375,0.8125 -0.25,0.45312 -0.40625,0.95312 h 0.92187 q 0.96875,0 1.60938,-0.10937 0.64062,-0.125 1.01562,-0.32813 0.39063,-0.20312 0.54688,-0.46875 0.17187,-0.28125 0.17187,-0.57812 z m 8.831,-1.375 q 0,0.0937 -0.0312,0.25 -0.0312,0.14062 -0.0781,0.29687 -0.0469,0.14063 -0.125,0.25 -0.0625,0.0937 -0.14062,0.0937 -0.10938,0 -0.26563,-0.0781 -0.15625,-0.0937 -0.375,-0.20313 -0.21875,-0.10937 -0.53125,-0.20312 -0.29687,-0.0937 -0.70312,-0.0937 -0.40625,0 -0.71875,0.125 -0.3125,0.10937 -0.53125,0.3125 -0.20313,0.1875 -0.3125,0.4375 -0.10938,0.25 -0.10938,0.51562 0,0.375 0.23438,0.625 0.25,0.23438 0.60937,0.42188 0.375,0.1875 0.79688,0.375 0.42187,0.1875 0.78125,0.45312 0.35937,0.26563 0.59375,0.65625 0.25,0.375 0.25,0.9375 0,0.64063 -0.25,1.20313 -0.25,0.54687 -0.71875,0.95312 -0.46875,0.39063 -1.14063,0.60938 -0.65625,0.21875 -1.48437,0.21875 -0.42188,0 -0.79688,-0.0625 -0.375,-0.0625 -0.6875,-0.15625 -0.29687,-0.10938 -0.51562,-0.23438 -0.21875,-0.125 -0.34375,-0.23437 -0.0781,-0.0625 -0.10938,-0.14063 -0.0312,-0.0781 -0.0312,-0.1875 0,-0.0781 0,-0.17187 0.0156,-0.10938 0.0469,-0.21875 0.0312,-0.10938 0.0625,-0.20313 0.0312,-0.10937 0.0781,-0.1875 0.0469,-0.0781 0.0937,-0.125 0.0469,-0.0469 0.10938,-0.0469 0.10937,0 0.26562,0.125 0.15625,0.10937 0.40625,0.25 0.25,0.14062 0.60938,0.26562 0.375,0.125 0.9375,0.125 0.5,0 0.85937,-0.125 0.35938,-0.125 0.59375,-0.32812 0.23438,-0.20313 0.34375,-0.46875 0.125,-0.28125 0.125,-0.57813 0,-0.39062 -0.23437,-0.625 -0.23438,-0.23437 -0.59375,-0.4375 -0.35938,-0.20312 -0.78125,-0.39062 -0.42188,-0.1875 -0.78125,-0.4375 -0.35938,-0.26563 -0.60938,-0.64063 -0.23437,-0.39062 -0.23437,-0.96875 0,-0.59375 0.23437,-1.10937 0.23438,-0.51563 0.67188,-0.89063 0.4375,-0.39062 1.03125,-0.59375 0.60937,-0.21875 1.35937,-0.21875 0.34375,0 0.65625,0.0625 0.32813,0.0469 0.59375,0.14063 0.28125,0.0781 0.48438,0.1875 0.20312,0.0937 0.29687,0.1875 0.10938,0.0937 0.10938,0.28125 z m 8.229,0.28125 q 0,0.15625 -0.0312,0.32812 -0.0312,0.17188 -0.0937,0.32813 -0.0625,0.15625 -0.15625,0.25 -0.0781,0.0937 -0.1875,0.0937 -0.14063,0 -0.28125,-0.125 -0.125,-0.125 -0.35938,-0.28125 -0.21875,-0.17188 -0.5625,-0.3125 -0.32812,-0.14063 -0.85937,-0.14063 -0.57813,0 -1.03125,0.25 -0.45313,0.23438 -0.79688,0.625 -0.32812,0.39063 -0.54687,0.89063 -0.21875,0.48437 -0.35938,0.98437 -0.125,0.5 -0.1875,0.96875 -0.0625,0.46875 -0.0625,0.8125 0,0.9375 0.40625,1.42188 0.42188,0.48437 1.23438,0.48437 0.57812,0 1,-0.14062 0.4375,-0.15625 0.73437,-0.34375 0.29688,-0.1875 0.48438,-0.32813 0.1875,-0.15625 0.32812,-0.15625 0.0781,0 0.10938,0.0781 0.0469,0.0625 0.0469,0.1875 0,0.10937 -0.0156,0.26562 -0.0156,0.15625 -0.0625,0.3125 -0.0312,0.15625 -0.0937,0.29688 -0.0625,0.14062 -0.17188,0.25 -0.10937,0.10937 -0.39062,0.28125 -0.26563,0.15625 -0.625,0.29687 -0.35938,0.125 -0.78125,0.20313 -0.42188,0.0937 -0.85938,0.0937 -1.46875,0 -2.20312,-0.75 -0.71875,-0.75 -0.71875,-2.21875 0,-0.5625 0.0937,-1.21875 0.10937,-0.65625 0.32812,-1.32813 0.23438,-0.67187 0.57813,-1.29687 0.35937,-0.625 0.875,-1.10938 0.53125,-0.5 1.20312,-0.78125 0.6875,-0.29687 1.57813,-0.29687 0.35937,0 0.6875,0.0625 0.34375,0.0625 0.64062,0.15625 0.29688,0.0937 0.53125,0.25 0.25,0.15625 0.375,0.28125 0.14063,0.10937 0.17188,0.1875 0.0312,0.0781 0.0312,0.1875 z m 6.85504,-0.71875 q 0,0.0469 -0.0156,0.15625 -0.0156,0.0937 -0.0312,0.23437 -0.0156,0.14063 -0.0625,0.28125 -0.0312,0.14063 -0.0937,0.26563 -0.0469,0.125 -0.10938,0.20312 -0.0625,0.0781 -0.125,0.0781 -0.0781,0 -0.17187,-0.0312 -0.0781,-0.0312 -0.1875,-0.0625 -0.10938,-0.0469 -0.25,-0.0781 -0.125,-0.0469 -0.3125,-0.0469 -0.3125,0 -0.71875,0.28125 -0.39063,0.26562 -0.79688,0.73437 -0.39062,0.46875 -0.71875,1.125 -0.3125,0.64063 -0.46875,1.40625 l -0.71875,3.64063 q -0.0156,0.0781 -0.0625,0.14062 -0.0469,0.0469 -0.14062,0.0781 -0.0937,0.0312 -0.25,0.0469 -0.14063,0.0156 -0.35938,0.0156 -0.21875,0 -0.35937,-0.0156 -0.14063,-0.0156 -0.21875,-0.0469 -0.0781,-0.0312 -0.10938,-0.0781 -0.0156,-0.0625 0,-0.14062 l 1.625,-8.20313 q 0.0156,-0.0625 0.0625,-0.10937 0.0469,-0.0625 0.125,-0.0937 0.0937,-0.0469 0.21875,-0.0469 0.14063,-0.0156 0.32813,-0.0156 0.1875,0 0.3125,0.0156 0.125,0 0.1875,0.0469 0.0781,0.0312 0.0937,0.0937 0.0156,0.0469 0,0.10937 l -0.29688,1.5 q 0.21875,-0.375 0.5,-0.71875 0.28125,-0.34375 0.60938,-0.60937 0.34375,-0.26563 0.71875,-0.42188 0.375,-0.15625 0.71875,-0.15625 0.15625,0 0.3125,0.0312 0.17187,0.0156 0.29687,0.0469 0.14063,0.0312 0.25,0.0781 0.10938,0.0469 0.15625,0.0937 0.0625,0.0625 0.0625,0.17188 z m 3.97302,-2.76563 q -0.0469,0.25 -0.125,0.4375 -0.0781,0.17188 -0.20312,0.28125 -0.125,0.0937 -0.32813,0.14063 -0.1875,0.0469 -0.45312,0.0469 -0.26563,0 -0.4375,-0.0469 -0.17188,-0.0469 -0.26563,-0.14063 -0.0781,-0.10937 -0.0937,-0.28125 0,-0.1875 0.0469,-0.4375 0.0625,-0.25 0.14062,-0.42187 0.0781,-0.17188 0.20313,-0.28125 0.125,-0.10938 0.3125,-0.15625 0.1875,-0.0469 0.46875,-0.0469 0.26562,0 0.42187,0.0469 0.17188,0.0469 0.25,0.15625 0.0937,0.10937 0.10938,0.28125 0.0156,0.17187 -0.0469,0.42187 z m -2.35937,10.95313 q -0.0156,0.0781 -0.0625,0.14062 -0.0469,0.0469 -0.14063,0.0781 -0.0937,0.0312 -0.25,0.0469 -0.14062,0.0156 -0.35937,0.0156 -0.21875,0 -0.35938,-0.0156 -0.14062,-0.0156 -0.21875,-0.0469 -0.0781,-0.0312 -0.10937,-0.0781 -0.0156,-0.0625 0,-0.14062 l 1.625,-8.1875 q 0.0156,-0.0625 0.0625,-0.10938 0.0469,-0.0625 0.125,-0.0937 0.0937,-0.0469 0.25,-0.0625 0.15625,-0.0156 0.375,-0.0156 0.21875,0 0.35937,0.0156 0.14063,0.0156 0.21875,0.0625 0.0781,0.0312 0.0937,0.0937 0.0312,0.0469 0.0156,0.10938 z m 11.07831,-5.625 q 0,0.54687 -0.10938,1.20312 -0.0937,0.65625 -0.3125,1.32813 -0.21875,0.67187 -0.5625,1.3125 -0.34375,0.625 -0.82812,1.10937 -0.48438,0.48438 -1.125,0.78125 -0.625,0.29688 -1.42188,0.29688 -0.8125,0 -1.40625,-0.3125 -0.57812,-0.3125 -1.03125,-0.89063 l -0.15625,0.79688 q -0.0312,0.15625 -0.20312,0.21875 -0.17188,0.0625 -0.54688,0.0625 -0.375,0 -0.5,-0.0625 -0.125,-0.0781 -0.0937,-0.21875 l 2.42188,-12.15625 q 0.0156,-0.0781 0.0469,-0.125 0.0469,-0.0625 0.14063,-0.0937 0.10937,-0.0469 0.25,-0.0625 0.15625,-0.0156 0.375,-0.0156 0.21875,0 0.35937,0.0156 0.14063,0.0156 0.21875,0.0625 0.0781,0.0312 0.0937,0.0937 0.0312,0.0469 0.0156,0.125 l -0.71875,3.65625 q -0.0469,0.23437 -0.125,0.5 -0.0625,0.25 -0.125,0.5 -0.0625,0.25 -0.14063,0.46875 -0.0625,0.21875 -0.125,0.39062 0.15625,-0.32812 0.46875,-0.65625 0.3125,-0.34375 0.73438,-0.625 0.42187,-0.29687 0.92187,-0.48437 0.5,-0.20313 1.01563,-0.20313 0.54687,0 0.9375,0.15625 0.39062,0.14063 0.65625,0.39063 0.28125,0.23437 0.45312,0.54687 0.17188,0.3125 0.25,0.64063 0.0937,0.32812 0.125,0.65625 0.0469,0.3125 0.0469,0.59375 z m -1.57813,0.125 q 0,-0.25 -0.0469,-0.5625 -0.0469,-0.32813 -0.1875,-0.59375 -0.125,-0.28125 -0.375,-0.46875 -0.25,-0.1875 -0.65625,-0.1875 -0.5,0 -1.01563,0.28125 -0.5,0.28125 -0.9375,0.78125 -0.4375,0.5 -0.78125,1.17187 -0.34375,0.67188 -0.5,1.45313 l -0.29687,1.51562 q 0.42187,0.625 0.90625,0.9375 0.5,0.29688 1.125,0.29688 0.46875,0 0.84375,-0.21875 0.39062,-0.21875 0.70312,-0.57813 0.3125,-0.375 0.53125,-0.84375 0.23438,-0.46875 0.375,-0.98437 0.15625,-0.51563 0.23438,-1.03125 0.0781,-0.51563 0.0781,-0.96875 z m 10.70166,-1.01563 q 0,0.625 -0.29687,1.125 -0.28125,0.5 -0.90625,0.85938 -0.60938,0.35937 -1.57813,0.54687 -0.96875,0.1875 -2.3125,0.1875 h -0.96875 q -0.0625,0.3125 -0.0937,0.59375 -0.0156,0.28125 -0.0156,0.51563 0,0.92187 0.45312,1.40625 0.45313,0.48437 1.45313,0.48437 0.59375,0 1.04687,-0.0937 0.46875,-0.0937 0.8125,-0.1875 0.34375,-0.0937 0.5625,-0.17187 0.21875,-0.0937 0.29688,-0.0937 0.0781,0 0.125,0.0625 0.0469,0.0469 0.0469,0.15625 0,0.0937 -0.0312,0.21875 -0.0156,0.125 -0.0469,0.26562 -0.0312,0.125 -0.0937,0.25 -0.0625,0.10938 -0.14063,0.20313 -0.10937,0.10937 -0.39062,0.21875 -0.26563,0.0937 -0.65625,0.1875 -0.375,0.0781 -0.82813,0.125 -0.45312,0.0625 -0.92187,0.0625 -0.79688,0 -1.42188,-0.17188 -0.60937,-0.1875 -1.01562,-0.5625 -0.39063,-0.39062 -0.59375,-0.95312 -0.20313,-0.5625 -0.20313,-1.32813 0,-0.59375 0.10938,-1.26562 0.10937,-0.6875 0.35937,-1.34375 0.25,-0.67188 0.64063,-1.28125 0.39062,-0.60938 0.92187,-1.0625 0.54688,-0.46875 1.25,-0.75 0.71875,-0.29688 1.625,-0.29688 0.76563,0 1.29688,0.20313 0.53125,0.1875 0.85937,0.48437 0.34375,0.29688 0.5,0.67188 0.15625,0.375 0.15625,0.73437 z m -1.53125,0.14063 q 0,-0.46875 -0.375,-0.75 -0.35937,-0.29688 -1.03125,-0.29688 -0.59375,0 -1.04687,0.21875 -0.45313,0.20313 -0.8125,0.54688 -0.34375,0.34375 -0.59375,0.8125 -0.25,0.45312 -0.40625,0.95312 h 0.92187 q 0.96875,0 1.60938,-0.10937 0.64062,-0.125 1.01562,-0.32813 0.39063,-0.20312 0.54688,-0.46875 0.17187,-0.28125 0.17187,-0.57812 z m 8.83099,-1.375 q 0,0.0937 -0.0312,0.25 -0.0312,0.14062 -0.0781,0.29687 -0.0469,0.14063 -0.125,0.25 -0.0625,0.0937 -0.14063,0.0937 -0.10937,0 -0.26562,-0.0781 -0.15625,-0.0937 -0.375,-0.20313 -0.21875,-0.10937 -0.53125,-0.20312 -0.29688,-0.0937 -0.70313,-0.0937 -0.40625,0 -0.71875,0.125 -0.3125,0.10937 -0.53125,0.3125 -0.20312,0.1875 -0.3125,0.4375 -0.10937,0.25 -0.10937,0.51562 0,0.375 0.23437,0.625 0.25,0.23438 0.60938,0.42188 0.375,0.1875 0.79687,0.375 0.42188,0.1875 0.78125,0.45312 0.35938,0.26563 0.59375,0.65625 0.25,0.375 0.25,0.9375 0,0.64063 -0.25,1.20313 -0.25,0.54687 -0.71875,0.95312 -0.46875,0.39063 -1.14062,0.60938 -0.65625,0.21875 -1.48438,0.21875 -0.42187,0 -0.79687,-0.0625 -0.375,-0.0625 -0.6875,-0.15625 -0.29688,-0.10938 -0.51563,-0.23438 -0.21875,-0.125 -0.34375,-0.23437 -0.0781,-0.0625 -0.10937,-0.14063 -0.0312,-0.0781 -0.0312,-0.1875 0,-0.0781 0,-0.17187 0.0156,-0.10938 0.0469,-0.21875 0.0312,-0.10938 0.0625,-0.20313 0.0312,-0.10937 0.0781,-0.1875 0.0469,-0.0781 0.0937,-0.125 0.0469,-0.0469 0.10937,-0.0469 0.10938,0 0.26563,0.125 0.15625,0.10937 0.40625,0.25 0.25,0.14062 0.60937,0.26562 0.375,0.125 0.9375,0.125 0.5,0 0.85938,-0.125 0.35937,-0.125 0.59375,-0.32812 0.23437,-0.20313 0.34375,-0.46875 0.125,-0.28125 0.125,-0.57813 0,-0.39062 -0.23438,-0.625 -0.23437,-0.23437 -0.59375,-0.4375 -0.35937,-0.20312 -0.78125,-0.39062 -0.42187,-0.1875 -0.78125,-0.4375 -0.35937,-0.26563 -0.60937,-0.64063 -0.23438,-0.39062 -0.23438,-0.96875 0,-0.59375 0.23438,-1.10937 0.23437,-0.51563 0.67187,-0.89063 0.4375,-0.39062 1.03125,-0.59375 0.60938,-0.21875 1.35938,-0.21875 0.34375,0 0.65625,0.0625 0.32812,0.0469 0.59375,0.14063 0.28125,0.0781 0.48437,0.1875 0.20313,0.0937 0.29688,0.1875 0.10937,0.0937 0.10937,0.28125 z"
     fill-rule="nonzero"
     id="path53" />
  <path
     fill="#000000"
     d="m 168,28.119419 v 0 c 0,-8.83655 7.16344,-16 16,-16 v 0 c 4.24347,0 8.31313,1.68571 11.3137,4.68629 3.00058,3.00058 4.6863,7.07026 4.6863,11.31371 v 0 c 0,8.83656 -7.16344,16 -16,16 v 0 c -8.83656,0 -16,-7.16344 -16,-16 z"
     fill-rule="evenodd"
     id="path55" />
  <path
     stroke="#4a7dba"
     stroke-width="1"
     stroke-linejoin="round"
     stroke-linecap="butt"
     d="m 168,28.119419 v 0 c 0,-8.83655 7.16344,-16 16,-16 v 0 c 4.24347,0 8.31313,1.68571 11.3137,4.68629 3.00058,3.00058 4.6863,7.07026 4.6863,11.31371 v 0 c 0,8.83656 -7.16344,16 -16,16 v 0 c -8.83656,0 -16,-7.16344 -16,-16 z"
     fill-rule="evenodd"
     id="path57" />
  <path
     fill="#000000"
     fill-opacity="0"
     d="m 0,100.8662 h 121.77112 v 96.93755 H 0 Z"
     fill-rule="evenodd"
     id="path59" />
  <path
     fill="#000000"
     d="m 56.807434,120.09369 q 0,2.09375 -0.546875,3.57812 -0.546875,1.48438 -1.5625,2.42188 -1.015625,0.9375 -2.484375,1.375 -1.453125,0.4375 -3.46875,0.4375 h -3.625 q -0.375,0 -0.640625,-0.21875 -0.265625,-0.23438 -0.265625,-0.75 v -13.21875 q 0,-0.51563 0.265625,-0.75 0.265625,-0.23438 0.640625,-0.23438 h 3.890625 q 2.03125,0 3.4375,0.48438 1.421875,0.46875 2.390625,1.40625 0.96875,0.92187 1.46875,2.29687 0.5,1.375 0.5,3.17188 z m -3.1875,0.10937 q 0,-1.07812 -0.25,-2 -0.25,-0.92187 -0.8125,-1.59375 -0.546875,-0.6875 -1.421875,-1.0625 -0.875,-0.39062 -2.296875,-0.39062 h -1.5625 v 10.3125 h 1.609375 q 1.265625,0 2.125,-0.32813 0.875,-0.32812 1.453125,-0.98437 0.578125,-0.67188 0.859375,-1.65625 0.296875,-0.98438 0.296875,-2.29688 z m 8.816406,7.28125 q 0,0.10938 -0.07813,0.20313 -0.07813,0.0937 -0.25,0.15625 -0.171875,0.0625 -0.46875,0.0937 -0.296875,0.0469 -0.75,0.0469 -0.453125,0 -0.75,-0.0469 -0.296875,-0.0312 -0.46875,-0.0937 -0.171875,-0.0625 -0.25,-0.15625 -0.07813,-0.0937 -0.07813,-0.20313 v -14.32812 q 0,-0.10938 0.07813,-0.20313 0.07813,-0.0937 0.25,-0.15625 0.1875,-0.0625 0.46875,-0.0937 0.296875,-0.0312 0.75,-0.0312 0.453125,0 0.75,0.0312 0.296875,0.0312 0.46875,0.0937 0.171875,0.0625 0.25,0.15625 0.07813,0.0937 0.07813,0.20313 z m 15.89844,-7.39062 q 0,2.09375 -0.54688,3.57812 -0.54687,1.48438 -1.5625,2.42188 -1.01562,0.9375 -2.48437,1.375 -1.45313,0.4375 -3.46875,0.4375 h -3.625002 q -0.375,0 -0.640625,-0.21875 -0.265625,-0.23438 -0.265625,-0.75 v -13.21875 q 0,-0.51563 0.265625,-0.75 0.265625,-0.23438 0.640625,-0.23438 H 70.5379 q 2.03125,0 3.4375,0.48438 1.42188,0.46875 2.39063,1.40625 0.96875,0.92187 1.46875,2.29687 0.5,1.375 0.5,3.17188 z m -3.1875,0.10937 q 0,-1.07812 -0.25,-2 -0.25,-0.92187 -0.8125,-1.59375 -0.54688,-0.6875 -1.42188,-1.0625 -0.875,-0.39062 -2.29687,-0.39062 h -1.5625 v 10.3125 h 1.60937 q 1.26563,0 2.125,-0.32813 0.875,-0.32812 1.45313,-0.98437 0.57812,-0.67188 0.85937,-1.65625 0.29688,-0.98438 0.29688,-2.29688 z"
     fill-rule="nonzero"
     id="path61" />
  <path
     fill="#000000"
     d="m 22.963688,154.40935 q 0,0.29688 -0.01563,0.5 -0.01563,0.20313 -0.0625,0.35938 -0.03125,0.14062 -0.09375,0.25 -0.04687,0.0937 -0.1875,0.23437 -0.125,0.125 -0.5,0.34375 -0.359375,0.20313 -0.890625,0.40625 -0.53125,0.1875 -1.21875,0.3125 -0.6875,0.14063 -1.484375,0.14063 -1.5625,0 -2.8125,-0.48438 -1.25,-0.48437 -2.140625,-1.4375 -0.875,-0.95312 -1.34375,-2.375 -0.46875,-1.4375 -0.46875,-3.34375 0,-1.92187 0.515625,-3.42187 0.515625,-1.5 1.4375,-2.51563 0.9375,-1.03125 2.234375,-1.54687 1.296875,-0.53125 2.84375,-0.53125 0.640625,0 1.21875,0.10937 0.59375,0.0937 1.09375,0.26563 0.5,0.17187 0.890625,0.39062 0.40625,0.21875 0.5625,0.39063 0.15625,0.15625 0.203125,0.26562 0.0625,0.0937 0.09375,0.26563 0.04687,0.15625 0.0625,0.39062 0.01563,0.21875 0.01563,0.54688 0,0.34375 -0.03125,0.59375 -0.01563,0.25 -0.07813,0.40625 -0.04687,0.14062 -0.140625,0.21875 -0.07813,0.0625 -0.1875,0.0625 -0.171875,0 -0.4375,-0.20313 -0.265625,-0.20312 -0.703125,-0.45312 -0.421875,-0.25 -1.015625,-0.45313 -0.59375,-0.21875 -1.40625,-0.21875 -0.90625,0 -1.625,0.375 -0.703125,0.375 -1.203125,1.0625 -0.5,0.67188 -0.765625,1.65625 -0.25,0.96875 -0.25,2.1875 0,1.32813 0.28125,2.3125 0.28125,0.98438 0.78125,1.625 0.515625,0.625 1.234375,0.9375 0.71875,0.29688 1.625,0.29688 0.8125,0 1.40625,-0.1875 0.609375,-0.1875 1.03125,-0.42188 0.4375,-0.23437 0.703125,-0.42187 0.28125,-0.1875 0.4375,-0.1875 0.109375,0 0.171875,0.0469 0.07813,0.0469 0.125,0.1875 0.04687,0.14063 0.0625,0.39063 0.03125,0.25 0.03125,0.67187 z m 12.609371,-3.4375 q 0,1.34375 -0.359375,2.45313 -0.34375,1.09375 -1.0625,1.89062 -0.703125,0.79688 -1.78125,1.23438 -1.078121,0.42187 -2.531246,0.42187 -1.390625,0 -2.421875,-0.375 -1.03125,-0.39062 -1.71875,-1.125 -0.671875,-0.75 -1,-1.82812 -0.328125,-1.07813 -0.328125,-2.45313 0,-1.34375 0.359375,-2.45312 0.359375,-1.10938 1.0625,-1.89063 0.71875,-0.79687 1.796875,-1.21875 1.078125,-0.4375 2.515625,-0.4375 1.40625,0 2.437496,0.375 1.03125,0.375 1.703125,1.125 0.671875,0.73438 1,1.8125 0.328125,1.07813 0.328125,2.46875 z m -3.03125,0.125 q 0,-0.78125 -0.125,-1.42187 -0.125,-0.65625 -0.421871,-1.14063 -0.28125,-0.48437 -0.78125,-0.75 -0.484375,-0.26562 -1.21875,-0.26562 -0.65625,0 -1.15625,0.25 -0.484375,0.23437 -0.796875,0.70312 -0.3125,0.45313 -0.484375,1.10938 -0.15625,0.64062 -0.15625,1.46875 0,0.78125 0.125,1.4375 0.140625,0.64062 0.421875,1.125 0.296875,0.48437 0.78125,0.75 0.5,0.25 1.21875,0.25 0.671875,0 1.15625,-0.23438 0.5,-0.23437 0.8125,-0.6875 0.312496,-0.46875 0.468746,-1.10937 0.15625,-0.65625 0.15625,-1.48438 z m 15.355469,5.20313 q 0,0.125 -0.07813,0.21875 -0.0625,0.0781 -0.234375,0.14062 -0.15625,0.0625 -0.453125,0.0937 -0.28125,0.0312 -0.703125,0.0312 -0.4375,0 -0.734375,-0.0312 -0.28125,-0.0312 -0.453125,-0.0937 -0.15625,-0.0625 -0.234375,-0.14062 -0.0625,-0.0937 -0.0625,-0.21875 v -5.95313 q 0,-0.76562 -0.109375,-1.20312 -0.109375,-0.4375 -0.328125,-0.73438 -0.203125,-0.3125 -0.546875,-0.48437 -0.328125,-0.17188 -0.765625,-0.17188 -0.5625,0 -1.140625,0.40625 -0.578125,0.40625 -1.1875,1.20313 v 6.9375 q 0,0.125 -0.07813,0.21875 -0.0625,0.0781 -0.234375,0.14062 -0.171875,0.0625 -0.453125,0.0937 -0.28125,0.0312 -0.71875,0.0312 -0.4375,0 -0.71875,-0.0312 -0.28125,-0.0312 -0.453125,-0.0937 -0.15625,-0.0625 -0.234375,-0.14062 -0.0625,-0.0937 -0.0625,-0.21875 v -10.45313 q 0,-0.10937 0.04687,-0.1875 0.0625,-0.0937 0.21875,-0.15625 0.15625,-0.0625 0.390625,-0.0937 0.234375,-0.0312 0.609375,-0.0312 0.375,0 0.609375,0.0312 0.25,0.0312 0.375,0.0937 0.140625,0.0625 0.203125,0.15625 0.0625,0.0781 0.0625,0.1875 v 1.21875 q 0.859375,-0.9375 1.75,-1.40625 0.90625,-0.46875 1.875,-0.46875 1.078125,0 1.796875,0.35938 0.734375,0.34375 1.1875,0.95312 0.453125,0.59375 0.65625,1.40625 0.203125,0.79688 0.203125,1.9375 z m 8.859375,-1.03125 q 0,0.51562 -0.07813,0.79687 -0.0625,0.28125 -0.171875,0.39063 -0.09375,0.10937 -0.296875,0.20312 -0.203125,0.0781 -0.484375,0.14063 -0.28125,0.0781 -0.609375,0.10937 -0.3125,0.0312 -0.640625,0.0312 -0.875,0 -1.53125,-0.23437 -0.640625,-0.21875 -1.0625,-0.67188 -0.421875,-0.46875 -0.625,-1.17187 -0.1875,-0.70313 -0.1875,-1.65625 v -5.35938 h -1.25 q -0.234375,0 -0.359375,-0.26562 -0.109375,-0.28125 -0.109375,-0.9375 0,-0.32813 0.03125,-0.5625 0.03125,-0.23438 0.09375,-0.375 0.0625,-0.14063 0.140625,-0.1875 0.09375,-0.0625 0.203125,-0.0625 h 1.25 v -2.32813 q 0,-0.125 0.0625,-0.21875 0.0625,-0.0937 0.234375,-0.15625 0.171875,-0.0625 0.453125,-0.0937 0.296875,-0.0312 0.71875,-0.0312 0.421875,0 0.703125,0.0312 0.296875,0.0312 0.453125,0.0937 0.171875,0.0625 0.234375,0.15625 0.07813,0.0937 0.07813,0.21875 v 2.32813 h 2.28125 q 0.109375,0 0.1875,0.0625 0.09375,0.0469 0.15625,0.1875 0.0625,0.14062 0.09375,0.375 0.03125,0.23437 0.03125,0.5625 0,0.65625 -0.125,0.9375 -0.109375,0.26562 -0.34375,0.26562 h -2.28125 v 4.90625 q 0,0.85938 0.265625,1.29688 0.28125,0.42187 0.96875,0.42187 0.234375,0 0.421875,-0.0469 0.1875,-0.0469 0.328125,-0.0937 0.15625,-0.0469 0.25,-0.0937 0.09375,-0.0469 0.1875,-0.0469 0.0625,0 0.125,0.0469 0.0625,0.0469 0.09375,0.17187 0.04687,0.10938 0.07813,0.32813 0.03125,0.20312 0.03125,0.53125 z m 8.835937,-8.4375 q 0,0.42187 -0.03125,0.6875 -0.01563,0.26562 -0.0625,0.42187 -0.04687,0.15625 -0.125,0.21875 -0.0625,0.0469 -0.1875,0.0469 -0.09375,0 -0.21875,-0.0312 -0.109375,-0.0469 -0.265625,-0.0937 -0.140625,-0.0469 -0.3125,-0.0781 -0.171875,-0.0469 -0.390625,-0.0469 -0.234375,0 -0.484375,0.0937 -0.25,0.0937 -0.515625,0.3125 -0.265625,0.20312 -0.546875,0.5625 -0.28125,0.34375 -0.609375,0.85937 v 6.51563 q 0,0.125 -0.07813,0.21875 -0.0625,0.0781 -0.234375,0.14062 -0.171875,0.0625 -0.453125,0.0937 -0.28125,0.0312 -0.71875,0.0312 -0.4375,0 -0.71875,-0.0312 -0.28125,-0.0312 -0.453125,-0.0937 -0.15625,-0.0625 -0.234375,-0.14062 -0.0625,-0.0937 -0.0625,-0.21875 v -10.4532 q 0,-0.10937 0.04687,-0.1875 0.0625,-0.0937 0.21875,-0.15625 0.15625,-0.0625 0.390625,-0.0937 0.234375,-0.0312 0.609375,-0.0312 0.375,0 0.609375,0.0312 0.25,0.0312 0.375,0.0937 0.140625,0.0625 0.203125,0.15625 0.0625,0.0781 0.0625,0.1875 v 1.3125 q 0.40625,-0.59375 0.765625,-0.96875 0.375,-0.39062 0.703125,-0.60937 0.328125,-0.21875 0.65625,-0.29688 0.328125,-0.0937 0.65625,-0.0937 0.140625,0 0.3125,0.0156 0.1875,0.0156 0.375,0.0625 0.1875,0.0312 0.328125,0.0937 0.140625,0.0469 0.203125,0.10937 0.0625,0.0469 0.09375,0.125 0.03125,0.0625 0.04687,0.1875 0.03125,0.125 0.03125,0.375 0.01563,0.25 0.01563,0.67188 z m 12.09766,4.14062 q 0,1.34375 -0.35938,2.45313 -0.34375,1.09375 -1.0625,1.89062 -0.70312,0.79688 -1.78125,1.23438 -1.07812,0.42187 -2.53125,0.42187 -1.39062,0 -2.42187,-0.375 -1.03125,-0.39062 -1.718754,-1.125 -0.671875,-0.75 -1,-1.82812 -0.328125,-1.07813 -0.328125,-2.45313 0,-1.34375 0.359375,-2.45312 0.359375,-1.10938 1.0625,-1.89063 0.718754,-0.79687 1.796874,-1.21875 1.07813,-0.4375 2.51563,-0.4375 1.40625,0 2.4375,0.375 1.03125,0.375 1.70312,1.125 0.67188,0.73438 1,1.8125 0.32813,1.07813 0.32813,2.46875 z m -3.03125,0.125 q 0,-0.78125 -0.125,-1.42187 -0.125,-0.65625 -0.42188,-1.14063 -0.28125,-0.48437 -0.78125,-0.75 -0.48437,-0.26562 -1.21875,-0.26562 -0.65625,0 -1.15625,0.25 -0.48437,0.23437 -0.79687,0.70312 -0.3125,0.45313 -0.48438,1.10938 -0.15625,0.64062 -0.15625,1.46875 0,0.78125 0.125,1.4375 0.14063,0.64062 0.42188,1.125 0.29687,0.48437 0.78125,0.75 0.5,0.25 1.21875,0.25 0.67187,0 1.15625,-0.23438 0.5,-0.23437 0.8125,-0.6875 0.3125,-0.46875 0.46875,-1.10937 0.15625,-0.65625 0.15625,-1.48438 z m 8.32422,5.20313 q 0,0.125 -0.0781,0.21875 -0.0625,0.0781 -0.23437,0.14062 -0.17188,0.0625 -0.45313,0.0937 -0.28125,0.0312 -0.71875,0.0312 -0.4375,0 -0.71875,-0.0312 -0.28125,-0.0312 -0.45312,-0.0937 -0.15625,-0.0625 -0.23438,-0.14062 -0.0625,-0.0937 -0.0625,-0.21875 v -15.40625 q 0,-0.10938 0.0625,-0.20313 0.0781,-0.0937 0.23438,-0.15625 0.17187,-0.0781 0.45312,-0.10937 0.28125,-0.0312 0.71875,-0.0312 0.4375,0 0.71875,0.0312 0.28125,0.0312 0.45313,0.10937 0.17187,0.0625 0.23437,0.15625 0.0781,0.0937 0.0781,0.20313 z m 5.89453,0 q 0,0.125 -0.0781,0.21875 -0.0625,0.0781 -0.23437,0.14062 -0.17188,0.0625 -0.45313,0.0937 -0.28125,0.0312 -0.71875,0.0312 -0.4375,0 -0.71875,-0.0312 -0.28125,-0.0312 -0.45312,-0.0937 -0.15625,-0.0625 -0.23438,-0.14062 -0.0625,-0.0937 -0.0625,-0.21875 v -15.40625 q 0,-0.10938 0.0625,-0.20313 0.0781,-0.0937 0.23438,-0.15625 0.17187,-0.0781 0.45312,-0.10937 0.28125,-0.0312 0.71875,-0.0312 0.4375,0 0.71875,0.0312 0.28125,0.0312 0.45313,0.10937 0.17187,0.0625 0.23437,0.15625 0.0781,0.0937 0.0781,0.20313 z m 12.59765,-5.53125 q 0,0.54687 -0.25,0.8125 -0.23437,0.25 -0.65625,0.25 h -6.35937 q 0,0.67187 0.15625,1.21875 0.15625,0.53125 0.5,0.92187 0.34375,0.375 0.89062,0.57813 0.54688,0.20312 1.3125,0.20312 0.76563,0 1.34375,-0.10937 0.59375,-0.125 1.01563,-0.25 0.4375,-0.14063 0.71875,-0.25 0.28125,-0.10938 0.45312,-0.10938 0.10938,0 0.17188,0.0469 0.0781,0.0312 0.125,0.14062 0.0469,0.10938 0.0625,0.29688 0.0156,0.1875 0.0156,0.48437 0,0.26563 -0.0156,0.45313 0,0.17187 -0.0312,0.29687 -0.0156,0.125 -0.0625,0.21875 -0.0469,0.0937 -0.125,0.17188 -0.0781,0.0781 -0.42188,0.21875 -0.34375,0.14062 -0.875,0.28125 -0.51562,0.14062 -1.20312,0.23437 -0.67188,0.0937 -1.45313,0.0937 -1.39062,0 -2.4375,-0.34375 -1.04687,-0.35937 -1.75,-1.0625 -0.70312,-0.71875 -1.04687,-1.8125 -0.34375,-1.09375 -0.34375,-2.5625 0,-1.39062 0.35937,-2.5 0.35938,-1.125 1.04688,-1.90625 0.70312,-0.78125 1.6875,-1.1875 0.98437,-0.40625 2.23437,-0.40625 1.3125,0 2.23438,0.39063 0.9375,0.375 1.53125,1.0625 0.60937,0.6875 0.89062,1.625 0.28125,0.9375 0.28125,2.03125 z m -2.85937,-0.84375 q 0.0312,-1.23438 -0.5,-1.9375 -0.53125,-0.71875 -1.65625,-0.71875 -0.5625,0 -0.98438,0.21875 -0.40625,0.20312 -0.6875,0.5625 -0.26562,0.35937 -0.42187,0.84375 -0.14063,0.48437 -0.15625,1.03125 z m 11.98828,-3.09375 q 0,0.42187 -0.0312,0.6875 -0.0156,0.26562 -0.0625,0.42187 -0.0469,0.15625 -0.125,0.21875 -0.0625,0.0469 -0.1875,0.0469 -0.0937,0 -0.21875,-0.0312 -0.10938,-0.0469 -0.26563,-0.0937 -0.14062,-0.0469 -0.3125,-0.0781 -0.17187,-0.0469 -0.39062,-0.0469 -0.23438,0 -0.48438,0.0937 -0.25,0.0937 -0.51562,0.3125 -0.26563,0.20312 -0.54688,0.5625 -0.28125,0.34375 -0.60937,0.85937 v 6.51563 q 0,0.125 -0.0781,0.21875 -0.0625,0.0781 -0.23437,0.14062 -0.17188,0.0625 -0.45313,0.0937 -0.28125,0.0312 -0.71875,0.0312 -0.4375,0 -0.71875,-0.0312 -0.28125,-0.0312 -0.45312,-0.0937 -0.15625,-0.0625 -0.23438,-0.14062 -0.0625,-0.0937 -0.0625,-0.21875 v -10.4532 q 0,-0.10937 0.0469,-0.1875 0.0625,-0.0937 0.21875,-0.15625 0.15625,-0.0625 0.39062,-0.0937 0.23438,-0.0312 0.60938,-0.0312 0.375,0 0.60937,0.0312 0.25,0.0312 0.375,0.0937 0.14063,0.0625 0.20313,0.15625 0.0625,0.0781 0.0625,0.1875 v 1.3125 q 0.40625,-0.59375 0.76562,-0.96875 0.375,-0.39062 0.70313,-0.60937 0.32812,-0.21875 0.65625,-0.29688 0.32812,-0.0937 0.65625,-0.0937 0.14062,0 0.3125,0.0156 0.1875,0.0156 0.375,0.0625 0.1875,0.0312 0.32812,0.0937 0.14063,0.0469 0.20313,0.10937 0.0625,0.0469 0.0937,0.125 0.0312,0.0625 0.0469,0.1875 0.0312,0.125 0.0312,0.375 0.0156,0.25 0.0156,0.67188 z"
     fill-rule="nonzero"
     id="path63" />
  <path
     fill="#000000"
     d="m 43.602356,172.6937 q 0,0.34375 -0.03125,0.59375 -0.01563,0.23437 -0.07813,0.39062 -0.04687,0.14063 -0.125,0.20313 -0.07813,0.0625 -0.1875,0.0625 -0.140625,0 -0.484375,-0.20313 -0.34375,-0.21875 -0.90625,-0.46875 -0.5625,-0.25 -1.34375,-0.45312 -0.78125,-0.21875 -1.8125,-0.21875 -1.09375,0 -1.984375,0.39062 -0.890625,0.375 -1.53125,1.07813 -0.625,0.6875 -0.96875,1.67187 -0.34375,0.96875 -0.34375,2.15625 0,1.29688 0.34375,2.29688 0.359375,0.98437 0.96875,1.65625 0.625,0.67187 1.5,1.01562 0.875,0.32813 1.921875,0.32813 0.515625,0 1.015625,-0.10938 0.515625,-0.125 0.953125,-0.35937 v -3.51563 h -2.875 q -0.21875,0 -0.34375,-0.26562 -0.109375,-0.26563 -0.109375,-0.89063 0,-0.32812 0.03125,-0.54687 0.03125,-0.23438 0.09375,-0.35938 0.0625,-0.14062 0.140625,-0.20312 0.07813,-0.0625 0.1875,-0.0625 h 5.125 q 0.1875,0 0.328125,0.0625 0.140625,0.0625 0.25,0.20312 0.125,0.125 0.171875,0.3125 0.0625,0.17188 0.0625,0.40625 v 6.03125 q 0,0.35938 -0.125,0.625 -0.125,0.25 -0.5,0.40625 -0.375,0.15625 -0.9375,0.32813 -0.5625,0.15625 -1.171875,0.26562 -0.609375,0.125 -1.21875,0.1875 -0.609375,0.0625 -1.234375,0.0625 -1.8125,0 -3.25,-0.51562 -1.4375,-0.53125 -2.4375,-1.51563 -0.999996,-1 -1.531246,-2.42187 -0.515625,-1.42188 -0.515625,-3.23438 0,-1.85937 0.5625,-3.34375 0.5625,-1.48437 1.593746,-2.51562 1.03125,-1.04688 2.484375,-1.59375 1.46875,-0.54688 3.25,-0.54688 0.984375,0 1.796875,0.14063 0.8125,0.125 1.40625,0.32812 0.609375,0.1875 1,0.40625 0.40625,0.21875 0.5625,0.39063 0.15625,0.15625 0.21875,0.46875 0.07813,0.29687 0.07813,0.875 z m 9.667969,2.9375 q 0,0.42187 -0.03125,0.6875 -0.01563,0.26562 -0.0625,0.42187 -0.04687,0.15625 -0.125,0.21875 -0.0625,0.0469 -0.1875,0.0469 -0.09375,0 -0.21875,-0.0312 -0.109375,-0.0469 -0.265625,-0.0937 -0.140625,-0.0469 -0.3125,-0.0781 -0.171875,-0.0469 -0.390625,-0.0469 -0.234375,0 -0.484375,0.0937 -0.25,0.0937 -0.515625,0.3125 -0.265625,0.20312 -0.546875,0.5625 -0.28125,0.34375 -0.609375,0.85937 v 6.51563 q 0,0.125 -0.07813,0.21875 -0.0625,0.0781 -0.234375,0.14062 -0.171875,0.0625 -0.453125,0.0937 -0.28125,0.0312 -0.71875,0.0312 -0.4375,0 -0.71875,-0.0312 -0.28125,-0.0312 -0.453125,-0.0937 -0.15625,-0.0625 -0.234375,-0.14062 -0.0625,-0.0937 -0.0625,-0.21875 v -10.45313 q 0,-0.10937 0.04687,-0.1875 0.0625,-0.0937 0.21875,-0.15625 0.15625,-0.0625 0.390625,-0.0937 0.234375,-0.0312 0.609375,-0.0312 0.375,0 0.609375,0.0312 0.25,0.0312 0.375,0.0937 0.140625,0.0625 0.203125,0.15625 0.0625,0.0781 0.0625,0.1875 v 1.3125 q 0.40625,-0.59375 0.765625,-0.96875 0.375,-0.39062 0.703125,-0.60937 0.328125,-0.21875 0.65625,-0.29688 0.328125,-0.0937 0.65625,-0.0937 0.140625,0 0.3125,0.0156 0.1875,0.0156 0.375,0.0625 0.1875,0.0312 0.328125,0.0937 0.140625,0.0469 0.203125,0.10937 0.0625,0.0469 0.09375,0.125 0.03125,0.0625 0.04687,0.1875 0.03125,0.125 0.03125,0.375 0.01563,0.25 0.01563,0.67188 z m 12.097656,4.14062 q 0,1.34375 -0.359375,2.45313 -0.34375,1.09375 -1.0625,1.89062 -0.703125,0.79688 -1.78125,1.23438 -1.078125,0.42187 -2.53125,0.42187 -1.390625,0 -2.421875,-0.375 -1.03125,-0.39062 -1.71875,-1.125 -0.671875,-0.75 -1,-1.82812 -0.328125,-1.07813 -0.328125,-2.45313 0,-1.34375 0.359375,-2.45312 0.359375,-1.10938 1.0625,-1.89063 0.71875,-0.79687 1.796875,-1.21875 1.078125,-0.4375 2.515625,-0.4375 1.40625,0 2.4375,0.375 1.03125,0.375 1.703125,1.125 0.671875,0.73438 1,1.8125 0.328125,1.07813 0.328125,2.46875 z m -3.03125,0.125 q 0,-0.78125 -0.125,-1.42187 -0.125,-0.65625 -0.421875,-1.14063 -0.28125,-0.48437 -0.78125,-0.75 -0.484375,-0.26562 -1.21875,-0.26562 -0.65625,0 -1.15625,0.25 -0.484375,0.23437 -0.796875,0.70312 -0.3125,0.45313 -0.484375,1.10938 -0.15625,0.64062 -0.15625,1.46875 0,0.78125 0.125,1.4375 0.140625,0.64062 0.421875,1.125 0.296875,0.48437 0.78125,0.75 0.5,0.25 1.21875,0.25 0.671875,0 1.15625,-0.23438 0.5,-0.23437 0.8125,-0.6875 0.3125,-0.46875 0.46875,-1.10937 0.15625,-0.65625 0.15625,-1.48438 z m 15.277349,5.20313 q 0,0.125 -0.0625,0.21875 -0.0469,0.0781 -0.20313,0.14062 -0.14062,0.0625 -0.39062,0.0937 -0.23438,0.0312 -0.59375,0.0312 -0.39063,0 -0.64063,-0.0312 -0.23437,-0.0312 -0.375,-0.0937 -0.14062,-0.0625 -0.20312,-0.14062 -0.0469,-0.0937 -0.0469,-0.21875 v -1.20313 q -0.875,0.9375 -1.76562,1.40625 -0.89063,0.46875 -1.85938,0.46875 -1.07812,0 -1.8125,-0.34375 -0.73437,-0.35937 -1.1875,-0.96875 -0.4375,-0.60937 -0.640625,-1.40625 -0.1875,-0.8125 -0.1875,-2 v -6.40625 q 0,-0.10937 0.0625,-0.1875 0.0625,-0.0937 0.234375,-0.15625 0.17188,-0.0625 0.45313,-0.0937 0.29687,-0.0312 0.71875,-0.0312 0.42187,0 0.70312,0.0312 0.28125,0.0312 0.45313,0.0937 0.17187,0.0625 0.23437,0.15625 0.0781,0.0781 0.0781,0.1875 v 5.90625 q 0,0.82813 0.10937,1.26563 0.10938,0.42187 0.3125,0.73437 0.21875,0.3125 0.54688,0.48438 0.34375,0.17187 0.79687,0.17187 0.5625,0 1.125,-0.40625 0.5625,-0.42187 1.21875,-1.20312 v -6.95313 q 0,-0.10937 0.0625,-0.1875 0.0625,-0.0937 0.23438,-0.15625 0.17187,-0.0625 0.45312,-0.0937 0.28125,-0.0312 0.70313,-0.0312 0.4375,0 0.71875,0.0312 0.28125,0.0312 0.4375,0.0937 0.17187,0.0625 0.23437,0.15625 0.0781,0.0781 0.0781,0.1875 z m 13.48828,-5.375 q 0,1.39062 -0.29688,2.51562 -0.29687,1.125 -0.875,1.90625 -0.57812,0.78125 -1.4375,1.20313 -0.84375,0.42187 -1.95312,0.42187 -0.45313,0 -0.84375,-0.0937 -0.375,-0.0781 -0.73438,-0.25 -0.34375,-0.1875 -0.70312,-0.45312 -0.34375,-0.28125 -0.71875,-0.64063 v 4.92188 q 0,0.125 -0.0781,0.21875 -0.0625,0.0937 -0.23437,0.15625 -0.17188,0.0625 -0.45313,0.0937 -0.28125,0.0312 -0.71875,0.0312 -0.4375,0 -0.71875,-0.0312 -0.28125,-0.0312 -0.45312,-0.0937 -0.15625,-0.0625 -0.23438,-0.15625 -0.0625,-0.0937 -0.0625,-0.21875 v -14.60938 q 0,-0.10937 0.0469,-0.1875 0.0625,-0.0937 0.20312,-0.15625 0.15625,-0.0625 0.39063,-0.0937 0.25,-0.0312 0.60937,-0.0312 0.34375,0 0.57813,0.0312 0.25,0.0312 0.39062,0.0937 0.15625,0.0625 0.20313,0.15625 0.0625,0.0781 0.0625,0.1875 v 1.23438 q 0.46875,-0.46875 0.90625,-0.82813 0.4375,-0.35937 0.89062,-0.59375 0.45313,-0.23437 0.9375,-0.34375 0.5,-0.125 1.04688,-0.125 1.14062,0 1.95312,0.45313 0.8125,0.4375 1.3125,1.23437 0.51563,0.78125 0.75,1.82813 0.23438,1.03125 0.23438,2.21875 z m -3.0625,0.21875 q 0,-0.67188 -0.10938,-1.28125 -0.0937,-0.625 -0.34375,-1.09375 -0.23437,-0.48438 -0.625,-0.76563 -0.39062,-0.29687 -0.98437,-0.29687 -0.28125,0 -0.57813,0.0937 -0.28125,0.0781 -0.57812,0.28125 -0.29688,0.20312 -0.625,0.51562 -0.3125,0.3125 -0.65625,0.78125 v 3.45313 q 0.60937,0.78125 1.17187,1.21875 0.5625,0.42187 1.17188,0.42187 0.57812,0 0.98437,-0.29687 0.40625,-0.29688 0.65625,-0.76563 0.26563,-0.48437 0.39063,-1.07812 0.125,-0.59375 0.125,-1.1875 z"
     fill-rule="nonzero"
     id="path65" />
  <path
     fill="#000000"
     fill-opacity="0"
     d="M 195.3137,39.433139 336.57354,138.1103"
     fill-rule="evenodd"
     id="path67" />
  <path
     stroke="#119209"
     stroke-width="4"
     stroke-linejoin="round"
     stroke-linecap="butt"
     d="M 195.3137,39.433139 311.97985,120.93036"
     fill-rule="evenodd"
     id="path69" />
  <path
     fill="#119209"
     stroke="#119209"
     stroke-width="4"
     stroke-linecap="butt"
     d="m 306.94568,128.13695 24.83404,6.62463 -14.76571,-21.03778 z"
     fill-rule="evenodd"
     id="path71" />
  <path
     fill="#000000"
     d="m 168,149.43848 v 0 c 0,-8.83655 7.16344,-16 16,-16 v 0 c 4.24347,0 8.31313,1.68573 11.3137,4.68631 3.00058,3.00058 4.6863,7.07022 4.6863,11.31369 v 0 c 0,8.83655 -7.16344,16 -16,16 v 0 c -8.83656,0 -16,-7.16345 -16,-16 z"
     fill-rule="evenodd"
     id="path73" />
  <path
     stroke="#4a7dba"
     stroke-width="1"
     stroke-linejoin="round"
     stroke-linecap="butt"
     d="m 168,149.43848 v 0 c 0,-8.83655 7.16344,-16 16,-16 v 0 c 4.24347,0 8.31313,1.68573 11.3137,4.68631 3.00058,3.00058 4.6863,7.07022 4.6863,11.31369 v 0 c 0,8.83655 -7.16344,16 -16,16 v 0 c -8.83656,0 -16,-7.16345 -16,-16 z"
     fill-rule="evenodd"
     id="path75" />
  <path
     fill="#000000"
     fill-opacity="0"
     d="M 200,149.43848 H 331.87402"
     fill-rule="evenodd"
     id="path77" />
  <path
     stroke="#119209"
     stroke-width="4"
     stroke-linejoin="round"
     stroke-linecap="butt"
     d="M 200,149.43848 H 301.87402"
     fill-rule="evenodd"
     id="path79" />
  <path
     fill="#119209"
     stroke="#119209"
     stroke-width="4"
     stroke-linecap="butt"
     d="m 301.87402,158.22925 24.15237,-8.79077 -24.15237,-8.79074 z"
     fill-rule="evenodd"
     id="path81" />
  <path
     fill="#000000"
     d="m 168,268.11942 v 0 c 0,-8.83655 7.16344,-16 16,-16 v 0 c 4.24347,0 8.31313,1.68573 11.3137,4.68631 3.00058,3.00058 4.6863,7.07022 4.6863,11.31369 v 0 c 0,8.83655 -7.16344,16 -16,16 v 0 c -8.83656,0 -16,-7.16345 -16,-16 z"
     fill-rule="evenodd"
     id="path83" />
  <path
     stroke="#4a7dba"
     stroke-width="1"
     stroke-linejoin="round"
     stroke-linecap="butt"
     d="m 168,268.11942 v 0 c 0,-8.83655 7.16344,-16 16,-16 v 0 c 4.24347,0 8.31313,1.68573 11.3137,4.68631 3.00058,3.00058 4.6863,7.07022 4.6863,11.31369 v 0 c 0,8.83655 -7.16344,16 -16,16 v 0 c -8.83656,0 -16,-7.16345 -16,-16 z"
     fill-rule="evenodd"
     id="path85" />
  <path
     fill="#000000"
     fill-opacity="0"
     d="M 195.3137,256.80573 336.57354,160.74271"
     fill-rule="evenodd"
     id="path87" />
  <path
     stroke="#119209"
     stroke-width="4"
     stroke-linejoin="round"
     stroke-linecap="butt"
     d="M 195.3137,256.80573 311.76626,177.61277"
     fill-rule="evenodd"
     id="path89" />
  <path
     fill="#119209"
     stroke="#119209"
     stroke-width="4"
     stroke-linecap="butt"
     d="m 316.7096,184.88193 15.0285,-20.85089 -24.91519,6.31259 z"
     fill-rule="evenodd"
     id="path91" />
  <path
     fill="#000000"
     fill-opacity="0"
     d="M 518.88495,160.7522 H 359.19989"
     fill-rule="evenodd"
     id="path93" />
  <path
     stroke="#119209"
     stroke-width="4"
     stroke-linejoin="round"
     stroke-linecap="butt"
     d="M 518.88495,160.7522 H 389.19989"
     fill-rule="evenodd"
     id="path95" />
  <path
     fill="#119209"
     stroke="#119209"
     stroke-width="4"
     stroke-linecap="butt"
     d="m 389.1999,151.96143 -24.1524,8.79077 24.1524,8.79074 z"
     fill-rule="evenodd"
     id="path97" />
  <path
     fill="#000000"
     fill-opacity="0"
     d="m 359.1999,165.43775 h 158.26276 v 32.31256 H 359.1999 Z"
     fill-rule="evenodd"
     id="path99" />
  <path
     fill="#119209"
     d="m 411.3607,176.77961 q 0,0.1875 -0.0781,0.46875 -0.0625,0.28125 -0.17187,0.45312 -0.0937,0.15625 -0.21875,0.15625 -0.125,0 -0.29688,-0.17187 -0.17187,-0.17188 -0.46875,-0.35938 -0.28125,-0.20312 -0.75,-0.35937 -0.45312,-0.17188 -1.14062,-0.17188 -0.76563,0 -1.40625,0.28125 -0.625,0.28125 -1.14063,0.78125 -0.5,0.48438 -0.89062,1.125 -0.375,0.625 -0.625,1.32813 -0.25,0.70312 -0.375,1.42187 -0.125,0.70313 -0.125,1.32813 0,0.73437 0.17187,1.3125 0.1875,0.5625 0.53125,0.95312 0.35938,0.39063 0.85938,0.59375 0.5,0.20313 1.14062,0.20313 0.70313,0 1.21875,-0.15625 0.51563,-0.17188 0.875,-0.35938 0.375,-0.20312 0.625,-0.35937 0.25,-0.15625 0.40625,-0.15625 0.0937,0 0.14063,0.0781 0.0469,0.0625 0.0469,0.20313 0,0.0469 -0.0156,0.14062 -0.0156,0.0781 -0.0312,0.1875 -0.0156,0.0937 -0.0469,0.21875 -0.0156,0.10938 -0.0625,0.21875 -0.0312,0.10938 -0.0781,0.20313 -0.0312,0.0781 -0.125,0.17187 -0.0937,0.0937 -0.40625,0.26563 -0.29688,0.17187 -0.75,0.34375 -0.4375,0.15625 -0.98438,0.26562 -0.54687,0.10938 -1.17187,0.10938 -0.9375,0 -1.6875,-0.26563 -0.73438,-0.28125 -1.26563,-0.82812 -0.51562,-0.54688 -0.8125,-1.34375 -0.28125,-0.8125 -0.28125,-1.85938 0,-0.85937 0.17188,-1.76562 0.1875,-0.92188 0.54687,-1.78125 0.35938,-0.875 0.89063,-1.64063 0.53125,-0.76562 1.23437,-1.34375 0.70313,-0.57812 1.59375,-0.90625 0.89063,-0.34375 1.9375,-0.34375 0.67188,0 1.25,0.15625 0.57813,0.14063 0.98438,0.375 0.40625,0.23438 0.59375,0.40625 0.1875,0.17188 0.1875,0.42188 z m 8.21591,4.85937 q 0,0.6875 -0.14062,1.39063 -0.125,0.6875 -0.39063,1.34375 -0.25,0.65625 -0.65625,1.23437 -0.39062,0.5625 -0.9375,1 -0.54687,0.42188 -1.23437,0.67188 -0.6875,0.25 -1.53125,0.25 -0.875,0 -1.5,-0.20313 -0.625,-0.21875 -1.03125,-0.60937 -0.39063,-0.40625 -0.59375,-0.98438 -0.1875,-0.59375 -0.1875,-1.32812 0,-0.67188 0.125,-1.375 0.125,-0.70313 0.39062,-1.34375 0.26563,-0.65625 0.65625,-1.23438 0.40625,-0.57812 0.9375,-1 0.54688,-0.42187 1.23438,-0.67187 0.6875,-0.26563 1.53125,-0.26563 0.875,0 1.5,0.21875 0.625,0.21875 1.03125,0.625 0.40625,0.39063 0.59375,0.98438 0.20312,0.57812 0.20312,1.29687 z m -1.59375,0.0937 q 0,-0.45312 -0.0937,-0.8125 -0.0937,-0.375 -0.32812,-0.625 -0.21875,-0.25 -0.57813,-0.375 -0.35937,-0.14062 -0.85937,-0.14062 -0.54688,0 -1,0.20312 -0.4375,0.1875 -0.79688,0.53125 -0.34375,0.32813 -0.60937,0.78125 -0.26563,0.4375 -0.4375,0.9375 -0.15625,0.5 -0.25,1.04688 -0.0781,0.53125 -0.0781,1.03125 0,0.45312 0.0937,0.82812 0.10938,0.35938 0.32813,0.625 0.23437,0.25 0.57812,0.39063 0.35938,0.125 0.875,0.125 0.54688,0 0.98438,-0.1875 0.45312,-0.20313 0.79687,-0.53125 0.35938,-0.34375 0.60938,-0.78125 0.26562,-0.45313 0.4375,-0.95313 0.17187,-0.51562 0.25,-1.04687 0.0781,-0.53125 0.0781,-1.04688 z m 10.85532,-0.98437 q 0,0.3125 -0.0312,0.625 -0.0312,0.3125 -0.0937,0.64062 l -1.03125,5.10938 q -0.0156,0.0781 -0.0625,0.14062 -0.0469,0.0469 -0.14063,0.0781 -0.0937,0.0312 -0.25,0.0469 -0.14062,0.0156 -0.35937,0.0156 -0.21875,0 -0.35938,-0.0156 -0.14062,-0.0156 -0.21875,-0.0469 -0.0781,-0.0312 -0.10937,-0.0781 -0.0156,-0.0625 0,-0.14062 l 1,-5.0625 q 0.0625,-0.28125 0.0781,-0.54688 0.0312,-0.26562 0.0312,-0.45312 0,-0.5625 -0.23437,-0.90625 -0.23438,-0.34375 -0.79688,-0.34375 -0.48437,0 -0.98437,0.28125 -0.5,0.28125 -0.9375,0.76562 -0.4375,0.48438 -0.78125,1.15625 -0.32813,0.67188 -0.48438,1.45313 l -0.73437,3.65625 q -0.0156,0.0781 -0.0625,0.14062 -0.0469,0.0469 -0.14063,0.0781 -0.0937,0.0312 -0.25,0.0469 -0.14062,0.0156 -0.35937,0.0156 -0.21875,0 -0.35938,-0.0156 -0.14062,-0.0156 -0.21875,-0.0469 -0.0781,-0.0312 -0.10937,-0.0781 -0.0156,-0.0625 0,-0.14062 l 1.64062,-8.20313 q 0.0156,-0.0625 0.0469,-0.10937 0.0469,-0.0625 0.125,-0.0937 0.0937,-0.0469 0.21875,-0.0469 0.14062,-0.0156 0.32812,-0.0156 0.1875,0 0.3125,0.0156 0.125,0 0.1875,0.0469 0.0781,0.0312 0.0937,0.0937 0.0156,0.0469 0,0.10937 l -0.29687,1.5625 q 0.125,-0.29687 0.4375,-0.64062 0.3125,-0.35938 0.73437,-0.64063 0.4375,-0.29687 0.95313,-0.48437 0.51562,-0.20313 1.0625,-0.20313 0.60937,0 1.01562,0.1875 0.42188,0.1875 0.67188,0.5 0.25,0.29688 0.35937,0.70313 0.10938,0.40625 0.10938,0.84375 z m 7.26938,-1.71875 q 0,0.0781 -0.0156,0.17187 0,0.0937 -0.0312,0.20313 -0.0156,0.0937 -0.0625,0.20312 -0.0469,0.0937 -0.10937,0.17188 -0.0469,0.0781 -0.10938,0.125 -0.0625,0.0312 -0.14062,0.0312 h -2.09375 l -0.92188,4.57812 q -0.0312,0.1875 -0.0625,0.4375 -0.0312,0.23438 -0.0312,0.39063 0,0.45312 0.1875,0.67187 0.20313,0.21875 0.64063,0.21875 0.25,0 0.42187,-0.0469 0.1875,-0.0469 0.3125,-0.0781 0.14063,-0.0469 0.23438,-0.0937 0.10937,-0.0469 0.1875,-0.0469 0.0625,0 0.10937,0.0625 0.0469,0.0469 0.0469,0.1875 0,0.10937 -0.0312,0.25 -0.0156,0.14062 -0.0625,0.28125 -0.0312,0.14062 -0.0937,0.25 -0.0469,0.10937 -0.10938,0.17187 -0.0781,0.0625 -0.21875,0.125 -0.14062,0.0625 -0.34375,0.10938 -0.1875,0.0469 -0.40625,0.0781 -0.20312,0.0312 -0.42187,0.0312 -0.5,0 -0.875,-0.10937 -0.375,-0.10938 -0.64063,-0.34375 -0.25,-0.23438 -0.375,-0.57813 -0.10937,-0.35937 -0.10937,-0.84375 0,-0.10937 0,-0.23437 0.0156,-0.14063 0.0312,-0.28125 0.0312,-0.15625 0.0469,-0.29688 0.0312,-0.14062 0.0469,-0.28125 l 0.92187,-4.60937 h -1.14062 q -0.0937,0 -0.15625,-0.0469 -0.0469,-0.0625 -0.0469,-0.23437 0,-0.125 0.0156,-0.29688 0.0312,-0.17187 0.0781,-0.3125 0.0625,-0.15625 0.14063,-0.25 0.0937,-0.0937 0.21875,-0.0937 h 1.14062 l 0.40625,-1.95312 q 0,-0.0625 0.0469,-0.10938 0.0625,-0.0625 0.14062,-0.10937 0.0937,-0.0469 0.23438,-0.0625 0.15625,-0.0156 0.375,-0.0156 0.21875,0 0.35937,0.0156 0.15625,0.0156 0.21875,0.0625 0.0781,0.0469 0.0937,0.10937 0.0312,0.0469 0.0312,0.10938 l -0.39062,1.95312 h 2.09375 q 0.14062,0 0.17187,0.0937 0.0469,0.0937 0.0469,0.23438 z m 6.67099,-0.0937 q 0,0.0469 -0.0156,0.15625 -0.0156,0.0937 -0.0312,0.23437 -0.0156,0.14063 -0.0625,0.28125 -0.0312,0.14063 -0.0937,0.26563 -0.0469,0.125 -0.10937,0.20312 -0.0625,0.0781 -0.125,0.0781 -0.0781,0 -0.17188,-0.0312 -0.0781,-0.0312 -0.1875,-0.0625 -0.10937,-0.0469 -0.25,-0.0781 -0.125,-0.0469 -0.3125,-0.0469 -0.3125,0 -0.71875,0.28125 -0.39062,0.26562 -0.79687,0.73437 -0.39063,0.46875 -0.71875,1.125 -0.3125,0.64063 -0.46875,1.40625 l -0.71875,3.64063 q -0.0156,0.0781 -0.0625,0.14062 -0.0469,0.0469 -0.14063,0.0781 -0.0937,0.0312 -0.25,0.0469 -0.14062,0.0156 -0.35937,0.0156 -0.21875,0 -0.35938,-0.0156 -0.14062,-0.0156 -0.21875,-0.0469 -0.0781,-0.0312 -0.10937,-0.0781 -0.0156,-0.0625 0,-0.14062 l 1.625,-8.20313 q 0.0156,-0.0625 0.0625,-0.10937 0.0469,-0.0625 0.125,-0.0937 0.0937,-0.0469 0.21875,-0.0469 0.14062,-0.0156 0.32812,-0.0156 0.1875,0 0.3125,0.0156 0.125,0 0.1875,0.0469 0.0781,0.0312 0.0937,0.0937 0.0156,0.0469 0,0.10937 l -0.29687,1.5 q 0.21875,-0.375 0.5,-0.71875 0.28125,-0.34375 0.60937,-0.60937 0.34375,-0.26563 0.71875,-0.42188 0.375,-0.15625 0.71875,-0.15625 0.15625,0 0.3125,0.0312 0.17188,0.0156 0.29688,0.0469 0.14062,0.0312 0.25,0.0781 0.10937,0.0469 0.15625,0.0937 0.0625,0.0625 0.0625,0.17188 z m 8.42611,2.70312 q 0,0.6875 -0.14062,1.39063 -0.125,0.6875 -0.39063,1.34375 -0.25,0.65625 -0.65625,1.23437 -0.39062,0.5625 -0.9375,1 -0.54687,0.42188 -1.23437,0.67188 -0.6875,0.25 -1.53125,0.25 -0.875,0 -1.5,-0.20313 -0.625,-0.21875 -1.03125,-0.60937 -0.39063,-0.40625 -0.59375,-0.98438 -0.1875,-0.59375 -0.1875,-1.32812 0,-0.67188 0.125,-1.375 0.125,-0.70313 0.39062,-1.34375 0.26563,-0.65625 0.65625,-1.23438 0.40625,-0.57812 0.9375,-1 0.54688,-0.42187 1.23438,-0.67187 0.6875,-0.26563 1.53125,-0.26563 0.875,0 1.5,0.21875 0.625,0.21875 1.03125,0.625 0.40625,0.39063 0.59375,0.98438 0.20312,0.57812 0.20312,1.29687 z m -1.59375,0.0937 q 0,-0.45312 -0.0937,-0.8125 -0.0937,-0.375 -0.32812,-0.625 -0.21875,-0.25 -0.57813,-0.375 -0.35937,-0.14062 -0.85937,-0.14062 -0.54688,0 -1,0.20312 -0.4375,0.1875 -0.79688,0.53125 -0.34375,0.32813 -0.60937,0.78125 -0.26563,0.4375 -0.4375,0.9375 -0.15625,0.5 -0.25,1.04688 -0.0781,0.53125 -0.0781,1.03125 0,0.45312 0.0937,0.82812 0.10938,0.35938 0.32813,0.625 0.23437,0.25 0.57812,0.39063 0.35938,0.125 0.875,0.125 0.54688,0 0.98438,-0.1875 0.45312,-0.20313 0.79687,-0.53125 0.35938,-0.34375 0.60938,-0.78125 0.26562,-0.45313 0.4375,-0.95313 0.17187,-0.51562 0.25,-1.04687 0.0781,-0.53125 0.0781,-1.04688 z m 4.35535,5.39063 q -0.0156,0.0781 -0.0625,0.14062 -0.0469,0.0469 -0.14062,0.0781 -0.0937,0.0312 -0.25,0.0469 -0.14063,0.0156 -0.35938,0.0156 -0.21875,0 -0.35937,-0.0156 -0.14063,-0.0156 -0.21875,-0.0469 -0.0781,-0.0312 -0.10938,-0.0781 -0.0156,-0.0625 0,-0.14062 l 2.42188,-12.15625 q 0.0156,-0.0781 0.0469,-0.125 0.0469,-0.0625 0.14063,-0.0937 0.10937,-0.0469 0.25,-0.0625 0.15625,-0.0156 0.375,-0.0156 0.21875,0 0.35937,0.0156 0.15625,0.0156 0.21875,0.0625 0.0781,0.0312 0.0937,0.0937 0.0312,0.0469 0.0156,0.125 z m 4.28146,0 q -0.0156,0.0781 -0.0625,0.14062 -0.0469,0.0469 -0.14062,0.0781 -0.0937,0.0312 -0.25,0.0469 -0.14063,0.0156 -0.35938,0.0156 -0.21875,0 -0.35937,-0.0156 -0.14063,-0.0156 -0.21875,-0.0469 -0.0781,-0.0312 -0.10938,-0.0781 -0.0156,-0.0625 0,-0.14062 l 2.42188,-12.15625 q 0.0156,-0.0781 0.0469,-0.125 0.0469,-0.0625 0.14063,-0.0937 0.10937,-0.0469 0.25,-0.0625 0.15625,-0.0156 0.375,-0.0156 0.21875,0 0.35937,0.0156 0.15625,0.0156 0.21875,0.0625 0.0781,0.0312 0.0937,0.0937 0.0312,0.0469 0.0156,0.125 z m 10.60959,-6.51563 q 0,0.625 -0.29687,1.125 -0.28125,0.5 -0.90625,0.85938 -0.60938,0.35937 -1.57813,0.54687 -0.96875,0.1875 -2.3125,0.1875 h -0.96875 q -0.0625,0.3125 -0.0937,0.59375 -0.0156,0.28125 -0.0156,0.51563 0,0.92187 0.45312,1.40625 0.45313,0.48437 1.45313,0.48437 0.59375,0 1.04687,-0.0937 0.46875,-0.0937 0.8125,-0.1875 0.34375,-0.0937 0.5625,-0.17187 0.21875,-0.0937 0.29688,-0.0937 0.0781,0 0.125,0.0625 0.0469,0.0469 0.0469,0.15625 0,0.0937 -0.0312,0.21875 -0.0156,0.125 -0.0469,0.26562 -0.0312,0.125 -0.0937,0.25 -0.0625,0.10938 -0.14063,0.20313 -0.10937,0.10937 -0.39062,0.21875 -0.26563,0.0937 -0.65625,0.1875 -0.375,0.0781 -0.82813,0.125 -0.45312,0.0625 -0.92187,0.0625 -0.79688,0 -1.42188,-0.17188 -0.60937,-0.1875 -1.01562,-0.5625 -0.39063,-0.39062 -0.59375,-0.95312 -0.20313,-0.5625 -0.20313,-1.32813 0,-0.59375 0.10938,-1.26562 0.10937,-0.6875 0.35937,-1.34375 0.25,-0.67188 0.64063,-1.28125 0.39062,-0.60938 0.92187,-1.0625 0.54688,-0.46875 1.25,-0.75 0.71875,-0.29688 1.625,-0.29688 0.76563,0 1.29688,0.20313 0.53125,0.1875 0.85937,0.48437 0.34375,0.29688 0.5,0.67188 0.15625,0.375 0.15625,0.73437 z m -1.53125,0.14063 q 0,-0.46875 -0.375,-0.75 -0.35937,-0.29688 -1.03125,-0.29688 -0.59375,0 -1.04687,0.21875 -0.45313,0.20313 -0.8125,0.54688 -0.34375,0.34375 -0.59375,0.8125 -0.25,0.45312 -0.40625,0.95312 h 0.92187 q 0.96875,0 1.60938,-0.10937 0.64062,-0.125 1.01562,-0.32813 0.39063,-0.20312 0.54688,-0.46875 0.17187,-0.28125 0.17187,-0.57812 z m 8.89347,-1.8125 q 0,0.0469 -0.0156,0.15625 -0.0156,0.0937 -0.0312,0.23437 -0.0156,0.14063 -0.0625,0.28125 -0.0312,0.14063 -0.0937,0.26563 -0.0469,0.125 -0.10937,0.20312 -0.0625,0.0781 -0.125,0.0781 -0.0781,0 -0.17188,-0.0312 -0.0781,-0.0312 -0.1875,-0.0625 -0.10937,-0.0469 -0.25,-0.0781 -0.125,-0.0469 -0.3125,-0.0469 -0.3125,0 -0.71875,0.28125 -0.39062,0.26562 -0.79687,0.73437 -0.39063,0.46875 -0.71875,1.125 -0.3125,0.64063 -0.46875,1.40625 l -0.71875,3.64063 q -0.0156,0.0781 -0.0625,0.14062 -0.0469,0.0469 -0.14063,0.0781 -0.0937,0.0312 -0.25,0.0469 -0.14062,0.0156 -0.35937,0.0156 -0.21875,0 -0.35938,-0.0156 -0.14062,-0.0156 -0.21875,-0.0469 -0.0781,-0.0312 -0.10937,-0.0781 -0.0156,-0.0625 0,-0.14062 l 1.625,-8.20313 q 0.0156,-0.0625 0.0625,-0.10937 0.0469,-0.0625 0.125,-0.0937 0.0937,-0.0469 0.21875,-0.0469 0.14062,-0.0156 0.32812,-0.0156 0.1875,0 0.3125,0.0156 0.125,0 0.1875,0.0469 0.0781,0.0312 0.0937,0.0937 0.0156,0.0469 0,0.10937 l -0.29687,1.5 q 0.21875,-0.375 0.5,-0.71875 0.28125,-0.34375 0.60937,-0.60937 0.34375,-0.26563 0.71875,-0.42188 0.375,-0.15625 0.71875,-0.15625 0.15625,0 0.3125,0.0312 0.17188,0.0156 0.29688,0.0469 0.14062,0.0312 0.25,0.0781 0.10937,0.0469 0.15625,0.0937 0.0625,0.0625 0.0625,0.17188 z"
     fill-rule="nonzero"
     id="path101" />
  <path
     fill="#000000"
     fill-opacity="0"
     d="m 157.6126,289.43775 c -11.08098,0 -20.06389,-14.3299 -20.06389,-32.00671 v -75.98657 c 0,-17.67682 -8.98289,-32.00672 -20.06387,-32.00672 v 0 c 11.08098,0 20.06387,-14.32989 20.06387,-32.00671 v -75.986571 0 c 0,-17.67682 8.98291,-32.0067197 20.06389,-32.0067197 z"
     fill-rule="evenodd"
     id="path103" />
  <path
     fill="#000000"
     fill-opacity="0"
     d="m 157.6126,289.43775 c -11.08098,0 -20.06389,-14.3299 -20.06389,-32.00671 v -75.98657 c 0,-17.67682 -8.98289,-32.00672 -20.06387,-32.00672 v 0 c 11.08098,0 20.06387,-14.32989 20.06387,-32.00671 v -75.986571 0 c 0,-17.67682 8.98291,-32.0067197 20.06389,-32.0067197"
     fill-rule="evenodd"
     id="path105" />
  <path
     stroke="#000000"
     stroke-width="1.33333"
     stroke-linejoin="round"
     stroke-linecap="butt"
     d="m 157.6126,289.43775 c -11.08098,0 -20.06389,-14.3299 -20.06389,-32.00671 v -75.98657 c 0,-17.67682 -8.98289,-32.00672 -20.06387,-32.00672 v 0 c 11.08098,0 20.06387,-14.32989 20.06387,-32.00671 v -75.986571 0 c 0,-17.67682 8.98291,-32.0067197 20.06389,-32.0067197"
     fill-rule="evenodd"
     id="path107" />
</svg>
