<svg width="500" height="157" viewBox="0 0 500 157" fill="none" xmlns="http://www.w3.org/2000/svg">
<g clip-path="url(#clip0)">
<path d="M38.8409 55.003V67.7999H39.2471C39.82 67.7999 40.2315 67.9145 40.4815 68.1436C40.7315 68.3624 40.8565 68.6489 40.8565 69.003C40.8565 69.3572 40.7315 69.6489 40.4815 69.878C40.2419 70.0968 39.8305 70.2061 39.2471 70.2061H36.4346V69.6124C35.893 69.9353 35.32 70.1801 34.7159 70.3468C34.1221 70.5134 33.5023 70.5968 32.8565 70.5968C31.0544 70.5968 29.6013 70.0759 28.4971 69.0343C27.4034 67.9822 26.8565 66.6801 26.8565 65.128C26.8565 63.503 27.4346 62.1176 28.5909 60.9718C29.7471 59.8259 31.1534 59.253 32.8096 59.253C33.4346 59.253 34.0492 59.3468 34.6534 59.5343C35.2575 59.7218 35.8513 60.0082 36.4346 60.3936V57.4093H36.0284C35.445 57.4093 35.0284 57.2999 34.7784 57.0811C34.5388 56.852 34.419 56.5603 34.419 56.2061C34.419 55.852 34.5388 55.5655 34.7784 55.3468C35.0284 55.1176 35.445 55.003 36.0284 55.003H38.8409V55.003ZM36.4346 65.2061C36.4346 64.2061 36.0857 63.3624 35.3878 62.6749C34.7003 61.9874 33.8513 61.6436 32.8409 61.6436C31.8409 61.6436 30.9919 61.9874 30.294 62.6749C29.5961 63.3624 29.2471 64.1905 29.2471 65.1593C29.2471 66.0447 29.5596 66.7739 30.1846 67.3468C30.8096 67.9093 31.695 68.1905 32.8409 68.1905C33.9763 68.1905 34.8565 67.9093 35.4815 67.3468C36.1169 66.7739 36.4346 66.0603 36.4346 65.2061ZM48.587 55.003V57.5499H45.7276V55.003H48.587ZM48.9151 59.5655V67.7999H51.8057C52.3786 67.7999 52.7849 67.9145 53.0245 68.1436C53.2745 68.3624 53.3995 68.6489 53.3995 69.003C53.3995 69.3572 53.2745 69.6489 53.0245 69.878C52.7849 70.0968 52.3786 70.2061 51.8057 70.2061H43.6339C43.0505 70.2061 42.6339 70.0968 42.3839 69.878C42.1443 69.6489 42.0245 69.3572 42.0245 69.003C42.0245 68.6489 42.1443 68.3624 42.3839 68.1436C42.6339 67.9145 43.0505 67.7999 43.6339 67.7999H46.5089V61.9718H44.587C44.0141 61.9718 43.6026 61.8624 43.3526 61.6436C43.1026 61.4145 42.9776 61.1176 42.9776 60.753C42.9776 60.4093 43.0974 60.128 43.337 59.9093C43.587 59.6801 44.0036 59.5655 44.587 59.5655H48.9151ZM67.6456 55.003V67.7999H68.0518C68.6247 67.7999 69.0362 67.9145 69.2862 68.1436C69.5362 68.3624 69.6612 68.6489 69.6612 69.003C69.6612 69.3572 69.5362 69.6489 69.2862 69.878C69.0466 70.0968 68.6352 70.2061 68.0518 70.2061H65.2393V69.6124C64.6977 69.9353 64.1247 70.1801 63.5206 70.3468C62.9268 70.5134 62.307 70.5968 61.6612 70.5968C59.8591 70.5968 58.406 70.0759 57.3018 69.0343C56.2081 67.9822 55.6612 66.6801 55.6612 65.128C55.6612 63.503 56.2393 62.1176 57.3956 60.9718C58.5518 59.8259 59.9581 59.253 61.6143 59.253C62.2393 59.253 62.8539 59.3468 63.4581 59.5343C64.0622 59.7218 64.656 60.0082 65.2393 60.3936V57.4093H64.8331C64.2497 57.4093 63.8331 57.2999 63.5831 57.0811C63.3435 56.852 63.2237 56.5603 63.2237 56.2061C63.2237 55.852 63.3435 55.5655 63.5831 55.3468C63.8331 55.1176 64.2497 55.003 64.8331 55.003H67.6456ZM65.2393 65.2061C65.2393 64.2061 64.8904 63.3624 64.1924 62.6749C63.5049 61.9874 62.656 61.6436 61.6456 61.6436C60.6456 61.6436 59.7966 61.9874 59.0987 62.6749C58.4008 63.3624 58.0518 64.1905 58.0518 65.1593C58.0518 66.0447 58.3643 66.7739 58.9893 67.3468C59.6143 67.9093 60.4997 68.1905 61.6456 68.1905C62.781 68.1905 63.6612 67.9093 64.2862 67.3468C64.9216 66.7739 65.2393 66.0603 65.2393 65.2061Z" fill="#3C78D8"/>
<path d="M78.3448 61.1749C78.3448 61.6228 78.1833 62.003 77.8604 62.3155C77.5375 62.6176 77.0948 62.7686 76.5323 62.7686C75.9698 62.7686 75.5271 62.6176 75.2042 62.3155C74.8917 62.003 74.7354 61.6228 74.7354 61.1749C74.7354 60.7166 74.8917 60.3364 75.2042 60.0343C75.5271 59.7322 75.9698 59.5811 76.5323 59.5811C77.0948 59.5811 77.5375 59.7322 77.8604 60.0343C78.1833 60.3364 78.3448 60.7166 78.3448 61.1749ZM78.3604 69.0343C78.3604 69.4822 78.199 69.8624 77.876 70.1749C77.5635 70.477 77.126 70.628 76.5635 70.628C76.001 70.628 75.5583 70.477 75.2354 70.1749C74.9125 69.8624 74.751 69.4822 74.751 69.0343C74.751 68.5759 74.9125 68.1957 75.2354 67.8936C75.5583 67.5916 76.001 67.4405 76.5635 67.4405C77.126 67.4405 77.5635 67.5916 77.876 67.8936C78.199 68.1957 78.3604 68.5759 78.3604 69.0343Z" fill="#434343"/>
<path d="M96.9659 66.0968H87.1065C87.3565 66.7218 87.7992 67.227 88.4346 67.6124C89.07 67.9978 89.9346 68.1905 91.0284 68.1905C91.9138 68.1905 93.0961 67.9978 94.5753 67.6124C95.1794 67.4562 95.6013 67.378 95.8409 67.378C96.1638 67.378 96.4346 67.4926 96.6534 67.7218C96.8721 67.9509 96.9815 68.2374 96.9815 68.5812C96.9815 68.8937 96.8617 69.1593 96.6221 69.378C96.3096 69.6593 95.5492 69.9353 94.3409 70.2062C93.1325 70.4666 91.9659 70.5968 90.8409 70.5968C88.9242 70.5968 87.3878 70.0551 86.2315 68.9718C85.0857 67.878 84.5128 66.5395 84.5128 64.9562C84.5128 63.2687 85.1325 61.8989 86.3721 60.8468C87.6221 59.7843 89.0596 59.253 90.6846 59.253C91.6638 59.253 92.5596 59.4249 93.3721 59.7686C94.1846 60.1124 94.794 60.4822 95.2003 60.878C95.7628 61.4509 96.2263 62.1645 96.5909 63.0186C96.8409 63.6124 96.9659 64.2999 96.9659 65.0812V66.0968ZM94.3096 63.7061C93.9346 63.0186 93.4503 62.503 92.8565 62.1593C92.2628 61.8155 91.5596 61.6436 90.7471 61.6436C89.9346 61.6436 89.2315 61.8155 88.6378 62.1593C88.044 62.503 87.5596 63.0186 87.1846 63.7061H94.3096ZM107.134 64.6749L110.774 67.7999C111.212 67.8207 111.54 67.9457 111.759 68.1749C111.978 68.3937 112.087 68.6697 112.087 69.003C112.087 69.3572 111.962 69.6489 111.712 69.878C111.472 70.0968 111.066 70.2062 110.493 70.2062H107.759C107.176 70.2062 106.759 70.0968 106.509 69.878C106.269 69.6489 106.149 69.352 106.149 68.9874C106.149 68.7062 106.238 68.4614 106.415 68.253C106.592 68.0343 106.832 67.8832 107.134 67.7999L105.337 66.253L103.509 67.7999C103.884 67.8937 104.149 68.0395 104.306 68.2374C104.462 68.4353 104.54 68.6853 104.54 68.9874C104.54 69.352 104.42 69.6489 104.181 69.878C103.941 70.0968 103.53 70.2062 102.946 70.2062H100.243C99.6703 70.2062 99.2589 70.0968 99.0089 69.878C98.7589 69.6489 98.6339 69.3572 98.6339 69.003C98.6339 68.6697 98.7432 68.3937 98.962 68.1749C99.1807 67.9457 99.5089 67.8207 99.9464 67.7999L103.509 64.6593L100.368 61.9718C99.9516 61.9405 99.6339 61.8155 99.4151 61.5968C99.2068 61.3676 99.1026 61.0864 99.1026 60.753C99.1026 60.4093 99.2224 60.128 99.462 59.9093C99.712 59.6801 100.123 59.5655 100.696 59.5655H102.946C103.53 59.5655 103.941 59.6801 104.181 59.9093C104.431 60.128 104.556 60.4093 104.556 60.753C104.556 61.2114 104.337 61.5864 103.899 61.878L105.353 63.0811L106.79 61.8468C106.353 61.5447 106.134 61.1957 106.134 60.7999C106.134 60.4249 106.259 60.128 106.509 59.9093C106.759 59.6801 107.17 59.5655 107.743 59.5655H109.978C110.551 59.5655 110.957 59.6801 111.196 59.9093C111.446 60.128 111.571 60.4145 111.571 60.7686C111.571 61.0916 111.462 61.3676 111.243 61.5968C111.035 61.8155 110.722 61.9405 110.306 61.9718L107.134 64.6749ZM121.896 70.2062V69.6437C121.302 69.9666 120.64 70.2062 119.911 70.3624C119.182 70.5291 118.521 70.6124 117.927 70.6124C116.635 70.6124 115.588 70.2687 114.786 69.5812C113.984 68.8937 113.583 68.1384 113.583 67.3155C113.583 66.3051 114.093 65.3676 115.114 64.503C116.146 63.6384 117.567 63.2061 119.38 63.2061C120.109 63.2061 120.948 63.2843 121.896 63.4405V62.8624C121.896 62.5082 121.739 62.2166 121.427 61.9874C121.125 61.7582 120.541 61.6436 119.677 61.6436C118.968 61.6436 118.047 61.7843 116.911 62.0655C116.484 62.1697 116.156 62.2218 115.927 62.2218C115.604 62.2218 115.328 62.1072 115.099 61.878C114.88 61.6489 114.771 61.352 114.771 60.9874C114.771 60.7895 114.807 60.6176 114.88 60.4718C114.963 60.3155 115.073 60.1957 115.208 60.1124C115.354 60.0186 115.651 59.9093 116.099 59.7843C116.692 59.6176 117.297 59.4874 117.911 59.3936C118.536 59.2999 119.099 59.253 119.599 59.253C121.088 59.253 122.245 59.5759 123.067 60.2218C123.89 60.8572 124.302 61.7374 124.302 62.8624V67.7999H124.708C125.291 67.7999 125.703 67.9145 125.942 68.1437C126.192 68.3624 126.317 68.6489 126.317 69.003C126.317 69.3572 126.192 69.6489 125.942 69.878C125.703 70.0968 125.291 70.2062 124.708 70.2062H121.896ZM121.896 65.9093C120.937 65.7218 120.052 65.628 119.239 65.628C118.26 65.628 117.422 65.8624 116.724 66.3312C116.286 66.6437 116.067 66.9562 116.067 67.2687C116.067 67.4874 116.172 67.6697 116.38 67.8155C116.776 68.0759 117.312 68.2062 117.989 68.2062C118.562 68.2062 119.213 68.0916 119.942 67.8624C120.682 67.6332 121.333 67.3259 121.896 66.9405V65.9093ZM130.439 59.5655V60.2374C130.824 59.8624 131.173 59.602 131.485 59.4561C131.808 59.3103 132.178 59.2374 132.595 59.2374C132.939 59.2374 133.282 59.3259 133.626 59.503C133.97 59.6697 134.308 59.9249 134.642 60.2686C135.058 59.9249 135.475 59.6697 135.892 59.503C136.319 59.3364 136.756 59.253 137.204 59.253C138.1 59.253 138.824 59.4874 139.376 59.9561C140.105 60.5811 140.47 61.4041 140.47 62.4249V67.7999C140.97 67.7999 141.34 67.9145 141.579 68.1437C141.829 68.3728 141.954 68.6593 141.954 69.003C141.954 69.3572 141.829 69.6489 141.579 69.878C141.34 70.0968 140.933 70.2062 140.36 70.2062H138.079V62.628C138.079 62.253 138.011 61.9978 137.876 61.8624C137.741 61.7166 137.538 61.6436 137.267 61.6436C136.996 61.6436 136.751 61.7166 136.532 61.8624C136.241 62.0603 135.886 62.4249 135.47 62.9561V67.7999C135.97 67.7999 136.34 67.9145 136.579 68.1437C136.829 68.3728 136.954 68.6593 136.954 69.003C136.954 69.3572 136.829 69.6489 136.579 69.878C136.34 70.0968 135.933 70.2062 135.36 70.2062H133.064V62.628C133.064 62.2634 132.996 62.0082 132.86 61.8624C132.725 61.7166 132.522 61.6436 132.251 61.6436C131.97 61.6436 131.689 61.7322 131.407 61.9093C131.136 62.0864 130.814 62.4353 130.439 62.9561V67.7999C130.939 67.7999 131.308 67.9145 131.548 68.1437C131.798 68.3728 131.923 68.6593 131.923 69.003C131.923 69.3572 131.798 69.6489 131.548 69.878C131.308 70.0968 130.897 70.2062 130.314 70.2062H128.142C127.569 70.2062 127.157 70.0968 126.907 69.878C126.657 69.6489 126.532 69.3572 126.532 69.003C126.532 68.6489 126.657 68.3624 126.907 68.1437C127.147 67.9145 127.522 67.7999 128.032 67.7999V61.9718C127.522 61.9718 127.147 61.8572 126.907 61.628C126.657 61.3989 126.532 61.1072 126.532 60.753C126.532 60.4093 126.657 60.128 126.907 59.9093C127.157 59.6801 127.569 59.5655 128.142 59.5655H130.439ZM145.56 68.878V72.8155H146.997C147.58 72.8155 147.992 72.9249 148.232 73.1437C148.482 73.3728 148.607 73.6697 148.607 74.0343C148.607 74.378 148.482 74.6593 148.232 74.878C147.992 75.1072 147.58 75.2218 146.997 75.2218H142.747C142.174 75.2218 141.763 75.1072 141.513 74.878C141.263 74.6593 141.138 74.378 141.138 74.0343C141.138 73.6697 141.263 73.3728 141.513 73.1437C141.763 72.9249 142.174 72.8155 142.747 72.8155H143.153V61.9718H142.747C142.174 61.9718 141.763 61.8624 141.513 61.6436C141.263 61.4145 141.138 61.1176 141.138 60.753C141.138 60.4093 141.263 60.128 141.513 59.9093C141.763 59.6801 142.174 59.5655 142.747 59.5655H145.56V60.378C146.122 60.003 146.705 59.7218 147.31 59.5343C147.914 59.3468 148.528 59.253 149.153 59.253C150.799 59.253 152.2 59.8103 153.357 60.9249C154.513 62.0291 155.091 63.2999 155.091 64.7374C155.091 66.3312 154.409 67.6437 153.044 68.6749C151.898 69.5291 150.612 69.9562 149.185 69.9562C148.57 69.9562 147.961 69.8676 147.357 69.6905C146.752 69.5134 146.153 69.2426 145.56 68.878ZM152.685 64.753C152.685 64.4197 152.549 63.9926 152.278 63.4718C152.018 62.9509 151.612 62.5186 151.06 62.1749C150.508 61.8207 149.862 61.6436 149.122 61.6436C147.924 61.6436 146.976 62.0968 146.278 63.003C145.799 63.6176 145.56 64.2114 145.56 64.7843C145.56 65.4197 145.898 66.0395 146.575 66.6437C147.263 67.2478 148.112 67.5499 149.122 67.5499C150.143 67.5499 150.992 67.253 151.669 66.6593C152.346 66.0551 152.685 65.4197 152.685 64.753ZM164.149 55.003V67.7999H167.024C167.608 67.7999 168.019 67.9145 168.259 68.1437C168.509 68.3624 168.634 68.6489 168.634 69.003C168.634 69.3572 168.509 69.6489 168.259 69.878C168.019 70.0968 167.608 70.2062 167.024 70.2062H158.868C158.285 70.2062 157.868 70.0968 157.618 69.878C157.379 69.6489 157.259 69.3572 157.259 69.003C157.259 68.6489 157.379 68.3624 157.618 68.1437C157.868 67.9145 158.285 67.7999 158.868 67.7999H161.743V57.4093H159.806C159.243 57.4093 158.837 57.2999 158.587 57.0811C158.337 56.852 158.212 56.5603 158.212 56.2061C158.212 55.852 158.332 55.5655 158.571 55.3468C158.821 55.1176 159.233 55.003 159.806 55.003H164.149ZM183.38 66.0968H173.521C173.771 66.7218 174.213 67.227 174.849 67.6124C175.484 67.9978 176.349 68.1905 177.442 68.1905C178.328 68.1905 179.51 67.9978 180.989 67.6124C181.593 67.4562 182.015 67.378 182.255 67.378C182.578 67.378 182.849 67.4926 183.067 67.7218C183.286 67.9509 183.396 68.2374 183.396 68.5812C183.396 68.8937 183.276 69.1593 183.036 69.378C182.724 69.6593 181.963 69.9353 180.755 70.2062C179.547 70.4666 178.38 70.5968 177.255 70.5968C175.338 70.5968 173.802 70.0551 172.646 68.9718C171.5 67.878 170.927 66.5395 170.927 64.9562C170.927 63.2687 171.547 61.8989 172.786 60.8468C174.036 59.7843 175.474 59.253 177.099 59.253C178.078 59.253 178.974 59.4249 179.786 59.7686C180.599 60.1124 181.208 60.4822 181.614 60.878C182.177 61.4509 182.64 62.1645 183.005 63.0186C183.255 63.6124 183.38 64.2999 183.38 65.0812V66.0968ZM180.724 63.7061C180.349 63.0186 179.864 62.503 179.271 62.1593C178.677 61.8155 177.974 61.6436 177.161 61.6436C176.349 61.6436 175.646 61.8155 175.052 62.1593C174.458 62.503 173.974 63.0186 173.599 63.7061H180.724Z" fill="#A64D79"/>
<path d="M193.564 61.1749C193.564 61.6228 193.402 62.003 193.079 62.3155C192.756 62.6176 192.314 62.7686 191.751 62.7686C191.189 62.7686 190.746 62.6176 190.423 62.3155C190.11 62.003 189.954 61.6228 189.954 61.1749C189.954 60.7166 190.11 60.3364 190.423 60.0343C190.746 59.7322 191.189 59.5811 191.751 59.5811C192.314 59.5811 192.756 59.7322 193.079 60.0343C193.402 60.3364 193.564 60.7166 193.564 61.1749ZM193.579 69.0343C193.579 69.4822 193.418 69.8624 193.095 70.1749C192.782 70.477 192.345 70.628 191.782 70.628C191.22 70.628 190.777 70.477 190.454 70.1749C190.131 69.8624 189.97 69.4822 189.97 69.0343C189.97 68.5759 190.131 68.1957 190.454 67.8936C190.777 67.5916 191.22 67.4405 191.782 67.4405C192.345 67.4405 192.782 67.5916 193.095 67.8936C193.418 68.1957 193.579 68.5759 193.579 69.0343Z" fill="#434343"/>
<path d="M207.372 54.6593V67.7999H209.81C210.383 67.7999 210.789 67.9145 211.028 68.1436C211.278 68.3624 211.403 68.6489 211.403 69.003C211.403 69.3572 211.278 69.6489 211.028 69.878C210.789 70.0968 210.383 70.2061 209.81 70.2061H202.544C201.971 70.2061 201.56 70.0968 201.31 69.878C201.07 69.6489 200.95 69.3572 200.95 69.003C200.95 68.6489 201.07 68.3624 201.31 68.1436C201.56 67.9145 201.971 67.7999 202.544 67.7999H204.982V57.7843L202.825 58.3468C202.482 58.4405 202.226 58.4874 202.06 58.4874C201.758 58.4874 201.492 58.3676 201.263 58.128C201.044 57.878 200.935 57.5811 200.935 57.2374C200.935 56.9145 201.013 56.6645 201.169 56.4874C201.336 56.2999 201.685 56.1332 202.216 55.9874L207.372 54.6593ZM218.306 67.7999H223.571C223.863 67.5707 224.139 67.4561 224.399 67.4561C224.764 67.4561 225.051 67.5759 225.259 67.8155C225.478 68.0551 225.587 68.4666 225.587 69.0499V70.2061H214.649V67.6593C218.972 64.0864 221.582 61.7895 222.478 60.7686C222.936 60.2478 223.165 59.753 223.165 59.2843C223.165 58.7009 222.91 58.1853 222.399 57.7374C221.889 57.2791 221.207 57.0499 220.353 57.0499C219.488 57.0499 218.774 57.2999 218.212 57.7999C217.91 58.0707 217.67 58.4666 217.493 58.9874C217.379 59.3207 217.228 59.5603 217.04 59.7061C216.853 59.8416 216.618 59.9093 216.337 59.9093C216.004 59.9093 215.717 59.7947 215.478 59.5655C215.238 59.3259 215.118 59.0499 215.118 58.7374C215.118 58.2686 215.337 57.6853 215.774 56.9874C216.212 56.2791 216.842 55.7166 217.665 55.2999C218.498 54.8728 219.405 54.6593 220.384 54.6593C221.905 54.6593 223.149 55.1176 224.118 56.0343C225.087 56.9509 225.571 58.0603 225.571 59.3624C225.571 60.0291 225.431 60.6489 225.149 61.2218C224.868 61.7843 224.202 62.5655 223.149 63.5655C222.327 64.3468 220.712 65.7582 218.306 67.7999ZM238.38 62.1749C239.099 62.6645 239.63 63.227 239.974 63.8624C240.328 64.4978 240.505 65.2114 240.505 66.003C240.505 66.8468 240.271 67.6332 239.802 68.3624C239.343 69.0811 238.672 69.628 237.786 70.003C236.901 70.378 235.745 70.5655 234.317 70.5655C232.463 70.5655 231.067 70.2739 230.13 69.6905C229.599 69.3572 229.333 68.9666 229.333 68.5186C229.333 68.1749 229.448 67.8832 229.677 67.6436C229.916 67.4041 230.198 67.2843 230.521 67.2843C230.75 67.2843 230.984 67.3624 231.224 67.5186C231.567 67.7582 231.89 67.9145 232.192 67.9874C232.661 68.102 233.307 68.1593 234.13 68.1593C235.526 68.1593 236.536 67.977 237.161 67.6124C237.786 67.2478 238.099 66.7322 238.099 66.0655C238.099 65.5759 237.916 65.102 237.552 64.6436C237.198 64.1853 236.713 63.8311 236.099 63.5811C235.745 63.4457 235.151 63.3468 234.317 63.2843C233.922 63.2634 233.614 63.1436 233.396 62.9249C233.187 62.6957 233.083 62.4197 233.083 62.0968C233.083 61.753 233.198 61.4666 233.427 61.2374C233.666 60.9978 233.963 60.878 234.317 60.878C235.12 60.878 235.547 60.8728 235.599 60.8624C235.911 60.8311 236.224 60.7322 236.536 60.5655C236.849 60.3884 237.099 60.1489 237.286 59.8468C237.484 59.5447 237.583 59.2374 237.583 58.9249C237.583 58.4145 237.354 57.977 236.896 57.6124C236.448 57.2374 235.776 57.0499 234.88 57.0499C233.724 57.0499 232.843 57.3832 232.239 58.0499C232.052 58.2478 231.906 58.3728 231.802 58.4249C231.635 58.5082 231.453 58.5499 231.255 58.5499C230.922 58.5499 230.635 58.4353 230.396 58.2061C230.166 57.9666 230.052 57.6749 230.052 57.3311C230.052 56.7999 230.411 56.2791 231.13 55.7686C232.182 55.0291 233.489 54.6593 235.052 54.6593C236.541 54.6593 237.734 55.0811 238.63 55.9249C239.526 56.7686 239.974 57.7843 239.974 58.9718C239.974 59.5864 239.838 60.1645 239.567 60.7061C239.307 61.2374 238.911 61.727 238.38 62.1749ZM252.876 55.0343V64.4405C253.386 64.4405 253.761 64.5551 254.001 64.7843C254.251 65.003 254.376 65.2843 254.376 65.628C254.376 65.9822 254.251 66.2739 254.001 66.503C253.751 66.7322 253.376 66.8468 252.876 66.8468V67.7999C253.386 67.7999 253.761 67.9145 254.001 68.1436C254.251 68.3728 254.376 68.6593 254.376 69.003C254.376 69.3572 254.251 69.6489 254.001 69.878C253.751 70.0968 253.34 70.2061 252.767 70.2061H249.548C248.965 70.2061 248.548 70.0968 248.298 69.878C248.058 69.6489 247.939 69.3572 247.939 69.003C247.939 68.6489 248.058 68.3624 248.298 68.1436C248.548 67.9145 248.965 67.7999 249.548 67.7999H250.485V66.8468H243.954V64.8311L249.704 55.0343H252.876ZM250.485 64.4405V58.5343L247.001 64.4405H250.485ZM261.747 57.4405V60.2999C262.633 60.0186 263.44 59.878 264.169 59.878C265.648 59.878 266.872 60.3832 267.841 61.3936C268.82 62.4041 269.31 63.7061 269.31 65.2999C269.31 66.9353 268.815 68.2218 267.825 69.1593C266.836 70.0968 265.325 70.5655 263.294 70.5655C261.492 70.5655 260.07 70.2218 259.028 69.5343C258.414 69.1489 258.106 68.7009 258.106 68.1905C258.106 67.8676 258.226 67.5864 258.466 67.3468C258.705 67.1072 258.987 66.9874 259.31 66.9874C259.591 66.9874 259.888 67.1228 260.2 67.3936C260.523 67.6541 260.862 67.8311 261.216 67.9249C261.716 68.0811 262.356 68.1593 263.138 68.1593C264.586 68.1593 265.575 67.9249 266.106 67.4561C266.638 66.9874 266.903 66.2739 266.903 65.3155C266.903 64.3676 266.648 63.628 266.138 63.0968C265.627 62.5551 264.971 62.2843 264.169 62.2843C263.304 62.2843 262.315 62.5655 261.2 63.128C260.95 63.2634 260.731 63.3311 260.544 63.3311C260.2 63.3311 259.914 63.2061 259.685 62.9561C259.455 62.7061 259.341 62.378 259.341 61.9718V55.0343H266.685C267.268 55.0343 267.679 55.1489 267.919 55.378C268.169 55.5968 268.294 55.8884 268.294 56.253C268.294 56.5968 268.169 56.8832 267.919 57.1124C267.679 57.3311 267.268 57.4405 266.685 57.4405H261.747ZM275.915 62.003C276.488 61.5134 277.035 61.1593 277.556 60.9405C278.087 60.7218 278.649 60.6124 279.243 60.6124C280.493 60.6124 281.592 61.1124 282.54 62.1124C283.488 63.1124 283.962 64.3624 283.962 65.8624C283.962 67.2686 283.519 68.4041 282.634 69.2686C281.759 70.1332 280.566 70.5655 279.056 70.5655C277.806 70.5655 276.774 70.2739 275.962 69.6905C275.149 69.0968 274.535 68.1905 274.118 66.9718C273.702 65.753 273.493 64.3936 273.493 62.8936C273.493 61.0916 273.905 59.5968 274.728 58.4093C275.551 57.2218 276.514 56.2999 277.618 55.6436C278.733 54.9874 279.905 54.6593 281.134 54.6593C282.113 54.6593 282.873 54.8468 283.415 55.2218C283.759 55.4822 283.931 55.8103 283.931 56.2061C283.931 56.5603 283.811 56.8572 283.571 57.0968C283.342 57.3364 283.066 57.4561 282.743 57.4561C282.556 57.4561 282.285 57.3624 281.931 57.1749C281.722 57.0603 281.519 57.003 281.321 57.003C280.561 57.003 279.769 57.2218 278.946 57.6593C278.123 58.0968 277.41 58.7634 276.806 59.6593C276.399 60.2843 276.103 61.0655 275.915 62.003ZM276.259 65.7218C276.509 66.6593 276.847 67.2999 277.274 67.6436C277.702 67.9874 278.311 68.1593 279.103 68.1593C279.884 68.1593 280.488 67.9509 280.915 67.5343C281.342 67.1176 281.556 66.5551 281.556 65.8468C281.556 65.0343 281.311 64.3572 280.821 63.8155C280.332 63.2739 279.785 63.003 279.181 63.003C278.691 63.003 278.17 63.2426 277.618 63.7218C277.077 64.2009 276.623 64.8676 276.259 65.7218ZM295.052 57.4405H289.552C289.521 57.9093 289.396 58.2478 289.177 58.4561C288.968 58.6645 288.692 58.7686 288.349 58.7686C287.995 58.7686 287.703 58.6489 287.474 58.4093C287.255 58.1593 287.146 57.7478 287.146 57.1749V55.0343H297.583V57.4405L293.692 69.0186C293.526 69.5082 293.343 69.8364 293.146 70.003C292.948 70.1593 292.708 70.2374 292.427 70.2374C292.083 70.2374 291.791 70.1176 291.552 69.878C291.323 69.6384 291.208 69.3676 291.208 69.0655C291.208 68.8989 291.271 68.628 291.396 68.253L295.052 57.4405ZM310.376 62.5343C310.991 63.003 311.449 63.5447 311.751 64.1593C312.064 64.7634 312.22 65.4249 312.22 66.1436C312.22 66.9561 312.022 67.7009 311.626 68.378C311.241 69.0447 310.626 69.5759 309.782 69.9718C308.939 70.3676 308.001 70.5655 306.97 70.5655C305.939 70.5655 305.006 70.3676 304.173 69.9718C303.35 69.5759 302.741 69.0395 302.345 68.3624C301.949 67.6853 301.751 66.9457 301.751 66.1436C301.751 65.4249 301.902 64.7634 302.204 64.1593C302.517 63.5447 302.98 63.003 303.595 62.5343C303.064 62.0343 302.657 61.503 302.376 60.9405C302.105 60.378 301.97 59.7843 301.97 59.1593C301.97 57.9301 302.439 56.8728 303.376 55.9874C304.314 55.102 305.517 54.6593 306.985 54.6593C308.454 54.6593 309.657 55.102 310.595 55.9874C311.532 56.8728 312.001 57.9301 312.001 59.1593C312.001 59.7843 311.866 60.378 311.595 60.9405C311.324 61.503 310.918 62.0343 310.376 62.5343ZM309.548 59.2061C309.548 58.6124 309.314 58.1072 308.845 57.6905C308.376 57.2634 307.751 57.0499 306.97 57.0499C306.168 57.0499 305.532 57.2634 305.064 57.6905C304.605 58.1072 304.376 58.6124 304.376 59.2061C304.376 59.7999 304.605 60.3103 305.064 60.7374C305.532 61.1541 306.168 61.3624 306.97 61.3624C307.751 61.3624 308.376 61.1541 308.845 60.7374C309.314 60.3103 309.548 59.7999 309.548 59.2061ZM309.829 66.2686C309.829 65.6332 309.553 65.0603 309.001 64.5499C308.459 64.0395 307.787 63.7843 306.985 63.7843C306.183 63.7843 305.511 64.0395 304.97 64.5499C304.428 65.0603 304.157 65.6384 304.157 66.2843C304.157 66.7843 304.392 67.2218 304.86 67.5968C305.329 67.9718 306.037 68.1593 306.985 68.1593C307.944 68.1593 308.657 67.9718 309.126 67.5968C309.595 67.2218 309.829 66.7791 309.829 66.2686ZM324.747 63.8936C324.153 64.4145 323.606 64.7843 323.106 65.003C322.606 65.2114 322.075 65.3155 321.513 65.3155C320.231 65.3155 319.106 64.7999 318.138 63.7686C317.169 62.7374 316.685 61.4561 316.685 59.9249C316.685 58.727 317.018 57.6436 317.685 56.6749C318.591 55.3311 319.867 54.6593 321.513 54.6593C322.7 54.6593 323.731 55.0134 324.606 55.7218C325.492 56.4197 326.143 57.4353 326.56 58.7686C326.976 60.102 327.185 61.4926 327.185 62.9405C327.185 65.3884 326.231 67.3572 324.325 68.8468C322.856 69.9926 321.247 70.5655 319.497 70.5655C318.528 70.5655 317.778 70.3676 317.247 69.9718C316.893 69.7114 316.716 69.3728 316.716 68.9561C316.716 68.6124 316.83 68.3259 317.06 68.0968C317.289 67.8572 317.57 67.7374 317.903 67.7374C318.091 67.7374 318.304 67.7999 318.544 67.9249C318.846 68.0811 319.164 68.1593 319.497 68.1593C320.716 68.1593 321.836 67.7478 322.856 66.9249C323.877 66.0916 324.508 65.0811 324.747 63.8936ZM324.419 60.1124C324.159 59.0082 323.773 58.2218 323.263 57.753C322.763 57.2843 322.19 57.0499 321.544 57.0499C320.867 57.0499 320.289 57.3103 319.81 57.8311C319.33 58.352 319.091 59.0447 319.091 59.9093C319.091 60.8051 319.33 61.5291 319.81 62.0811C320.289 62.6332 320.841 62.9093 321.466 62.9093C322.549 62.9093 323.534 61.977 324.419 60.1124ZM337.931 70.2061V69.6436C337.337 69.9666 336.676 70.2061 335.946 70.3624C335.217 70.5291 334.556 70.6124 333.962 70.6124C332.67 70.6124 331.623 70.2686 330.821 69.5811C330.019 68.8936 329.618 68.1384 329.618 67.3155C329.618 66.3051 330.129 65.3676 331.149 64.503C332.181 63.6384 333.603 63.2061 335.415 63.2061C336.144 63.2061 336.983 63.2843 337.931 63.4405V62.8624C337.931 62.5082 337.774 62.2166 337.462 61.9874C337.16 61.7582 336.577 61.6436 335.712 61.6436C335.004 61.6436 334.082 61.7843 332.946 62.0655C332.519 62.1697 332.191 62.2218 331.962 62.2218C331.639 62.2218 331.363 62.1072 331.134 61.878C330.915 61.6489 330.806 61.352 330.806 60.9874C330.806 60.7895 330.842 60.6176 330.915 60.4718C330.998 60.3155 331.108 60.1957 331.243 60.1124C331.389 60.0186 331.686 59.9093 332.134 59.7843C332.728 59.6176 333.332 59.4874 333.946 59.3936C334.571 59.2999 335.134 59.253 335.634 59.253C337.123 59.253 338.28 59.5759 339.103 60.2218C339.926 60.8572 340.337 61.7374 340.337 62.8624V67.7999H340.743C341.327 67.7999 341.738 67.9145 341.978 68.1436C342.228 68.3624 342.353 68.6489 342.353 69.003C342.353 69.3572 342.228 69.6489 341.978 69.878C341.738 70.0968 341.327 70.2061 340.743 70.2061H337.931ZM337.931 65.9093C336.972 65.7218 336.087 65.628 335.274 65.628C334.295 65.628 333.457 65.8624 332.759 66.3311C332.321 66.6436 332.103 66.9561 332.103 67.2686C332.103 67.4874 332.207 67.6697 332.415 67.8155C332.811 68.0759 333.347 68.2061 334.024 68.2061C334.597 68.2061 335.248 68.0916 335.978 67.8624C336.717 67.6332 337.368 67.3259 337.931 66.9405V65.9093ZM347.146 55.003V60.3936C347.729 60.0082 348.323 59.7218 348.927 59.5343C349.541 59.3468 350.156 59.253 350.771 59.253C352.437 59.253 353.849 59.8259 355.005 60.9718C356.161 62.1176 356.739 63.503 356.739 65.128C356.739 66.6801 356.187 67.9822 355.083 69.0343C353.979 70.0759 352.526 70.5968 350.724 70.5968C350.078 70.5968 349.458 70.5134 348.864 70.3468C348.271 70.1801 347.698 69.9353 347.146 69.6124V70.2061H344.333C343.76 70.2061 343.349 70.0968 343.099 69.878C342.849 69.6489 342.724 69.3572 342.724 69.003C342.724 68.6489 342.849 68.3624 343.099 68.1436C343.349 67.9145 343.76 67.7999 344.333 67.7999H344.739V57.4093H344.333C343.76 57.4093 343.349 57.2999 343.099 57.0811C342.849 56.852 342.724 56.5603 342.724 56.2061C342.724 55.852 342.849 55.5655 343.099 55.3468C343.349 55.1176 343.76 55.003 344.333 55.003H347.146ZM354.333 65.2061C354.333 64.2061 353.984 63.3624 353.286 62.6749C352.588 61.9874 351.739 61.6436 350.739 61.6436C349.739 61.6436 348.89 61.9874 348.192 62.6749C347.495 63.3624 347.146 64.1905 347.146 65.1593C347.146 66.0447 347.458 66.7739 348.083 67.3468C348.708 67.9093 349.593 68.1905 350.739 68.1905C351.875 68.1905 352.755 67.9093 353.38 67.3468C354.015 66.7739 354.333 66.0603 354.333 65.2061ZM368.329 60.003C368.61 59.7218 368.907 59.5811 369.22 59.5811C369.564 59.5811 369.845 59.7061 370.064 59.9561C370.282 60.2061 370.392 60.6124 370.392 61.1749V62.7218C370.392 63.3051 370.282 63.7166 370.064 63.9561C369.845 64.1957 369.553 64.3155 369.189 64.3155C368.866 64.3155 368.59 64.2218 368.36 64.0343C368.194 63.8989 368.064 63.6176 367.97 63.1905C367.876 62.753 367.652 62.4249 367.298 62.2061C366.662 61.8311 365.85 61.6436 364.86 61.6436C363.735 61.6436 362.829 61.977 362.142 62.6436C361.454 63.3103 361.11 64.1489 361.11 65.1593C361.11 66.0968 361.439 66.8416 362.095 67.3936C362.751 67.9353 363.845 68.2061 365.376 68.2061C366.376 68.2061 367.189 68.102 367.814 67.8936C368.189 67.7686 368.543 67.5551 368.876 67.253C369.22 66.9509 369.527 66.7999 369.798 66.7999C370.131 66.7999 370.412 66.9249 370.642 67.1749C370.881 67.4145 371.001 67.6957 371.001 68.0186C371.001 68.5499 370.642 69.0551 369.923 69.5343C368.84 70.253 367.261 70.6124 365.189 70.6124C363.314 70.6124 361.86 70.2218 360.829 69.4405C359.423 68.3989 358.72 66.977 358.72 65.1749C358.72 63.4666 359.287 62.0551 360.423 60.9405C361.569 59.8155 363.058 59.253 364.892 59.253C365.558 59.253 366.173 59.3155 366.735 59.4405C367.308 59.5655 367.84 59.753 368.329 60.003ZM384.497 55.003V67.7999H384.903C385.476 67.7999 385.888 67.9145 386.138 68.1436C386.388 68.3624 386.513 68.6489 386.513 69.003C386.513 69.3572 386.388 69.6489 386.138 69.878C385.898 70.0968 385.487 70.2061 384.903 70.2061H382.091V69.6124C381.549 69.9353 380.976 70.1801 380.372 70.3468C379.778 70.5134 379.159 70.5968 378.513 70.5968C376.711 70.5968 375.258 70.0759 374.153 69.0343C373.06 67.9822 372.513 66.6801 372.513 65.128C372.513 63.503 373.091 62.1176 374.247 60.9718C375.403 59.8259 376.81 59.253 378.466 59.253C379.091 59.253 379.705 59.3468 380.31 59.5343C380.914 59.7218 381.508 60.0082 382.091 60.3936V57.4093H381.685C381.101 57.4093 380.685 57.2999 380.435 57.0811C380.195 56.852 380.075 56.5603 380.075 56.2061C380.075 55.852 380.195 55.5655 380.435 55.3468C380.685 55.1176 381.101 55.003 381.685 55.003H384.497ZM382.091 65.2061C382.091 64.2061 381.742 63.3624 381.044 62.6749C380.356 61.9874 379.508 61.6436 378.497 61.6436C377.497 61.6436 376.648 61.9874 375.95 62.6749C375.252 63.3624 374.903 64.1905 374.903 65.1593C374.903 66.0447 375.216 66.7739 375.841 67.3468C376.466 67.9093 377.351 68.1905 378.497 68.1905C379.633 68.1905 380.513 67.9093 381.138 67.3468C381.773 66.7739 382.091 66.0603 382.091 65.2061ZM399.415 66.0968H389.556C389.806 66.7218 390.248 67.227 390.884 67.6124C391.519 67.9978 392.384 68.1905 393.478 68.1905C394.363 68.1905 395.545 67.9978 397.024 67.6124C397.629 67.4561 398.051 67.378 398.29 67.378C398.613 67.378 398.884 67.4926 399.103 67.7218C399.321 67.9509 399.431 68.2374 399.431 68.5811C399.431 68.8936 399.311 69.1593 399.071 69.378C398.759 69.6593 397.998 69.9353 396.79 70.2061C395.582 70.4666 394.415 70.5968 393.29 70.5968C391.373 70.5968 389.837 70.0551 388.681 68.9718C387.535 67.878 386.962 66.5395 386.962 64.9561C386.962 63.2686 387.582 61.8989 388.821 60.8468C390.071 59.7843 391.509 59.253 393.134 59.253C394.113 59.253 395.009 59.4249 395.821 59.7686C396.634 60.1124 397.243 60.4822 397.649 60.878C398.212 61.4509 398.676 62.1645 399.04 63.0186C399.29 63.6124 399.415 64.2999 399.415 65.0811V66.0968ZM396.759 63.7061C396.384 63.0186 395.899 62.503 395.306 62.1593C394.712 61.8155 394.009 61.6436 393.196 61.6436C392.384 61.6436 391.681 61.8155 391.087 62.1593C390.493 62.503 390.009 63.0186 389.634 63.7061H396.759ZM407.771 61.9718V67.7999H411.192C411.765 67.7999 412.177 67.9145 412.427 68.1436C412.677 68.3624 412.802 68.6489 412.802 69.003C412.802 69.3572 412.677 69.6489 412.427 69.878C412.177 70.0968 411.765 70.2061 411.192 70.2061H403.942C403.359 70.2061 402.942 70.0968 402.692 69.878C402.453 69.6489 402.333 69.3572 402.333 69.003C402.333 68.6489 402.453 68.3624 402.692 68.1436C402.942 67.9145 403.359 67.7999 403.942 67.7999H405.364V61.9718H404.224C403.64 61.9718 403.224 61.8624 402.974 61.6436C402.734 61.4145 402.614 61.1176 402.614 60.753C402.614 60.4093 402.734 60.128 402.974 59.9093C403.224 59.6801 403.64 59.5655 404.224 59.5655H405.364V58.6436C405.364 57.602 405.755 56.7374 406.536 56.0499C407.328 55.352 408.468 55.003 409.958 55.003C410.625 55.003 411.39 55.0655 412.255 55.1905C413.13 55.3051 413.687 55.4718 413.927 55.6905C414.177 55.9093 414.302 56.1905 414.302 56.5343C414.302 56.9093 414.192 57.2114 413.974 57.4405C413.755 57.6697 413.489 57.7843 413.177 57.7843C413.021 57.7843 412.797 57.7582 412.505 57.7061C411.515 57.5082 410.635 57.4093 409.864 57.4093C409.073 57.4093 408.526 57.5291 408.224 57.7686C407.922 58.0082 407.771 58.2999 407.771 58.6436V59.5655H411.474C412.047 59.5655 412.458 59.6801 412.708 59.9093C412.958 60.128 413.083 60.4145 413.083 60.7686C413.083 61.1228 412.958 61.4145 412.708 61.6436C412.458 61.8624 412.047 61.9718 411.474 61.9718H407.771ZM424.829 60.2843V59.5655H427.642C428.225 59.5655 428.636 59.6801 428.876 59.9093C429.126 60.128 429.251 60.4145 429.251 60.7686C429.251 61.1228 429.126 61.4145 428.876 61.6436C428.636 61.8624 428.225 61.9718 427.642 61.9718H427.235V70.7061C427.235 71.5499 427.058 72.2843 426.704 72.9093C426.35 73.5447 425.803 74.0864 425.064 74.5343C424.334 74.9926 423.506 75.2218 422.579 75.2218H419.86C419.287 75.2218 418.876 75.1072 418.626 74.878C418.376 74.6593 418.251 74.378 418.251 74.0343C418.251 73.6697 418.376 73.3728 418.626 73.1436C418.876 72.9249 419.287 72.8155 419.86 72.8155H422.517C423.246 72.8155 423.814 72.6176 424.22 72.2218C424.626 71.8259 424.829 71.3207 424.829 70.7061V69.5343C424.298 69.878 423.756 70.1332 423.204 70.2999C422.652 70.477 422.09 70.5655 421.517 70.5655C419.881 70.5655 418.511 70.0239 417.407 68.9405C416.314 67.8468 415.767 66.4978 415.767 64.8936C415.767 63.2895 416.314 61.9405 417.407 60.8468C418.511 59.753 419.881 59.2061 421.517 59.2061C422.121 59.2061 422.699 59.2947 423.251 59.4718C423.803 59.6489 424.329 59.9197 424.829 60.2843ZM424.814 64.878C424.814 64.003 424.485 63.2426 423.829 62.5968C423.183 61.9405 422.402 61.6124 421.485 61.6124C420.579 61.6124 419.798 61.9405 419.142 62.5968C418.485 63.2426 418.157 64.003 418.157 64.878C418.157 65.7739 418.485 66.5447 419.142 67.1905C419.798 67.8364 420.579 68.1593 421.485 68.1593C422.402 68.1593 423.183 67.8364 423.829 67.1905C424.485 66.5447 424.814 65.7739 424.814 64.878ZM434.106 55.003V60.128C434.606 59.8259 435.112 59.6072 435.622 59.4718C436.143 59.3259 436.664 59.253 437.185 59.253C438.008 59.253 438.742 59.3936 439.388 59.6749C440.044 59.9561 440.586 60.3989 441.013 61.003C441.44 61.6072 441.653 62.3676 441.653 63.2843V67.7999C442.258 67.7999 442.653 67.8572 442.841 67.9718C443.216 68.2218 443.403 68.5655 443.403 69.003C443.403 69.3572 443.284 69.6489 443.044 69.878C442.804 70.0968 442.393 70.2061 441.81 70.2061H439.075C438.502 70.2061 438.091 70.0968 437.841 69.878C437.601 69.6489 437.481 69.3572 437.481 69.003C437.481 68.5655 437.669 68.2218 438.044 67.9718C438.231 67.8468 438.627 67.7895 439.231 67.7999V63.4561C439.231 62.8416 439.091 62.4093 438.81 62.1593C438.445 61.8155 437.903 61.6436 437.185 61.6436C436.653 61.6436 436.179 61.7478 435.763 61.9561C435.356 62.1645 434.804 62.6124 434.106 63.2999V67.7999C434.731 67.7999 435.133 67.8572 435.31 67.9718C435.695 68.2218 435.888 68.5655 435.888 69.003C435.888 69.3572 435.763 69.6489 435.513 69.878C435.263 70.0968 434.851 70.2061 434.278 70.2061H431.544C430.971 70.2061 430.56 70.0968 430.31 69.878C430.06 69.6489 429.935 69.3572 429.935 69.003C429.935 68.5655 430.127 68.2218 430.513 67.9718C430.7 67.8468 431.101 67.7895 431.716 67.7999V57.4093H431.294C430.721 57.4093 430.31 57.2999 430.06 57.0811C429.82 56.852 429.7 56.5603 429.7 56.2061C429.7 55.852 429.82 55.5655 430.06 55.3468C430.31 55.1176 430.721 55.003 431.294 55.003H434.106ZM451.853 55.003V57.5499H448.993V55.003H451.853ZM452.181 59.5655V67.7999H455.071C455.644 67.7999 456.051 67.9145 456.29 68.1436C456.54 68.3624 456.665 68.6489 456.665 69.003C456.665 69.3572 456.54 69.6489 456.29 69.878C456.051 70.0968 455.644 70.2061 455.071 70.2061H446.899C446.316 70.2061 445.899 70.0968 445.649 69.878C445.41 69.6489 445.29 69.3572 445.29 69.003C445.29 68.6489 445.41 68.3624 445.649 68.1436C445.899 67.9145 446.316 67.7999 446.899 67.7999H449.774V61.9718H447.853C447.28 61.9718 446.868 61.8624 446.618 61.6436C446.368 61.4145 446.243 61.1176 446.243 60.753C446.243 60.4093 446.363 60.128 446.603 59.9093C446.853 59.6801 447.269 59.5655 447.853 59.5655H452.181Z" fill="#6AA84F"/>
<path d="M21.9277 21.8764C21.9277 21.366 21.7454 20.9754 21.3809 20.7046C21.0163 20.4233 20.36 20.1316 19.4121 19.8296C18.4642 19.5171 17.7142 19.2098 17.1621 18.9077C15.6517 18.0952 14.8965 17.0014 14.8965 15.6264C14.8965 14.9077 15.0996 14.2671 15.5059 13.7046C15.9121 13.1421 16.4902 12.7046 17.2402 12.3921C18.0007 12.0691 18.8548 11.9077 19.8027 11.9077C20.7402 11.9077 21.5788 12.0796 22.3184 12.4233C23.0684 12.7671 23.6465 13.2514 24.0527 13.8764C24.459 14.5014 24.6621 15.215 24.6621 16.0171H21.9434C21.9434 15.4129 21.7507 14.9441 21.3652 14.6108C20.9798 14.2671 20.4434 14.0952 19.7559 14.0952C19.0788 14.0952 18.5527 14.2358 18.1777 14.5171C17.8132 14.7983 17.6309 15.1681 17.6309 15.6264C17.6309 16.0639 17.8496 16.4285 18.2871 16.7202C18.7246 17.0119 19.3652 17.2827 20.209 17.5327C21.7611 18.0014 22.8913 18.5848 23.5996 19.2827C24.3079 19.9702 24.6621 20.8296 24.6621 21.8608C24.6621 23.0066 24.2298 23.9077 23.3652 24.5639C22.5007 25.2202 21.334 25.5483 19.8652 25.5483C18.8444 25.5483 17.9121 25.3608 17.0684 24.9858C16.235 24.6108 15.5944 24.1004 15.1465 23.4546C14.709 22.7983 14.4902 22.0431 14.4902 21.1889H17.2402C17.2402 22.6473 18.1152 23.3764 19.8652 23.3764C20.5111 23.3764 21.0163 23.2462 21.3809 22.9858C21.7454 22.7254 21.9277 22.3556 21.9277 21.8764ZM30.4435 23.4233C30.933 23.4233 31.3289 23.2931 31.631 23.0327C31.9331 22.7619 32.0893 22.4025 32.0997 21.9546H34.5685C34.5685 22.6212 34.3862 23.2358 34.0216 23.7983C33.6674 24.3504 33.1778 24.7827 32.5528 25.0952C31.9278 25.3973 31.2403 25.5483 30.4903 25.5483C29.0841 25.5483 27.9695 25.1004 27.1466 24.2046C26.3341 23.3087 25.9278 22.0691 25.9278 20.4858V20.3139C25.9278 18.7931 26.3341 17.5848 27.1466 16.6889C27.9591 15.7827 29.0685 15.3296 30.4747 15.3296C31.7039 15.3296 32.6883 15.6785 33.4278 16.3764C34.1778 17.0744 34.558 18.0066 34.5685 19.1733H32.0997C32.0893 18.6629 31.9331 18.2514 31.631 17.9389C31.3289 17.616 30.9278 17.4546 30.4278 17.4546C29.8133 17.4546 29.3497 17.6785 29.0372 18.1264C28.7247 18.5744 28.5685 19.2983 28.5685 20.2983V20.5639C28.5685 21.5848 28.7195 22.3191 29.0216 22.7671C29.3341 23.2046 29.808 23.4233 30.4435 23.4233ZM38.6412 16.5796C39.3391 15.7462 40.2193 15.3296 41.2818 15.3296C43.4172 15.3296 44.5005 16.5691 44.5318 19.0483V25.3608H41.8912V19.1264C41.8912 18.5535 41.7714 18.1369 41.5318 17.8764C41.2922 17.6056 40.886 17.4702 40.313 17.4702C39.5422 17.4702 38.9849 17.7671 38.6412 18.3608V25.3608H36.0162V11.3608H38.6412V16.5796ZM51.0494 25.5483C49.6015 25.5483 48.4244 25.1056 47.5181 24.2202C46.6119 23.3244 46.1588 22.1421 46.1588 20.6733V20.4077C46.1588 19.4181 46.3463 18.5379 46.7213 17.7671C47.1067 16.9858 47.6484 16.3869 48.3463 15.9702C49.0546 15.5431 49.8567 15.3296 50.7525 15.3296C52.1067 15.3296 53.1692 15.7566 53.94 16.6108C54.7109 17.4546 55.0963 18.6577 55.0963 20.2202V21.2827H48.8306C48.914 21.9285 49.1692 22.4494 49.5963 22.8452C50.0234 23.2306 50.565 23.4233 51.2213 23.4233C52.2317 23.4233 53.0234 23.0535 53.5963 22.3139L54.8931 23.7671C54.4973 24.3296 53.9609 24.7671 53.2838 25.0796C52.6171 25.3921 51.8723 25.5483 51.0494 25.5483ZM50.7525 17.4546C50.2317 17.4546 49.8046 17.6316 49.4713 17.9858C49.1484 18.34 48.9452 18.8452 48.8619 19.5014H52.5181V19.2827C52.5077 18.6994 52.3463 18.2514 52.0338 17.9389C51.7317 17.616 51.3046 17.4546 50.7525 17.4546ZM59.0711 15.5014L59.1492 16.6108C59.8471 15.7566 60.7899 15.3296 61.9774 15.3296C63.2482 15.3296 64.1232 15.8296 64.6024 16.8296C65.2899 15.8296 66.2742 15.3296 67.5555 15.3296C68.6284 15.3296 69.4253 15.6421 69.9461 16.2671C70.4669 16.8816 70.7274 17.8139 70.7274 19.0639V25.3608H68.0867V19.0796C68.0867 18.5171 67.9774 18.1108 67.7586 17.8608C67.5399 17.6004 67.1544 17.4702 66.6024 17.4702C65.8107 17.4702 65.2638 17.8452 64.9617 18.5952V25.3608H62.3367V19.0796C62.3367 18.5171 62.2221 18.1108 61.993 17.8608C61.7742 17.6004 61.394 17.4702 60.8524 17.4702C60.1024 17.4702 59.5607 17.7775 59.2274 18.3921V25.3608H56.6024V15.5014H59.0711V15.5014ZM77.2847 25.5483C75.8368 25.5483 74.6597 25.1056 73.7535 24.2202C72.8472 23.3244 72.3941 22.1421 72.3941 20.6733V20.4077C72.3941 19.4181 72.5816 18.5379 72.9566 17.7671C73.342 16.9858 73.8837 16.3869 74.5816 15.9702C75.29 15.5431 76.092 15.3296 76.9879 15.3296C78.342 15.3296 79.4045 15.7566 80.1754 16.6108C80.9462 17.4546 81.3316 18.6577 81.3316 20.2202V21.2827H75.066C75.1493 21.9285 75.4045 22.4494 75.8316 22.8452C76.2587 23.2306 76.8004 23.4233 77.4566 23.4233C78.467 23.4233 79.2587 23.0535 79.8316 22.3139L81.1285 23.7671C80.7327 24.3296 80.1962 24.7671 79.5191 25.0796C78.8525 25.3921 78.1077 25.5483 77.2847 25.5483ZM76.9879 17.4546C76.467 17.4546 76.04 17.6316 75.7066 17.9858C75.3837 18.34 75.1806 18.8452 75.0972 19.5014H78.7535V19.2827C78.7431 18.6994 78.5816 18.2514 78.2691 17.9389C77.967 17.616 77.54 17.4546 76.9879 17.4546Z" fill="#3C78D8"/>
<path d="M29.7279 50.553C29.7279 45.2737 30.4412 40.994 31.321 40.994H46.245C47.1249 40.994 47.8381 36.7142 47.8381 31.4349C47.8381 36.7142 48.5514 40.994 49.4313 40.994H64.3553C65.2351 40.994 65.9484 45.2737 65.9484 50.553" stroke="#666666" stroke-width="3" stroke-miterlimit="10" stroke-linejoin="round"/>
<path d="M181.93 79.7764C181.93 84.5078 181.291 88.3433 180.503 88.3433H136.114C135.325 88.3433 134.686 92.1788 134.686 96.9102C134.686 92.1788 134.047 88.3433 133.258 88.3433H88.8699C88.0814 88.3433 87.4421 84.5078 87.4421 79.7764" stroke="#666666" stroke-width="3" stroke-miterlimit="10" stroke-linejoin="round"/>
<path d="M457 80C457 84.6944 456.418 88.5 455.699 88.5H330.801C330.082 88.5 329.5 92.3056 329.5 97C329.5 92.3056 328.918 88.5 328.199 88.5H203.301C202.582 88.5 202 84.6944 202 80" stroke="#666666" stroke-width="3" stroke-miterlimit="10" stroke-linejoin="round"/>
<path d="M86.934 117.155V103.889H91.0121C92.1788 103.889 93.2204 104.155 94.1371 104.686C95.0642 105.207 95.7829 105.952 96.2933 106.92C96.8142 107.889 97.0746 108.988 97.0746 110.217V110.827C97.0746 112.066 96.8194 113.165 96.309 114.123C95.7985 115.082 95.0798 115.827 94.1527 116.358C93.236 116.879 92.1996 117.144 91.0433 117.155H86.934ZM89.6683 106.108V114.952H90.9808C92.0538 114.952 92.8715 114.603 93.434 113.905C93.9965 113.207 94.2829 112.212 94.2933 110.92V110.217C94.2933 108.863 94.0121 107.842 93.4496 107.155C92.8975 106.457 92.085 106.108 91.0121 106.108H89.6683ZM101.965 117.155H99.2306V103.889H101.965V117.155ZM104.497 117.155V103.889H108.575C109.742 103.889 110.784 104.155 111.7 104.686C112.627 105.207 113.346 105.952 113.856 106.92C114.377 107.889 114.638 108.988 114.638 110.217V110.827C114.638 112.066 114.382 113.165 113.872 114.123C113.362 115.082 112.643 115.827 111.716 116.358C110.799 116.879 109.763 117.144 108.606 117.155H104.497ZM107.231 106.108V114.952H108.544C109.617 114.952 110.435 114.603 110.997 113.905C111.56 113.207 111.846 112.212 111.856 110.92V110.217C111.856 108.863 111.575 107.842 111.013 107.155C110.461 106.457 109.648 106.108 108.575 106.108H107.231ZM124.83 103.889L128.236 113.514L131.627 103.889H135.221V117.155H132.471V113.53L132.752 107.264L129.174 117.155H127.299L123.721 107.28L124.002 113.53V117.155H121.268V103.889H124.83V103.889ZM141.969 117.342C140.522 117.342 139.344 116.9 138.438 116.014C137.532 115.118 137.079 113.936 137.079 112.467V112.202C137.079 111.212 137.266 110.332 137.641 109.561C138.027 108.78 138.568 108.181 139.266 107.764C139.975 107.337 140.777 107.123 141.673 107.123C143.027 107.123 144.089 107.551 144.86 108.405C145.631 109.248 146.016 110.452 146.016 112.014V113.077H139.751C139.834 113.722 140.089 114.243 140.516 114.639C140.943 115.025 141.485 115.217 142.141 115.217C143.152 115.217 143.943 114.847 144.516 114.108L145.813 115.561C145.417 116.123 144.881 116.561 144.204 116.873C143.537 117.186 142.792 117.342 141.969 117.342ZM141.673 109.248C141.152 109.248 140.725 109.426 140.391 109.78C140.068 110.134 139.865 110.639 139.782 111.295H143.438V111.077C143.428 110.493 143.266 110.045 142.954 109.733C142.652 109.41 142.225 109.248 141.673 109.248ZM150.663 104.873V107.295H152.351V109.233H150.663V114.155C150.663 114.519 150.731 114.78 150.866 114.936C151.012 115.092 151.283 115.17 151.679 115.17C151.97 115.17 152.231 115.15 152.46 115.108V117.108C151.939 117.264 151.408 117.342 150.866 117.342C149.012 117.342 148.069 116.41 148.038 114.545V109.233H146.601V107.295H148.038V104.873H150.663ZM156.389 108.373C157.087 107.54 157.967 107.123 159.029 107.123C161.165 107.123 162.248 108.363 162.279 110.842V117.155H159.639V110.92C159.639 110.347 159.519 109.931 159.279 109.67C159.04 109.4 158.633 109.264 158.061 109.264C157.29 109.264 156.732 109.561 156.389 110.155V117.155H153.764V103.155H156.389V108.373ZM163.844 112.139C163.844 111.16 164.031 110.29 164.406 109.53C164.792 108.759 165.339 108.165 166.047 107.748C166.755 107.332 167.573 107.123 168.5 107.123C169.833 107.123 170.922 107.53 171.766 108.342C172.609 109.155 173.078 110.259 173.172 111.655L173.188 112.327C173.188 113.837 172.766 115.051 171.922 115.967C171.078 116.884 169.943 117.342 168.516 117.342C167.099 117.342 165.964 116.889 165.109 115.983C164.266 115.066 163.844 113.821 163.844 112.248V112.139ZM166.484 112.327C166.484 113.264 166.662 113.983 167.016 114.483C167.37 114.972 167.875 115.217 168.531 115.217C169.167 115.217 169.662 114.972 170.016 114.483C170.38 113.993 170.563 113.212 170.563 112.139C170.563 111.222 170.38 110.514 170.016 110.014C169.662 109.504 169.156 109.248 168.5 109.248C167.865 109.248 167.37 109.498 167.016 109.998C166.662 110.498 166.484 111.275 166.484 112.327ZM174.393 112.155C174.393 110.613 174.736 109.389 175.424 108.483C176.122 107.577 177.07 107.123 178.268 107.123C179.226 107.123 180.018 107.478 180.643 108.186V103.155H183.283V117.155H180.908L180.783 116.108C180.127 116.931 179.283 117.342 178.252 117.342C177.085 117.342 176.148 116.884 175.439 115.967C174.742 115.051 174.393 113.78 174.393 112.155ZM177.033 112.342C177.033 113.269 177.195 113.978 177.518 114.467C177.841 114.957 178.309 115.202 178.924 115.202C179.736 115.202 180.309 114.858 180.643 114.17V110.28C180.309 109.603 179.742 109.264 178.939 109.264C177.669 109.264 177.033 110.29 177.033 112.342Z" fill="#A64D79"/>
<path d="M205.021 117.293V104.028H209.099C210.266 104.028 211.308 104.293 212.224 104.824C213.151 105.345 213.87 106.09 214.38 107.059C214.901 108.028 215.162 109.126 215.162 110.356V110.965C215.162 112.205 214.906 113.304 214.396 114.262C213.886 115.22 213.167 115.965 212.24 116.496C211.323 117.017 210.287 117.283 209.13 117.293H205.021ZM207.755 106.246V115.09H209.068C210.141 115.09 210.959 114.741 211.521 114.043C212.084 113.345 212.37 112.35 212.38 111.059V110.356C212.38 109.001 212.099 107.981 211.537 107.293C210.985 106.595 210.172 106.246 209.099 106.246H207.755ZM220.052 117.293H217.318V104.028H220.052V117.293ZM222.584 117.293V104.028H226.662C227.829 104.028 228.871 104.293 229.787 104.824C230.714 105.345 231.433 106.09 231.944 107.059C232.464 108.028 232.725 109.126 232.725 110.356V110.965C232.725 112.205 232.47 113.304 231.959 114.262C231.449 115.22 230.73 115.965 229.803 116.496C228.886 117.017 227.85 117.283 226.694 117.293H222.584ZM225.319 106.246V115.09H226.631C227.704 115.09 228.522 114.741 229.084 114.043C229.647 113.345 229.933 112.35 229.944 111.059V110.356C229.944 109.001 229.662 107.981 229.1 107.293C228.548 106.595 227.735 106.246 226.662 106.246H225.319ZM242.917 104.028L246.324 113.653L249.714 104.028H253.308V117.293H250.558V113.668L250.839 107.403L247.261 117.293H245.386L241.808 107.418L242.089 113.668V117.293H239.355V104.028H242.917V104.028ZM260.057 117.481C258.609 117.481 257.432 117.038 256.525 116.153C255.619 115.257 255.166 114.074 255.166 112.606V112.34C255.166 111.35 255.353 110.47 255.728 109.699C256.114 108.918 256.656 108.319 257.353 107.903C258.062 107.475 258.864 107.262 259.76 107.262C261.114 107.262 262.176 107.689 262.947 108.543C263.718 109.387 264.103 110.59 264.103 112.153V113.215H257.838C257.921 113.861 258.176 114.382 258.603 114.778C259.031 115.163 259.572 115.356 260.228 115.356C261.239 115.356 262.031 114.986 262.603 114.246L263.9 115.699C263.504 116.262 262.968 116.699 262.291 117.012C261.624 117.324 260.879 117.481 260.057 117.481ZM259.76 109.387C259.239 109.387 258.812 109.564 258.478 109.918C258.156 110.272 257.952 110.778 257.869 111.434H261.525V111.215C261.515 110.632 261.353 110.184 261.041 109.871C260.739 109.548 260.312 109.387 259.76 109.387ZM268.75 105.012V107.434H270.438V109.371H268.75V114.293C268.75 114.658 268.818 114.918 268.953 115.074C269.099 115.231 269.37 115.309 269.766 115.309C270.057 115.309 270.318 115.288 270.547 115.246V117.246C270.026 117.403 269.495 117.481 268.953 117.481C267.099 117.481 266.156 116.548 266.125 114.684V109.371H264.688V107.434H266.125V105.012H268.75ZM274.476 108.512C275.174 107.679 276.054 107.262 277.116 107.262C279.252 107.262 280.335 108.501 280.366 110.981V117.293H277.726V111.059C277.726 110.486 277.606 110.069 277.366 109.809C277.127 109.538 276.721 109.403 276.148 109.403C275.377 109.403 274.82 109.699 274.476 110.293V117.293H271.851V103.293H274.476V108.512ZM281.931 112.278C281.931 111.298 282.118 110.429 282.493 109.668C282.879 108.897 283.426 108.304 284.134 107.887C284.842 107.47 285.66 107.262 286.587 107.262C287.921 107.262 289.009 107.668 289.853 108.481C290.697 109.293 291.165 110.397 291.259 111.793L291.275 112.465C291.275 113.975 290.853 115.189 290.009 116.106C289.165 117.022 288.03 117.481 286.603 117.481C285.186 117.481 284.051 117.028 283.197 116.121C282.353 115.205 281.931 113.96 281.931 112.387V112.278ZM284.572 112.465C284.572 113.403 284.749 114.121 285.103 114.621C285.457 115.111 285.962 115.356 286.618 115.356C287.254 115.356 287.749 115.111 288.103 114.621C288.467 114.132 288.65 113.35 288.65 112.278C288.65 111.361 288.467 110.653 288.103 110.153C287.749 109.642 287.243 109.387 286.587 109.387C285.952 109.387 285.457 109.637 285.103 110.137C284.749 110.637 284.572 111.413 284.572 112.465ZM292.48 112.293C292.48 110.751 292.823 109.528 293.511 108.621C294.209 107.715 295.157 107.262 296.355 107.262C297.313 107.262 298.105 107.616 298.73 108.324V103.293H301.37V117.293H298.995L298.87 116.246C298.214 117.069 297.37 117.481 296.339 117.481C295.172 117.481 294.235 117.022 293.527 116.106C292.829 115.189 292.48 113.918 292.48 112.293ZM295.12 112.481C295.12 113.408 295.282 114.116 295.605 114.606C295.928 115.095 296.396 115.34 297.011 115.34C297.823 115.34 298.396 114.996 298.73 114.309V110.418C298.396 109.741 297.829 109.403 297.027 109.403C295.756 109.403 295.12 110.429 295.12 112.481ZM308.523 112.668H303.398V110.559H308.523V112.668ZM317.694 113.809C317.694 113.298 317.511 112.908 317.147 112.637C316.782 112.356 316.126 112.064 315.178 111.762C314.23 111.449 313.48 111.142 312.928 110.84C311.418 110.028 310.663 108.934 310.663 107.559C310.663 106.84 310.866 106.199 311.272 105.637C311.678 105.074 312.256 104.637 313.006 104.324C313.767 104.001 314.621 103.84 315.569 103.84C316.506 103.84 317.345 104.012 318.084 104.356C318.834 104.699 319.413 105.184 319.819 105.809C320.225 106.434 320.428 107.147 320.428 107.949H317.709C317.709 107.345 317.517 106.876 317.131 106.543C316.746 106.199 316.209 106.028 315.522 106.028C314.845 106.028 314.319 106.168 313.944 106.449C313.579 106.731 313.397 107.1 313.397 107.559C313.397 107.996 313.616 108.361 314.053 108.653C314.491 108.944 315.131 109.215 315.975 109.465C317.527 109.934 318.657 110.517 319.366 111.215C320.074 111.903 320.428 112.762 320.428 113.793C320.428 114.939 319.996 115.84 319.131 116.496C318.267 117.153 317.1 117.481 315.631 117.481C314.61 117.481 313.678 117.293 312.834 116.918C312.001 116.543 311.36 116.033 310.913 115.387C310.475 114.731 310.256 113.975 310.256 113.121H313.006C313.006 114.58 313.881 115.309 315.631 115.309C316.277 115.309 316.782 115.179 317.147 114.918C317.511 114.658 317.694 114.288 317.694 113.809ZM330.991 112.449C330.991 113.97 330.642 115.189 329.944 116.106C329.256 117.022 328.329 117.481 327.163 117.481C326.163 117.481 325.355 117.132 324.741 116.434V121.09H322.116V107.434H324.553L324.647 108.403C325.282 107.642 326.116 107.262 327.147 107.262C328.355 107.262 329.298 107.71 329.975 108.606C330.652 109.501 330.991 110.741 330.991 112.324V112.449ZM328.35 112.262C328.35 111.345 328.189 110.642 327.866 110.153C327.543 109.653 327.069 109.403 326.444 109.403C325.621 109.403 325.053 109.715 324.741 110.34V114.371C325.064 115.028 325.637 115.356 326.459 115.356C327.72 115.356 328.35 114.324 328.35 112.262ZM337.15 117.481C335.702 117.481 334.525 117.038 333.619 116.153C332.713 115.257 332.26 114.074 332.26 112.606V112.34C332.26 111.35 332.447 110.47 332.822 109.699C333.208 108.918 333.749 108.319 334.447 107.903C335.155 107.475 335.958 107.262 336.853 107.262C338.208 107.262 339.27 107.689 340.041 108.543C340.812 109.387 341.197 110.59 341.197 112.153V113.215H334.932C335.015 113.861 335.27 114.382 335.697 114.778C336.124 115.163 336.666 115.356 337.322 115.356C338.333 115.356 339.124 114.986 339.697 114.246L340.994 115.699C340.598 116.262 340.062 116.699 339.385 117.012C338.718 117.324 337.973 117.481 337.15 117.481ZM336.853 109.387C336.333 109.387 335.905 109.564 335.572 109.918C335.249 110.272 335.046 110.778 334.963 111.434H338.619V111.215C338.609 110.632 338.447 110.184 338.135 109.871C337.833 109.548 337.405 109.387 336.853 109.387ZM346.797 115.356C347.287 115.356 347.682 115.225 347.984 114.965C348.287 114.694 348.443 114.335 348.453 113.887H350.922C350.922 114.554 350.74 115.168 350.375 115.731C350.021 116.283 349.531 116.715 348.906 117.028C348.281 117.33 347.594 117.481 346.844 117.481C345.438 117.481 344.323 117.033 343.5 116.137C342.688 115.241 342.281 114.001 342.281 112.418V112.246C342.281 110.725 342.688 109.517 343.5 108.621C344.313 107.715 345.422 107.262 346.828 107.262C348.057 107.262 349.042 107.611 349.781 108.309C350.531 109.007 350.912 109.939 350.922 111.106H348.453C348.443 110.595 348.287 110.184 347.984 109.871C347.682 109.548 347.281 109.387 346.781 109.387C346.167 109.387 345.703 109.611 345.391 110.059C345.078 110.507 344.922 111.231 344.922 112.231V112.496C344.922 113.517 345.073 114.251 345.375 114.699C345.688 115.137 346.162 115.356 346.797 115.356ZM355.213 117.293H352.557V107.434H355.213V117.293ZM352.417 104.887C352.417 104.491 352.547 104.168 352.807 103.918C353.068 103.658 353.427 103.528 353.885 103.528C354.333 103.528 354.687 103.658 354.948 103.918C355.219 104.168 355.354 104.491 355.354 104.887C355.354 105.283 355.219 105.611 354.948 105.871C354.687 106.121 354.333 106.246 353.885 106.246C353.437 106.246 353.078 106.121 352.807 105.871C352.547 105.611 352.417 105.283 352.417 104.887ZM358.019 117.293V109.371H356.55V107.434H358.019V106.981C358.03 105.741 358.41 104.788 359.16 104.121C359.91 103.444 360.967 103.106 362.332 103.106C363.155 103.106 364.149 103.288 365.316 103.653L364.941 105.824C364.337 105.647 363.873 105.533 363.55 105.481C363.228 105.429 362.873 105.403 362.488 105.403C361.269 105.403 360.66 105.949 360.66 107.043V107.434H362.597V109.371H360.66V117.293H358.019ZM366.55 117.293H363.91V107.434H366.55V117.293ZM372.823 115.356C373.312 115.356 373.708 115.225 374.01 114.965C374.312 114.694 374.469 114.335 374.479 113.887H376.948C376.948 114.554 376.766 115.168 376.401 115.731C376.047 116.283 375.557 116.715 374.932 117.028C374.307 117.33 373.62 117.481 372.87 117.481C371.463 117.481 370.349 117.033 369.526 116.137C368.713 115.241 368.307 114.001 368.307 112.418V112.246C368.307 110.725 368.713 109.517 369.526 108.621C370.338 107.715 371.448 107.262 372.854 107.262C374.083 107.262 375.068 107.611 375.807 108.309C376.557 109.007 376.937 109.939 376.948 111.106H374.479C374.469 110.595 374.312 110.184 374.01 109.871C373.708 109.548 373.307 109.387 372.807 109.387C372.193 109.387 371.729 109.611 371.417 110.059C371.104 110.507 370.948 111.231 370.948 112.231V112.496C370.948 113.517 371.099 114.251 371.401 114.699C371.713 115.137 372.187 115.356 372.823 115.356ZM386.182 117.293H383.448V104.028H386.182V117.293ZM388.12 112.293C388.12 110.751 388.464 109.528 389.152 108.621C389.849 107.715 390.797 107.262 391.995 107.262C392.954 107.262 393.745 107.616 394.37 108.324V103.293H397.011V117.293H394.636L394.511 116.246C393.855 117.069 393.011 117.481 391.98 117.481C390.813 117.481 389.876 117.022 389.167 116.106C388.469 115.189 388.12 113.918 388.12 112.293ZM390.761 112.481C390.761 113.408 390.922 114.116 391.245 114.606C391.568 115.095 392.037 115.34 392.652 115.34C393.464 115.34 394.037 114.996 394.37 114.309V110.418C394.037 109.741 393.469 109.403 392.667 109.403C391.396 109.403 390.761 110.429 390.761 112.481ZM403.586 117.481C402.138 117.481 400.961 117.038 400.055 116.153C399.148 115.257 398.695 114.074 398.695 112.606V112.34C398.695 111.35 398.883 110.47 399.258 109.699C399.643 108.918 400.185 108.319 400.883 107.903C401.591 107.475 402.393 107.262 403.289 107.262C404.643 107.262 405.706 107.689 406.476 108.543C407.247 109.387 407.633 110.59 407.633 112.153V113.215H401.367C401.45 113.861 401.706 114.382 402.133 114.778C402.56 115.163 403.101 115.356 403.758 115.356C404.768 115.356 405.56 114.986 406.133 114.246L407.43 115.699C407.034 116.262 406.497 116.699 405.82 117.012C405.154 117.324 404.409 117.481 403.586 117.481ZM403.289 109.387C402.768 109.387 402.341 109.564 402.008 109.918C401.685 110.272 401.482 110.778 401.398 111.434H405.055V111.215C405.044 110.632 404.883 110.184 404.57 109.871C404.268 109.548 403.841 109.387 403.289 109.387ZM411.561 107.434L411.639 108.574C412.347 107.699 413.29 107.262 414.467 107.262C415.519 107.262 416.3 107.569 416.811 108.184C417.321 108.788 417.581 109.699 417.592 110.918V117.293H414.951V110.996C414.951 110.434 414.831 110.028 414.592 109.778C414.352 109.528 413.946 109.403 413.373 109.403C412.634 109.403 412.081 109.715 411.717 110.34V117.293H409.076V107.434H411.561ZM422.728 105.012V107.434H424.415V109.371H422.728V114.293C422.728 114.658 422.796 114.918 422.931 115.074C423.077 115.231 423.348 115.309 423.744 115.309C424.035 115.309 424.296 115.288 424.525 115.246V117.246C424.004 117.403 423.473 117.481 422.931 117.481C421.077 117.481 420.134 116.548 420.103 114.684V109.371H418.665V107.434H420.103V105.012H422.728ZM428.672 117.293H426.016V107.434H428.672V117.293ZM425.876 104.887C425.876 104.491 426.006 104.168 426.266 103.918C426.527 103.658 426.886 103.528 427.344 103.528C427.792 103.528 428.146 103.658 428.407 103.918C428.678 104.168 428.813 104.491 428.813 104.887C428.813 105.283 428.678 105.611 428.407 105.871C428.146 106.121 427.792 106.246 427.344 106.246C426.896 106.246 426.537 106.121 426.266 105.871C426.006 105.611 425.876 105.283 425.876 104.887ZM431.478 117.293V109.371H430.009V107.434H431.478V106.981C431.489 105.741 431.869 104.788 432.619 104.121C433.369 103.444 434.426 103.106 435.791 103.106C436.614 103.106 437.608 103.288 438.775 103.653L438.4 105.824C437.796 105.647 437.332 105.533 437.009 105.481C436.687 105.429 436.332 105.403 435.947 105.403C434.728 105.403 434.119 105.949 434.119 107.043V107.434H436.056V109.371H434.119V117.293H431.478ZM440.009 117.293H437.369V107.434H440.009V117.293ZM446.719 117.481C445.271 117.481 444.094 117.038 443.188 116.153C442.282 115.257 441.829 114.074 441.829 112.606V112.34C441.829 111.35 442.016 110.47 442.391 109.699C442.777 108.918 443.318 108.319 444.016 107.903C444.724 107.475 445.527 107.262 446.422 107.262C447.777 107.262 448.839 107.689 449.61 108.543C450.381 109.387 450.766 110.59 450.766 112.153V113.215H444.501C444.584 113.861 444.839 114.382 445.266 114.778C445.693 115.163 446.235 115.356 446.891 115.356C447.902 115.356 448.693 114.986 449.266 114.246L450.563 115.699C450.167 116.262 449.631 116.699 448.954 117.012C448.287 117.324 447.542 117.481 446.719 117.481ZM446.422 109.387C445.902 109.387 445.474 109.564 445.141 109.918C444.818 110.272 444.615 110.778 444.532 111.434H448.188V111.215C448.178 110.632 448.016 110.184 447.704 109.871C447.402 109.548 446.974 109.387 446.422 109.387ZM457.803 109.903C457.449 109.861 457.137 109.84 456.866 109.84C455.866 109.84 455.21 110.173 454.897 110.84V117.293H452.272V107.434H454.757L454.835 108.606C455.356 107.71 456.085 107.262 457.022 107.262C457.314 107.262 457.59 107.298 457.85 107.371L457.803 109.903Z" fill="#6AA84F"/></g></svg>