<svg version="1.1" viewBox="0.0 0.0 499.03412073490813 156.41469816272965" fill="none" stroke="none" stroke-linecap="square" stroke-miterlimit="10" xmlns:xlink="http://www.w3.org/1999/xlink" xmlns="http://www.w3.org/2000/svg"><clipPath id="p.0"><path d="m0 0l499.03412 0l0 156.4147l-499.03412 0l0 -156.4147z" clip-rule="nonzero"/></clipPath><g clip-path="url(#p.0)"><path fill="#000000" fill-opacity="0.0" d="m0 0l499.03412 0l0 156.4147l-499.03412 0z" fill-rule="evenodd"/><path fill="#000000" fill-opacity="0.0" d="m-86.290764 32.028343l685.7008 0l0 59.27559l-685.7008 0z" fill-rule="evenodd"/><path fill="#3c78d8" d="m38.840893 55.003014l0 12.796875l0.40625 0q0.859375 0 1.234375 0.34375q0.375 0.328125 0.375 0.859375q0 0.53125 -0.375 0.875q-0.359375 0.328125 -1.234375 0.328125l-2.8125 0l0 -0.59375q-0.8125 0.484375 -1.71875 0.734375q-0.890625 0.25 -1.859375 0.25q-2.703127 0 -4.359377 -1.5625q-1.640625 -1.578125 -1.640625 -3.90625q0 -2.4375 1.734375 -4.15625q1.734375 -1.71875 4.218752 -1.71875q0.9375 0 1.84375 0.28125q0.90625 0.28125 1.78125 0.859375l0 -2.984375l-0.40625 0q-0.875 0 -1.25 -0.328125q-0.359375 -0.34375 -0.359375 -0.875q0 -0.53125 0.359375 -0.859375q0.375 -0.34375 1.25 -0.34375l2.8125 0zm-2.40625 10.203125q0 -1.5 -1.046875 -2.53125q-1.03125 -1.03125 -2.546875 -1.03125q-1.5000019 0 -2.546877 1.03125q-1.046875 1.03125 -1.046875 2.484375q0 1.328125 0.9375 2.1875q0.9375 0.84375 2.656252 0.84375q1.703125 0 2.640625 -0.84375q0.953125 -0.859375 0.953125 -2.140625zm12.152344 -10.203125l0 2.546875l-2.859375 0l0 -2.546875l2.859375 0zm0.328125 4.5625l0 8.234375l2.890625 0q0.859375 0 1.21875 0.34375q0.375 0.328125 0.375 0.859375q0 0.53125 -0.375 0.875q-0.359375 0.328125 -1.21875 0.328125l-8.171875 0q-0.875 0 -1.25 -0.328125q-0.359375 -0.34375 -0.359375 -0.875q0 -0.53125 0.359375 -0.859375q0.375 -0.34375 1.25 -0.34375l2.875 0l0 -5.828125l-1.921875 0q-0.859375 0 -1.234375 -0.328125q-0.375 -0.34375 -0.375 -0.890625q0 -0.515625 0.359375 -0.84375q0.375 -0.34375 1.25 -0.34375l4.328125 0zm18.730465 -4.5625l0 12.796875l0.40625 0q0.859375 0 1.234375 0.34375q0.375 0.328125 0.375 0.859375q0 0.53125 -0.375 0.875q-0.359375 0.328125 -1.234375 0.328125l-2.8125 0l0 -0.59375q-0.8125 0.484375 -1.7187462 0.734375q-0.890625 0.25 -1.859375 0.25q-2.703125 0 -4.359375 -1.5625q-1.640625 -1.578125 -1.640625 -3.90625q0 -2.4375 1.734375 -4.15625q1.734375 -1.71875 4.21875 -1.71875q0.9375 0 1.84375 0.28125q0.9062462 0.28125 1.7812462 0.859375l0 -2.984375l-0.40625 0q-0.8749962 0 -1.2499962 -0.328125q-0.359375 -0.34375 -0.359375 -0.875q0 -0.53125 0.359375 -0.859375q0.375 -0.34375 1.2499962 -0.34375l2.8125 0zm-2.40625 10.203125q0 -1.5 -1.046875 -2.53125q-1.0312462 -1.03125 -2.5468712 -1.03125q-1.5 0 -2.546875 1.03125q-1.046875 1.03125 -1.046875 2.484375q0 1.328125 0.9375 2.1875q0.9375 0.84375 2.65625 0.84375q1.703125 0 2.6406212 -0.84375q0.953125 -0.859375 0.953125 -2.140625z" fill-rule="nonzero"/><path fill="#434343" d="m78.344795 61.17489q0 0.671875 -0.484375 1.140625q-0.484375 0.453125 -1.328125 0.453125q-0.84375 0 -1.328125 -0.453125q-0.46875 -0.46875 -0.46875 -1.140625q0 -0.6875 0.46875 -1.140625q0.484375 -0.453125 1.328125 -0.453125q0.84375 0 1.328125 0.453125q0.484375 0.453125 0.484375 1.140625zm0.015625 7.859375q0 0.671875 -0.484375 1.140625q-0.46875 0.453125 -1.3125 0.453125q-0.84375 0 -1.328125 -0.453125q-0.484375 -0.46875 -0.484375 -1.140625q0 -0.6875 0.484375 -1.140625q0.484375 -0.453125 1.328125 -0.453125q0.84375 0 1.3125 0.453125q0.484375 0.453125 0.484375 1.140625z" fill-rule="nonzero"/><path fill="#a64d79" d="m96.96589 66.09676l-9.859375 0q0.375 0.9375 1.328125 1.515625q0.953125 0.578125 2.59375 0.578125q1.328125 0 3.546875 -0.578125q0.90625 -0.234375 1.265625 -0.234375q0.484375 0 0.8125 0.34375q0.328125 0.34375 0.328125 0.859375q0 0.46875 -0.359375 0.796875q-0.46875 0.421875 -2.28125 0.828125q-1.8125 0.390625 -3.5 0.390625q-2.875 0 -4.609375 -1.625q-1.71875 -1.640625 -1.71875 -4.015625q0 -2.53125 1.859375 -4.109375q1.875 -1.59375 4.3125 -1.59375q1.46875 0 2.6875 0.515625q1.21875 0.515625 1.828125 1.109375q0.84375 0.859375 1.390625 2.140625q0.375 0.890625 0.375 2.0625l0 1.015625zm-2.65625 -2.390625q-0.5625 -1.03125 -1.453125 -1.546875q-0.890625 -0.515625 -2.109375 -0.515625q-1.21875 0 -2.109375 0.515625q-0.890625 0.515625 -1.453125 1.546875l7.125 0zm12.824219 0.96875l3.640625 3.125q0.65625 0.03125 0.984375 0.375q0.328125 0.328125 0.328125 0.828125q0 0.53125 -0.375 0.875q-0.359375 0.328125 -1.21875 0.328125l-2.734375 0q-0.875 0 -1.25 -0.328125q-0.359375 -0.34375 -0.359375 -0.890625q0 -0.421875 0.265625 -0.734375q0.265625 -0.328125 0.71875 -0.453125l-1.796875 -1.546875l-1.828125 1.546875q0.5625 0.140625 0.796875 0.4375q0.234375 0.296875 0.234375 0.75q0 0.546875 -0.359375 0.890625q-0.359375 0.328125 -1.234375 0.328125l-2.703125 0q-0.859375 0 -1.234375 -0.328125q-0.375 -0.34375 -0.375 -0.875q0 -0.5 0.328125 -0.828125q0.328125 -0.34375 0.984375 -0.375l3.5625 -3.140625l-3.140625 -2.6875q-0.625 -0.046875 -0.953125 -0.375q-0.3125 -0.34375 -0.3125 -0.84375q0 -0.515625 0.359375 -0.84375q0.375 -0.34375 1.234375 -0.34375l2.25 0q0.875 0 1.234375 0.34375q0.375 0.328125 0.375 0.84375q0 0.6875 -0.65625 1.125l1.453125 1.203125l1.4375 -1.234375q-0.65625 -0.453125 -0.65625 -1.046875q0 -0.5625 0.375 -0.890625q0.375 -0.34375 1.234375 -0.34375l2.234375 0q0.859375 0 1.21875 0.34375q0.375 0.328125 0.375 0.859375q0 0.484375 -0.328125 0.828125q-0.3125 0.328125 -0.9375 0.375l-3.171875 2.703125zm14.761719 5.53125l0 -0.5625q-0.890625 0.484375 -1.984375 0.71875q-1.09375 0.25 -1.984375 0.25q-1.9375 0 -3.140625 -1.03125q-1.203125 -1.03125 -1.203125 -2.265625q0 -1.515625 1.53125 -2.8125q1.546875 -1.296875 4.265625 -1.296875q1.09375 0 2.515625 0.234375l0 -0.578125q0 -0.53125 -0.46875 -0.875q-0.453125 -0.34375 -1.75 -0.34375q-1.0625 0 -2.765625 0.421875q-0.640625 0.15625 -0.984375 0.15625q-0.484375 0 -0.828125 -0.34375q-0.328125 -0.34375 -0.328125 -0.890625q0 -0.296875 0.109375 -0.515625q0.125 -0.234375 0.328125 -0.359375q0.21875 -0.140625 0.890625 -0.328125q0.890625 -0.25 1.8125 -0.390625q0.9375 -0.140625 1.6875 -0.140625q2.234375 0 3.46875 0.96875q1.234375 0.953125 1.234375 2.640625l0 4.9375l0.40625 0q0.875 0 1.234375 0.34375q0.375 0.328125 0.375 0.859375q0 0.53125 -0.375 0.875q-0.359375 0.328125 -1.234375 0.328125l-2.8125 0zm0 -4.296875q-1.4375 -0.28125 -2.65625 -0.28125q-1.46875 0 -2.515625 0.703125q-0.65625 0.46875 -0.65625 0.9375q0 0.328125 0.3125 0.546875q0.59375 0.390625 1.609375 0.390625q0.859375 0 1.953125 -0.34375q1.109375 -0.34375 1.953125 -0.921875l0 -1.03125zm8.542976 -6.34375l0 0.671875q0.578125 -0.5625 1.046875 -0.78125q0.484375 -0.21875 1.109375 -0.21875q0.515625 0 1.03125 0.265625q0.515625 0.25 1.015625 0.765625q0.625 -0.515625 1.25 -0.765625q0.640625 -0.25 1.3125 -0.25q1.34375 0 2.171875 0.703125q1.09375 0.9375 1.09375 2.46875l0 5.375q0.75 0 1.109375 0.34375q0.375 0.34375 0.375 0.859375q0 0.53125 -0.375 0.875q-0.359375 0.328125 -1.21875 0.328125l-2.28125 0l0 -7.578125q0 -0.5625 -0.203125 -0.765625q-0.203125 -0.21875 -0.609375 -0.21875q-0.40625 0 -0.734375 0.21875q-0.4375 0.296875 -1.0625 1.09375l0 4.84375q0.75 0 1.109375 0.34375q0.375 0.34375 0.375 0.859375q0 0.53125 -0.375 0.875q-0.359375 0.328125 -1.21875 0.328125l-2.296875 0l0 -7.578125q0 -0.546875 -0.203125 -0.765625q-0.203125 -0.21875 -0.609375 -0.21875q-0.421875 0 -0.84375 0.265625q-0.40625 0.265625 -0.96875 1.046875l0 4.84375q0.75 0 1.109375 0.34375q0.375 0.34375 0.375 0.859375q0 0.53125 -0.375 0.875q-0.359375 0.328125 -1.234375 0.328125l-2.171875 0q-0.8593826 0 -1.2343826 -0.328125q-0.375 -0.34375 -0.375 -0.875q0 -0.53125 0.375 -0.859375q0.359375 -0.34375 1.1250076 -0.34375l0 -5.828125q-0.7656326 0 -1.1250076 -0.34375q-0.375 -0.34375 -0.375 -0.875q0 -0.515625 0.375 -0.84375q0.375 -0.34375 1.2343826 -0.34375l2.296875 0zm15.121094 9.3125l0 3.9375l1.4375 0q0.875 0 1.234375 0.328125q0.375 0.34375 0.375 0.890625q0 0.515625 -0.375 0.84375q-0.359375 0.34375 -1.234375 0.34375l-4.25 0q-0.859375 0 -1.234375 -0.34375q-0.375 -0.328125 -0.375 -0.84375q0 -0.546875 0.375 -0.890625q0.375 -0.328125 1.234375 -0.328125l0.40625 0l0 -10.84375l-0.40625 0q-0.859375 0 -1.234375 -0.328125q-0.375 -0.34375 -0.375 -0.890625q0 -0.515625 0.375 -0.84375q0.375 -0.34375 1.234375 -0.34375l2.8125 0l0 0.8125q0.84375 -0.5625 1.75 -0.84375q0.90625 -0.28125 1.84375 -0.28125q2.46875 0 4.203125 1.671875q1.734375 1.65625 1.734375 3.8125q0 2.390625 -2.046875 3.9375q-1.71875 1.28125 -3.859375 1.28125q-0.921875 0 -1.828125 -0.265625q-0.90625 -0.265625 -1.796875 -0.8125zm7.125 -4.125q0 -0.5 -0.40625 -1.28125q-0.390625 -0.78125 -1.21875 -1.296875q-0.828125 -0.53125 -1.9375 -0.53125q-1.796875 0 -2.84375 1.359375q-0.71875 0.921875 -0.71875 1.78125q0 0.953125 1.015625 1.859375q1.03125 0.90625 2.546875 0.90625q1.53125 0 2.546875 -0.890625q1.015625 -0.90625 1.015625 -1.90625zm11.464844 -9.75l0 12.796875l2.875 0q0.875 0 1.234375 0.34375q0.375 0.328125 0.375 0.859375q0 0.53125 -0.375 0.875q-0.359375 0.328125 -1.234375 0.328125l-8.15625 0q-0.875 0 -1.25 -0.328125q-0.359375 -0.34375 -0.359375 -0.875q0 -0.53125 0.359375 -0.859375q0.375 -0.34375 1.25 -0.34375l2.875 0l0 -10.390625l-1.9375 0q-0.84375 0 -1.21875 -0.328125q-0.375 -0.34375 -0.375 -0.875q0 -0.53125 0.359375 -0.859375q0.375 -0.34375 1.234375 -0.34375l4.34375 0zm19.230469 11.09375l-9.859375 0q0.375 0.9375 1.328125 1.515625q0.953125 0.578125 2.59375 0.578125q1.328125 0 3.546875 -0.578125q0.90625 -0.234375 1.265625 -0.234375q0.484375 0 0.8125 0.34375q0.328125 0.34375 0.328125 0.859375q0 0.46875 -0.359375 0.796875q-0.46875 0.421875 -2.28125 0.828125q-1.8125 0.390625 -3.5 0.390625q-2.875 0 -4.609375 -1.625q-1.71875 -1.640625 -1.71875 -4.015625q0 -2.53125 1.859375 -4.109375q1.875 -1.59375 4.3125 -1.59375q1.46875 0 2.6875 0.515625q1.21875 0.515625 1.828125 1.109375q0.84375 0.859375 1.390625 2.140625q0.375 0.890625 0.375 2.0625l0 1.015625zm-2.65625 -2.390625q-0.5625 -1.03125 -1.453125 -1.546875q-0.890625 -0.515625 -2.109375 -0.515625q-1.21875 0 -2.109375 0.515625q-0.890625 0.515625 -1.453125 1.546875l7.125 0z" fill-rule="nonzero"/><path fill="#434343" d="m193.56355 61.17489q0 0.671875 -0.484375 1.140625q-0.484375 0.453125 -1.328125 0.453125q-0.84375 0 -1.328125 -0.453125q-0.46875 -0.46875 -0.46875 -1.140625q0 -0.6875 0.46875 -1.140625q0.484375 -0.453125 1.328125 -0.453125q0.84375 0 1.328125 0.453125q0.484375 0.453125 0.484375 1.140625zm0.015625 7.859375q0 0.671875 -0.484375 1.140625q-0.46875 0.453125 -1.3125 0.453125q-0.84375 0 -1.328125 -0.453125q-0.484375 -0.46875 -0.484375 -1.140625q0 -0.6875 0.484375 -1.140625q0.484375 -0.453125 1.328125 -0.453125q0.84375 0 1.3125 0.453125q0.484375 0.453125 0.484375 1.140625z" fill-rule="nonzero"/><path fill="#6aa84f" d="m207.37215 54.659264l0 13.140625l2.4375 0q0.859375 0 1.21875 0.34375q0.375 0.328125 0.375 0.859375q0 0.53125 -0.375 0.875q-0.359375 0.328125 -1.21875 0.328125l-7.265625 0q-0.859375 0 -1.234375 -0.328125q-0.359375 -0.34375 -0.359375 -0.875q0 -0.53125 0.359375 -0.859375q0.375 -0.34375 1.234375 -0.34375l2.4375 0l0 -10.015625l-2.15625 0.5625q-0.515625 0.140625 -0.765625 0.140625q-0.453125 0 -0.796875 -0.359375q-0.328125 -0.375 -0.328125 -0.890625q0 -0.484375 0.234375 -0.75q0.25 -0.28125 1.046875 -0.5l5.15625 -1.328125zm10.933594 13.140625l5.265625 0q0.4375 -0.34375 0.828125 -0.34375q0.546875 0 0.859375 0.359375q0.328125 0.359375 0.328125 1.234375l0 1.15625l-10.9375 0l0 -2.546875q6.484375 -5.359375 7.828125 -6.890625q0.6875 -0.78125 0.6875 -1.484375q0 -0.875 -0.765625 -1.546875q-0.765625 -0.6875 -2.046875 -0.6875q-1.296875 0 -2.140625 0.75q-0.453125 0.40625 -0.71875 1.1875q-0.171875 0.5 -0.453125 0.71875q-0.28125 0.203125 -0.703125 0.203125q-0.5 0 -0.859375 -0.34375q-0.359375 -0.359375 -0.359375 -0.828125q0 -0.703125 0.65625 -1.75q0.65625 -1.0625 1.890625 -1.6875q1.25 -0.640625 2.71875 -0.640625q2.28125 0 3.734375 1.375q1.453125 1.375 1.453125 3.328125q0 1.0 -0.421875 1.859375q-0.421875 0.84375 -2.0 2.34375q-1.234375 1.171875 -4.84375 4.234375zm20.074219 -5.625q1.078125 0.734375 1.59375 1.6875q0.53125 0.953125 0.53125 2.140625q0 1.265625 -0.703125 2.359375q-0.6875 1.078125 -2.015625 1.640625q-1.328125 0.5625 -3.46875 0.5625q-2.78125 0 -4.1875 -0.875q-0.796875 -0.5 -0.796875 -1.171875q0 -0.515625 0.34375 -0.875q0.359375 -0.359375 0.84375 -0.359375q0.34375 0 0.703125 0.234375q0.515625 0.359375 0.96875 0.46875q0.703125 0.171875 1.9375 0.171875q2.09375 0 3.03125 -0.546875q0.9375 -0.546875 0.9375 -1.546875q0 -0.734375 -0.546875 -1.421875q-0.53125 -0.6875 -1.453125 -1.0625q-0.53125 -0.203125 -1.78125 -0.296875q-0.59375 -0.03125 -0.921875 -0.359375q-0.3125 -0.34375 -0.3125 -0.828125q0 -0.515625 0.34375 -0.859375q0.359375 -0.359375 0.890625 -0.359375q1.203125 0 1.28125 -0.015625q0.46875 -0.046875 0.9375 -0.296875q0.46875 -0.265625 0.75 -0.71875q0.296875 -0.453125 0.296875 -0.921875q0 -0.765625 -0.6875 -1.3125q-0.671875 -0.5625 -2.015625 -0.5625q-1.734375 0 -2.640625 1.0q-0.28125 0.296875 -0.4375 0.375q-0.25 0.125 -0.546875 0.125q-0.5 0 -0.859375 -0.34375q-0.34375 -0.359375 -0.34375 -0.875q0 -0.796875 1.078125 -1.5625q1.578125 -1.109375 3.921875 -1.109375q2.234375 0 3.578125 1.265625q1.34375 1.265625 1.34375 3.046875q0 0.921875 -0.40625 1.734375q-0.390625 0.796875 -1.1875 1.46875zm14.496094 -7.140625l0 9.40625q0.765625 0 1.125 0.34375q0.375 0.328125 0.375 0.84375q0 0.53125 -0.375 0.875q-0.375 0.34375 -1.125 0.34375l0 0.953125q0.765625 0 1.125 0.34375q0.375 0.34375 0.375 0.859375q0 0.53125 -0.375 0.875q-0.375 0.328125 -1.234375 0.328125l-3.21875 0q-0.875 0 -1.25 -0.328125q-0.359375 -0.34375 -0.359375 -0.875q0 -0.53125 0.359375 -0.859375q0.375 -0.34375 1.25 -0.34375l0.9375 0l0 -0.953125l-6.53125 0l0 -2.015625l5.75 -9.796875l3.171875 0zm-2.390625 9.40625l0 -5.90625l-3.484375 5.90625l3.484375 0zm11.2617035 -7.0l0 2.859375q1.328125 -0.421875 2.421875 -0.421875q2.21875 0 3.671875 1.515625q1.46875 1.515625 1.46875 3.90625q0 2.453125 -1.484375 3.859375q-1.484375 1.40625 -4.53125 1.40625q-2.703125 0 -4.265625 -1.03125q-0.921875 -0.578125 -0.921875 -1.34375q0 -0.484375 0.359375 -0.84375q0.359375 -0.359375 0.84375 -0.359375q0.421875 0 0.890625 0.40625q0.484375 0.390625 1.015625 0.53125q0.75 0.234375 1.921875 0.234375q2.171875 0 2.96875 -0.703125q0.796875 -0.703125 0.796875 -2.140625q0 -1.421875 -0.765625 -2.21875q-0.765625 -0.8125 -1.96875 -0.8125q-1.296875 0 -2.96875 0.84375q-0.375 0.203125 -0.65625 0.203125q-0.515625 0 -0.859375 -0.375q-0.34375 -0.375 -0.34375 -0.984375l0 -6.9375l7.34375 0q0.875 0 1.234375 0.34375q0.375 0.328125 0.375 0.875q0 0.515625 -0.375 0.859375q-0.359375 0.328125 -1.234375 0.328125l-4.9375 0zm14.167969 4.5625q0.859375 -0.734375 1.640625 -1.0625q0.796875 -0.328125 1.6875 -0.328125q1.875 0 3.296875 1.5q1.421875 1.5 1.421875 3.75q0 2.109375 -1.328125 3.40625q-1.3125 1.296875 -3.578125 1.296875q-1.875 0 -3.09375 -0.875q-1.21875 -0.890625 -1.84375 -2.71875q-0.625 -1.828125 -0.625 -4.078125q0 -2.703125 1.234375 -4.484375q1.234375 -1.78125 2.890625 -2.765625q1.671875 -0.984375 3.515625 -0.984375q1.46875 0 2.28125 0.5625q0.515625 0.390625 0.515625 0.984375q0 0.53125 -0.359375 0.890625q-0.34375 0.359375 -0.828125 0.359375q-0.28125 0 -0.8125 -0.28125q-0.3125 -0.171875 -0.609375 -0.171875q-1.140625 0 -2.375 0.65625q-1.234375 0.65625 -2.140625 2.0q-0.609375 0.9375 -0.890625 2.34375zm0.34375 3.71875q0.375 1.40625 1.015625 1.921875q0.640625 0.515625 1.828125 0.515625q1.171875 0 1.8125 -0.625q0.640625 -0.625 0.640625 -1.6875q0 -1.21875 -0.734375 -2.03125q-0.734375 -0.8125 -1.640625 -0.8125q-0.734375 0 -1.5625 0.71875q-0.8125 0.71875 -1.359375 2.0zm18.792969 -8.28125l-5.5 0q-0.046875 0.703125 -0.375 1.015625q-0.3125 0.3125 -0.828125 0.3125q-0.53125 0 -0.875 -0.359375q-0.328125 -0.375 -0.328125 -1.234375l0 -2.140625l10.4375 0l0 2.40625l-3.890625 11.578125q-0.25 0.734375 -0.546875 0.984375q-0.296875 0.234375 -0.71875 0.234375q-0.515625 0 -0.875 -0.359375q-0.34375 -0.359375 -0.34375 -0.8125q0 -0.25 0.1875 -0.8125l3.65625 -10.8125zm15.324219 5.09375q0.921875 0.703125 1.375 1.625q0.46875 0.90625 0.46875 1.984375q0 1.21875 -0.59375 2.234375q-0.578125 1.0 -1.84375 1.59375q-1.265625 0.59375 -2.8125 0.59375q-1.546875 0 -2.796875 -0.59375q-1.234375 -0.59375 -1.828125 -1.609375q-0.59375 -1.015625 -0.59375 -2.21875q0 -1.078125 0.453125 -1.984375q0.46875 -0.921875 1.390625 -1.625q-0.796875 -0.75 -1.21875 -1.59375q-0.40625 -0.84375 -0.40625 -1.78125q0 -1.84375 1.40625 -3.171875q1.40625 -1.328125 3.609375 -1.328125q2.203125 0 3.609375 1.328125q1.40625 1.328125 1.40625 3.171875q0 0.9375 -0.40625 1.78125q-0.40625 0.84375 -1.21875 1.59375zm-0.828125 -3.328125q0 -0.890625 -0.703125 -1.515625q-0.703125 -0.640625 -1.875 -0.640625q-1.203125 0 -1.90625 0.640625q-0.6875 0.625 -0.6875 1.515625q0 0.890625 0.6875 1.53125q0.703125 0.625 1.90625 0.625q1.171875 0 1.875 -0.625q0.703125 -0.640625 0.703125 -1.53125zm0.28125 7.0625q0 -0.953125 -0.828125 -1.71875q-0.8125 -0.765625 -2.015625 -0.765625q-1.203125 0 -2.015625 0.765625q-0.8125 0.765625 -0.8125 1.734375q0 0.75 0.703125 1.3125q0.703125 0.5625 2.125 0.5625q1.4375 0 2.140625 -0.5625q0.703125 -0.5625 0.703125 -1.328125zm14.917969 -2.375q-0.890625 0.78125 -1.640625 1.109375q-0.75 0.3125 -1.59375 0.3125q-1.921875 0 -3.375 -1.546875q-1.453125 -1.546875 -1.453125 -3.84375q0 -1.796875 1.0 -3.25q1.359375 -2.015625 3.828125 -2.015625q1.78125 0 3.09375 1.0625q1.328125 1.046875 1.953125 3.046875q0.625 2.0 0.625 4.171875q0 3.671875 -2.859375 5.90625q-2.203125 1.71875 -4.828125 1.71875q-1.453125 0 -2.25 -0.59375q-0.53125 -0.390625 -0.53125 -1.015625q0 -0.515625 0.34375 -0.859375q0.34375 -0.359375 0.84375 -0.359375q0.28125 0 0.640625 0.1875q0.453125 0.234375 0.953125 0.234375q1.828125 0 3.359375 -1.234375q1.53125 -1.25 1.890625 -3.03125zm-0.328125 -3.78125q-0.390625 -1.65625 -1.15625 -2.359375q-0.75 -0.703125 -1.71875 -0.703125q-1.015625 0 -1.734375 0.78125q-0.71875 0.78125 -0.71875 2.078125q0 1.34375 0.71875 2.171875q0.71875 0.828125 1.65625 0.828125q1.625 0 2.953125 -2.796875zm13.511719 10.09375l0 -0.5625q-0.890625 0.484375 -1.984375 0.71875q-1.09375 0.25 -1.984375 0.25q-1.9375 0 -3.140625 -1.03125q-1.203125 -1.03125 -1.203125 -2.265625q0 -1.515625 1.53125 -2.8125q1.546875 -1.296875 4.265625 -1.296875q1.09375 0 2.515625 0.234375l0 -0.578125q0 -0.53125 -0.46875 -0.875q-0.453125 -0.34375 -1.75 -0.34375q-1.0625 0 -2.765625 0.421875q-0.640625 0.15625 -0.984375 0.15625q-0.484375 0 -0.828125 -0.34375q-0.328125 -0.34375 -0.328125 -0.890625q0 -0.296875 0.109375 -0.515625q0.125 -0.234375 0.328125 -0.359375q0.21875 -0.140625 0.890625 -0.328125q0.890625 -0.25 1.8125 -0.390625q0.9375 -0.140625 1.6875 -0.140625q2.234375 0 3.46875 0.96875q1.234375 0.953125 1.234375 2.640625l0 4.9375l0.40625 0q0.875 0 1.234375 0.34375q0.375 0.328125 0.375 0.859375q0 0.53125 -0.375 0.875q-0.359375 0.328125 -1.234375 0.328125l-2.8125 0zm0 -4.296875q-1.4375 -0.28125 -2.65625 -0.28125q-1.46875 0 -2.515625 0.703125q-0.65625 0.46875 -0.65625 0.9375q0 0.328125 0.3125 0.546875q0.59375 0.390625 1.609375 0.390625q0.859375 0 1.953125 -0.34375q1.109375 -0.34375 1.953125 -0.921875l0 -1.03125zm9.214844 -10.90625l0 5.390625q0.875 -0.578125 1.78125 -0.859375q0.921875 -0.28125 1.84375 -0.28125q2.5 0 4.234375 1.71875q1.734375 1.71875 1.734375 4.15625q0 2.328125 -1.65625 3.90625q-1.65625 1.5625 -4.359375 1.5625q-0.96875 0 -1.859375 -0.25q-0.890625 -0.25 -1.71875 -0.734375l0 0.59375l-2.8125 0q-0.859375 0 -1.234375 -0.328125q-0.375 -0.34375 -0.375 -0.875q0 -0.53125 0.375 -0.859375q0.375 -0.34375 1.234375 -0.34375l0.40625 0l0 -10.390625l-0.40625 0q-0.859375 0 -1.234375 -0.328125q-0.375 -0.34375 -0.375 -0.875q0 -0.53125 0.375 -0.859375q0.375 -0.34375 1.234375 -0.34375l2.8125 0zm7.1875 10.203125q0 -1.5 -1.046875 -2.53125q-1.046875 -1.03125 -2.546875 -1.03125q-1.5 0 -2.546875 1.03125q-1.046875 1.03125 -1.046875 2.484375q0 1.328125 0.9375 2.1875q0.9375 0.84375 2.65625 0.84375q1.703125 0 2.640625 -0.84375q0.953125 -0.859375 0.953125 -2.140625zm13.996094 -5.203125q0.421875 -0.421875 0.890625 -0.421875q0.515625 0 0.84375 0.375q0.328125 0.375 0.328125 1.21875l0 1.546875q0 0.875 -0.328125 1.234375q-0.328125 0.359375 -0.875 0.359375q-0.484375 0 -0.828125 -0.28125q-0.25 -0.203125 -0.390625 -0.84375q-0.140625 -0.65625 -0.671875 -0.984375q-0.953125 -0.5625 -2.4375 -0.5625q-1.6875 0 -2.71875 1.0q-1.03125 1.0 -1.03125 2.515625q0 1.40625 0.984375 2.234375q0.984375 0.8125 3.28125 0.8125q1.5 0 2.4375 -0.3125q0.5625 -0.1875 1.0625 -0.640625q0.515625 -0.453125 0.921875 -0.453125q0.5 0 0.84375 0.375q0.359375 0.359375 0.359375 0.84375q0 0.796875 -1.078125 1.515625q-1.625 1.078125 -4.734375 1.078125q-2.8125 0 -4.359375 -1.171875q-2.109375 -1.5625 -2.109375 -4.265625q0 -2.5625 1.703125 -4.234375q1.71875 -1.6875 4.46875 -1.6875q1.0 0 1.84375 0.1875q0.859375 0.1875 1.59375 0.5625zm16.167969 -5.0l0 12.796875l0.40625 0q0.859375 0 1.234375 0.34375q0.375 0.328125 0.375 0.859375q0 0.53125 -0.375 0.875q-0.359375 0.328125 -1.234375 0.328125l-2.8125 0l0 -0.59375q-0.8125 0.484375 -1.71875 0.734375q-0.890625 0.25 -1.859375 0.25q-2.703125 0 -4.359375 -1.5625q-1.640625 -1.578125 -1.640625 -3.90625q0 -2.4375 1.734375 -4.15625q1.734375 -1.71875 4.21875 -1.71875q0.9375 0 1.84375 0.28125q0.90625 0.28125 1.78125 0.859375l0 -2.984375l-0.40625 0q-0.875 0 -1.25 -0.328125q-0.359375 -0.34375 -0.359375 -0.875q0 -0.53125 0.359375 -0.859375q0.375 -0.34375 1.25 -0.34375l2.8125 0zm-2.40625 10.203125q0 -1.5 -1.046875 -2.53125q-1.03125 -1.03125 -2.546875 -1.03125q-1.5 0 -2.546875 1.03125q-1.046875 1.03125 -1.046875 2.484375q0 1.328125 0.9375 2.1875q0.9375 0.84375 2.65625 0.84375q1.703125 0 2.640625 -0.84375q0.953125 -0.859375 0.953125 -2.140625zm17.324219 0.890625l-9.859375 0q0.375 0.9375 1.328125 1.515625q0.953125 0.578125 2.59375 0.578125q1.328125 0 3.546875 -0.578125q0.90625 -0.234375 1.265625 -0.234375q0.484375 0 0.8125 0.34375q0.328125 0.34375 0.328125 0.859375q0 0.46875 -0.359375 0.796875q-0.46875 0.421875 -2.28125 0.828125q-1.8125 0.390625 -3.5 0.390625q-2.875 0 -4.609375 -1.625q-1.71875 -1.640625 -1.71875 -4.015625q0 -2.53125 1.859375 -4.109375q1.875 -1.59375 4.3125 -1.59375q1.46875 0 2.6875 0.515625q1.21875 0.515625 1.828125 1.109375q0.84375 0.859375 1.390625 2.140625q0.375 0.890625 0.375 2.0625l0 1.015625zm-2.65625 -2.390625q-0.5625 -1.03125 -1.453125 -1.546875q-0.890625 -0.515625 -2.109375 -0.515625q-1.21875 0 -2.109375 0.515625q-0.890625 0.515625 -1.453125 1.546875l7.125 0zm11.011719 -1.734375l0 5.828125l3.421875 0q0.859375 0 1.234375 0.34375q0.375 0.328125 0.375 0.859375q0 0.53125 -0.375 0.875q-0.375 0.328125 -1.234375 0.328125l-7.25 0q-0.875 0 -1.25 -0.328125q-0.359375 -0.34375 -0.359375 -0.875q0 -0.53125 0.359375 -0.859375q0.375 -0.34375 1.25 -0.34375l1.421875 0l0 -5.828125l-1.140625 0q-0.875 0 -1.25 -0.328125q-0.359375 -0.34375 -0.359375 -0.890625q0 -0.515625 0.359375 -0.84375q0.375 -0.34375 1.25 -0.34375l1.140625 0l0 -0.921875q0 -1.5625 1.171875 -2.59375q1.1875 -1.046875 3.421875 -1.046875q1.0 0 2.296875 0.1875q1.3125 0.171875 1.671875 0.5q0.375 0.328125 0.375 0.84375q0 0.5625 -0.328125 0.90625q-0.328125 0.34375 -0.796875 0.34375q-0.234375 0 -0.671875 -0.078125q-1.484375 -0.296875 -2.640625 -0.296875q-1.1875 0 -1.640625 0.359375q-0.453125 0.359375 -0.453125 0.875l0 0.921875l3.703125 0q0.859375 0 1.234375 0.34375q0.375 0.328125 0.375 0.859375q0 0.53125 -0.375 0.875q-0.375 0.328125 -1.234375 0.328125l-3.703125 0zm17.058594 -1.6875l0 -0.71875l2.8125 0q0.875 0 1.234375 0.34375q0.375 0.328125 0.375 0.859375q0 0.53125 -0.375 0.875q-0.359375 0.328125 -1.234375 0.328125l-0.40625 0l0 8.734375q0 1.265625 -0.53125 2.203125q-0.53125 0.953125 -1.640625 1.625q-1.09375 0.6875 -2.484375 0.6875l-2.71875 0q-0.859375 0 -1.234375 -0.34375q-0.375 -0.328125 -0.375 -0.84375q0 -0.546875 0.375 -0.890625q0.375 -0.328125 1.234375 -0.328125l2.65625 0q1.09375 0 1.703125 -0.59375q0.609375 -0.59375 0.609375 -1.515625l0 -1.171875q-0.796875 0.515625 -1.625 0.765625q-0.828125 0.265625 -1.6875 0.265625q-2.453125 0 -4.109375 -1.625q-1.640625 -1.640625 -1.640625 -4.046875q0 -2.40625 1.640625 -4.046875q1.65625 -1.640625 4.109375 -1.640625q0.90625 0 1.734375 0.265625q0.828125 0.265625 1.578125 0.8125zm-0.015625 4.59375q0 -1.3125 -0.984375 -2.28125q-0.96875 -0.984375 -2.34375 -0.984375q-1.359375 0 -2.34375 0.984375q-0.984375 0.96875 -0.984375 2.28125q0 1.34375 0.984375 2.3125q0.984375 0.96875 2.34375 0.96875q1.375 0 2.34375 -0.96875q0.984375 -0.96875 0.984375 -2.3125zm9.292969 -9.875l0 5.125q0.75 -0.453125 1.515625 -0.65625q0.78125 -0.21875 1.5625 -0.21875q1.234375 0 2.203125 0.421875q0.984375 0.421875 1.625 1.328125q0.640625 0.90625 0.640625 2.28125l0 4.515625q0.90625 0 1.1875 0.171875q0.5625 0.375 0.5625 1.03125q0 0.53125 -0.359375 0.875q-0.359375 0.328125 -1.234375 0.328125l-2.734375 0q-0.859375 0 -1.234375 -0.328125q-0.359375 -0.34375 -0.359375 -0.875q0 -0.65625 0.5625 -1.03125q0.28125 -0.1875 1.1875 -0.171875l0 -4.34375q0 -0.921875 -0.421875 -1.296875q-0.546875 -0.515625 -1.625 -0.515625q-0.796875 0 -1.421875 0.3125q-0.609375 0.3125 -1.65625 1.34375l0 4.5q0.9375 0 1.203125 0.171875q0.578125 0.375 0.578125 1.03125q0 0.53125 -0.375 0.875q-0.375 0.328125 -1.234375 0.328125l-2.734375 0q-0.859375 0 -1.234375 -0.328125q-0.375 -0.34375 -0.375 -0.875q0 -0.65625 0.578125 -1.03125q0.28125 -0.1875 1.203125 -0.171875l0 -10.390625l-0.421875 0q-0.859375 0 -1.234375 -0.328125q-0.359375 -0.34375 -0.359375 -0.875q0 -0.53125 0.359375 -0.859375q0.375 -0.34375 1.234375 -0.34375l2.8125 0zm17.746094 0l0 2.546875l-2.859375 0l0 -2.546875l2.859375 0zm0.328125 4.5625l0 8.234375l2.890625 0q0.859375 0 1.21875 0.34375q0.375 0.328125 0.375 0.859375q0 0.53125 -0.375 0.875q-0.359375 0.328125 -1.21875 0.328125l-8.171875 0q-0.875 0 -1.25 -0.328125q-0.359375 -0.34375 -0.359375 -0.875q0 -0.53125 0.359375 -0.859375q0.375 -0.34375 1.25 -0.34375l2.875 0l0 -5.828125l-1.921875 0q-0.859375 0 -1.234375 -0.328125q-0.375 -0.34375 -0.375 -0.890625q0 -0.515625 0.359375 -0.84375q0.375 -0.34375 1.25 -0.34375l4.328125 0zm15.636719 -4.5625l0 2.546875l-2.875 0l0 -2.546875l2.875 0zm-0.984375 6.96875l-4.90625 0q-0.859375 0 -1.234375 -0.328125q-0.359375 -0.34375 -0.359375 -0.890625q0 -0.515625 0.359375 -0.84375q0.375 -0.34375 1.234375 -0.34375l7.3125 0l0 11.140625q0 1.265625 -0.546875 2.203125q-0.53125 0.953125 -1.640625 1.625q-1.09375 0.6875 -2.46875 0.6875l-2.71875 0q-0.875 0 -1.25 -0.34375q-0.359375 -0.328125 -0.359375 -0.84375q0 -0.546875 0.359375 -0.890625q0.375 -0.328125 1.25 -0.328125l2.640625 0q1.109375 0 1.71875 -0.59375q0.609375 -0.59375 0.609375 -1.515625l0 -8.734375zm10.996094 4.234375l0 4.0l-2.8125 0q-0.875 0 -1.25 -0.328125q-0.359375 -0.34375 -0.359375 -0.875q0 -0.53125 0.375 -0.859375q0.375 -0.34375 1.234375 -0.34375l0.40625 0l0 -10.390625l-0.40625 0q-0.875 0 -1.25 -0.328125q-0.359375 -0.34375 -0.359375 -0.875q0 -0.53125 0.359375 -0.859375q0.375 -0.34375 1.25 -0.34375l2.8125 0l0 8.09375l1.875 -1.5q-0.296875 -0.515625 -0.296875 -0.828125q0 -0.53125 0.359375 -0.859375q0.359375 -0.34375 1.234375 -0.34375l2.734375 0q0.875 0 1.234375 0.34375q0.375 0.328125 0.375 0.859375q0 0.53125 -0.375 0.875q-0.359375 0.328125 -1.234375 0.328125l-0.65625 0l-2.921875 2.359375l3.921875 3.46875l0.703125 0q0.875 0 1.234375 0.34375q0.375 0.328125 0.375 0.859375q0 0.53125 -0.375 0.875q-0.359375 0.328125 -1.234375 0.328125l-2.765625 0q-0.859375 0 -1.234375 -0.328125q-0.375 -0.34375 -0.375 -0.875q0 -0.46875 0.40625 -0.90625l-2.546875 -2.25l-0.4375 0.359375z" fill-rule="nonzero"/><path fill="#000000" fill-opacity="0.0" d="m5.6861906 5.102235l84.314964 0l0 26.677166l-84.314964 0z" fill-rule="evenodd"/><path fill="#3c78d8" d="m21.927748 21.876442q0 -0.765625 -0.546875 -1.171875q-0.546875 -0.421875 -1.96875 -0.875q-1.421875 -0.46875 -2.25 -0.921875q-2.265624 -1.21875 -2.265624 -3.281251q0 -1.078125 0.609375 -1.921875q0.60937405 -0.84375 1.734374 -1.3125q1.140625 -0.484375 2.5625 -0.484375q1.40625 0 2.515625 0.515625q1.125 0.515625 1.734375 1.453125q0.609375 0.9375 0.609375 2.140626l-2.71875 0q0 -0.90625095 -0.578125 -1.406251q-0.578125 -0.515625 -1.609375 -0.515625q-1.015625 0 -1.578125 0.421875q-0.546875 0.421875 -0.546875 1.109375q0 0.65625095 0.65625 1.093751q0.65625 0.4375 1.921875 0.8125q2.328125 0.703125 3.390625 1.75q1.0625 1.03125 1.0625 2.578125q0 1.71875 -1.296875 2.703125q-1.296875 0.984375 -3.5 0.984375q-1.53125 0 -2.796875 -0.5625q-1.249999 -0.5625 -1.921874 -1.53125q-0.65625 -0.984375 -0.65625 -2.265625l2.749999 0q0 2.1875 2.625 2.1875q0.96875 0 1.515625 -0.390625q0.546875 -0.390625 0.546875 -1.109375zm8.515732 1.546875q0.734375 0 1.1875 -0.390625q0.4531269 -0.40625 0.4687519 -1.078125l2.46875 0q0 1.0 -0.546875 1.84375q-0.53125 0.828125 -1.46875 1.296875q-0.9375019 0.453125 -2.062502 0.453125q-2.109375 0 -3.34375 -1.34375q-1.21875 -1.34375 -1.21875 -3.71875l0 -0.171875q0 -2.28125 1.21875 -3.625q1.21875 -1.359376 3.328125 -1.359376q1.8437519 0 2.953127 1.046876q1.125 1.046875 1.140625 2.796875l-2.46875 0q-0.015625 -0.765625 -0.4687519 -1.234375q-0.453125 -0.484375 -1.203125 -0.484375q-0.921875 0 -1.390625 0.671875q-0.46875 0.671875 -0.46875 2.171875l0 0.265625q0 1.53125 0.453125 2.203125q0.46875 0.65625 1.421875 0.65625zm8.197695 -6.84375q1.046875 -1.250001 2.640625 -1.250001q3.203125 0 3.25 3.718751l0 6.3125l-2.640625 0l0 -6.234375q0 -0.859375 -0.359375 -1.25q-0.359375 -0.40625 -1.21875 -0.40625q-1.15625 0 -1.671875 0.890625l0 7.0l-2.625 0l0 -14.000001l2.625 0l0 5.218751zm12.408234 8.96875q-2.171875 0 -3.53125 -1.328125q-1.359375 -1.34375 -1.359375 -3.546875l0 -0.265625q0 -1.484375 0.5625 -2.640625q0.578125 -1.171875 1.625 -1.796876q1.0625 -0.640625 2.40625 -0.640625q2.03125 0 3.1875 1.281251q1.15625 1.265625 1.15625 3.609375l0 1.0625l-6.265625 0q0.125 0.96875 0.765625 1.5625q0.640625 0.578125 1.625 0.578125q1.515625 0 2.375 -1.109375l1.296875 1.453125q-0.59375 0.84375 -1.609375 1.3125q-1.0 0.46875 -2.234375 0.46875zm-0.296875 -8.09375q-0.78125 0 -1.28125 0.53125q-0.484375 0.53125 -0.609375 1.515625l3.65625 0l0 -0.21875q-0.015625 -0.875 -0.484375 -1.34375q-0.453125 -0.484375 -1.28125 -0.484375zm8.318588 -1.953126l0.078125 1.109376q1.046875 -1.281251 2.828125 -1.281251q1.90625 0 2.625 1.500001q1.03125 -1.500001 2.953125 -1.500001q1.609375 0 2.390625 0.93750095q0.78125 0.921875 0.78125 2.796875l0 6.296875l-2.640625 0l0 -6.28125q0 -0.84375 -0.328125 -1.21875q-0.328125 -0.390625 -1.15625 -0.390625q-1.1875 0 -1.640625 1.125l0 6.765625l-2.625 0l0 -6.28125q0 -0.84375 -0.34375 -1.21875q-0.328125 -0.390625 -1.140625 -0.390625q-1.125 0 -1.625 0.921875l0 6.96875l-2.625 0l0 -9.859376l2.46875 0zm18.213638 10.046876q-2.171875 0 -3.53125 -1.328125q-1.359375 -1.34375 -1.359375 -3.546875l0 -0.265625q0 -1.484375 0.5625 -2.640625q0.578125 -1.171875 1.625 -1.796876q1.0625 -0.640625 2.40625 -0.640625q2.03125 0 3.1875 1.281251q1.15625 1.265625 1.15625 3.609375l0 1.0625l-6.265625 0q0.125 0.96875 0.765625 1.5625q0.640625 0.578125 1.625 0.578125q1.515625 0 2.375 -1.109375l1.296875 1.453125q-0.59375 0.84375 -1.609375 1.3125q-1.0 0.46875 -2.234375 0.46875zm-0.296875 -8.09375q-0.78125 0 -1.28125 0.53125q-0.484375 0.53125 -0.609375 1.515625l3.65625 0l0 -0.21875q-0.015625 -0.875 -0.484375 -1.34375q-0.453125 -0.484375 -1.28125 -0.484375z" fill-rule="nonzero"/><path fill="#000000" fill-opacity="0.0" d="m29.727884 50.55302l0 0c0 -5.27932 0.71326065 -9.5590515 1.593113 -9.5590515l14.924013 0c0.8798485 0 1.5931091 -4.2797356 1.5931091 -9.559057l0 0c0 5.2793217 0.71326065 9.559057 1.593113 9.559057l14.924015 0c0.8798523 0 1.5931091 4.2797318 1.5931091 9.5590515z" fill-rule="evenodd"/><path fill="#000000" fill-opacity="0.0" d="m29.727884 50.55302l0 0c0 -5.27932 0.71326065 -9.5590515 1.593113 -9.5590515l14.924013 0c0.8798485 0 1.5931091 -4.2797356 1.5931091 -9.559057l0 0c0 5.2793217 0.71326065 9.559057 1.593113 9.559057l14.924015 0c0.8798523 0 1.5931091 4.2797318 1.5931091 9.5590515" fill-rule="evenodd"/><path stroke="#666666" stroke-width="3.0" stroke-linejoin="round" stroke-linecap="butt" d="m29.727884 50.55302l0 0c0 -5.27932 0.71326065 -9.5590515 1.593113 -9.5590515l14.924013 0c0.8798485 0 1.5931091 -4.2797356 1.5931091 -9.559057l0 0c0 5.2793217 0.71326065 9.559057 1.593113 9.559057l14.924015 0c0.8798523 0 1.5931091 4.2797318 1.5931091 9.5590515" fill-rule="evenodd"/><path fill="#000000" fill-opacity="0.0" d="m181.93031 79.776375l0 0c0 4.7313843 -0.63923645 8.566933 -1.4277649 8.566933l-44.388565 0c-0.7885437 0 -1.4277649 3.8355408 -1.4277649 8.566925l0 0c0 -4.7313843 -0.63923645 -8.566925 -1.4277649 -8.566925l-44.388573 0c-0.78852844 0 -1.4277649 -3.8355484 -1.4277649 -8.566933z" fill-rule="evenodd"/><path fill="#000000" fill-opacity="0.0" d="m181.93031 79.776375l0 0c0 4.7313843 -0.63923645 8.566933 -1.4277649 8.566933l-44.388565 0c-0.7885437 0 -1.4277649 3.8355408 -1.4277649 8.566925l0 0c0 -4.7313843 -0.63923645 -8.566925 -1.4277649 -8.566925l-44.388573 0c-0.78852844 0 -1.4277649 -3.8355484 -1.4277649 -8.566933" fill-rule="evenodd"/><path stroke="#666666" stroke-width="3.0" stroke-linejoin="round" stroke-linecap="butt" d="m181.93031 79.776375l0 0c0 4.7313843 -0.63923645 8.566933 -1.4277649 8.566933l-44.388565 0c-0.7885437 0 -1.4277649 3.8355408 -1.4277649 8.566925l0 0c0 -4.7313843 -0.63923645 -8.566925 -1.4277649 -8.566925l-44.388573 0c-0.78852844 0 -1.4277649 -3.8355484 -1.4277649 -8.566933" fill-rule="evenodd"/><path fill="#000000" fill-opacity="0.0" d="m482.04623 79.776375l0 0c0 4.7313843 -0.6392517 8.566933 -1.4277649 8.566933l-137.11298 0c-0.7885437 0 -1.4277649 3.8355408 -1.4277649 8.566925l0 0c0 -4.7313843 -0.6392517 -8.566925 -1.4277649 -8.566925l-137.11299 0c-0.78852844 0 -1.4277649 -3.8355484 -1.4277649 -8.566933z" fill-rule="evenodd"/><path fill="#000000" fill-opacity="0.0" d="m482.04623 79.776375l0 0c0 4.7313843 -0.6392517 8.566933 -1.4277649 8.566933l-137.11298 0c-0.7885437 0 -1.4277649 3.8355408 -1.4277649 8.566925l0 0c0 -4.7313843 -0.6392517 -8.566925 -1.4277649 -8.566925l-137.11299 0c-0.78852844 0 -1.4277649 -3.8355484 -1.4277649 -8.566933" fill-rule="evenodd"/><path stroke="#666666" stroke-width="3.0" stroke-linejoin="round" stroke-linecap="butt" d="m482.04623 79.776375l0 0c0 4.7313843 -0.6392517 8.566933 -1.4277649 8.566933l-137.11298 0c-0.7885437 0 -1.4277649 3.8355408 -1.4277649 8.566925l0 0c0 -4.7313843 -0.6392517 -8.566925 -1.4277649 -8.566925l-137.11299 0c-0.78852844 0 -1.4277649 -3.8355484 -1.4277649 -8.566933" fill-rule="evenodd"/><path fill="#000000" fill-opacity="0.0" d="m74.414696 103.71503l121.228355 0l0 13.039368l-121.228355 0z" fill-rule="evenodd"/><path fill="#a64d79" d="m86.93399 117.15471l0 -13.265625l4.078125 0q1.75 0 3.125 0.796875q1.390625 0.78125 2.15625 2.234375q0.78125 1.453125 0.78125 3.296875l0 0.609375q0 1.859375 -0.765625 3.296875q-0.765625 1.4375 -2.15625 2.234375q-1.375 0.78125 -3.109375 0.796875l-4.109375 0zm2.734375 -11.046875l0 8.84375l1.3125 0q1.609375 0 2.453125 -1.046875q0.84375 -1.046875 0.859375 -2.984375l0 -0.703125q0 -2.03125 -0.84375 -3.0625q-0.828125 -1.046875 -2.4375 -1.046875l-1.34375 0zm12.296616 11.046875l-2.734375 0l0 -13.265625l2.734375 0l0 13.265625zm2.5321198 0l0 -13.265625l4.078125 0q1.75 0 3.125 0.796875q1.390625 0.78125 2.15625 2.234375q0.78125 1.453125 0.78125 3.296875l0 0.609375q0 1.859375 -0.765625 3.296875q-0.765625 1.4375 -2.15625 2.234375q-1.375 0.78125 -3.109375 0.796875l-4.109375 0zm2.734375 -11.046875l0 8.84375l1.3125 0q1.609375 0 2.453125 -1.046875q0.84375 -1.046875 0.859375 -2.984375l0 -0.703125q0 -2.03125 -0.84375 -3.0625q-0.828125 -1.046875 -2.4375 -1.046875l-1.34375 0zm17.59871 -2.21875l3.40625 9.625l3.390625 -9.625l3.59375 0l0 13.265625l-2.75 0l0 -3.625l0.28125 -6.265625l-3.578125 9.890625l-1.875 0l-3.578125 -9.875l0.28125 6.25l0 3.625l-2.734375 0l0 -13.265625l3.5625 0zm17.139313 13.453125q-2.171875 0 -3.53125 -1.328125q-1.359375 -1.34375 -1.359375 -3.546875l0 -0.265625q0 -1.484375 0.5625 -2.640625q0.578125 -1.171875 1.625 -1.796875q1.0625 -0.640625 2.40625 -0.640625q2.03125 0 3.1875 1.28125q1.15625 1.265625 1.15625 3.609375l0 1.0625l-6.265625 0q0.125 0.96875 0.765625 1.5625q0.640625 0.578125 1.625 0.578125q1.515625 0 2.375 -1.109375l1.296875 1.453125q-0.59375 0.84375 -1.609375 1.3125q-1.0 0.46875 -2.234375 0.46875zm-0.296875 -8.09375q-0.78125 0 -1.28125 0.53125q-0.484375 0.53125 -0.609375 1.515625l3.65625 0l0 -0.21875q-0.015625 -0.875 -0.484375 -1.34375q-0.453125 -0.484375 -1.28125 -0.484375zm8.990463 -4.375l0 2.421875l1.6875 0l0 1.9375l-1.6875 0l0 4.921875q0 0.546875 0.203125 0.78125q0.21875 0.234375 0.8125 0.234375q0.4375 0 0.78125 -0.0625l0 2.0q-0.78125 0.234375 -1.59375 0.234375q-2.78125 0 -2.828125 -2.796875l0 -5.3125l-1.4375 0l0 -1.9375l1.4375 0l0 -2.421875l2.625 0zm5.725647 3.5q1.046875 -1.25 2.640625 -1.25q3.203125 0 3.25 3.71875l0 6.3125l-2.640625 0l0 -6.234375q0 -0.859375 -0.359375 -1.25q-0.359375 -0.40625 -1.21875 -0.40625q-1.15625 0 -1.671875 0.890625l0 7.0l-2.625 0l0 -14.0l2.625 0l0 5.21875zm7.4551086 3.765625q0 -1.46875 0.5625 -2.609375q0.578125 -1.15625 1.640625 -1.78125q1.0625 -0.625 2.453125 -0.625q2.0 0 3.265625 1.21875q1.265625 1.21875 1.40625 3.3125l0.015625 0.671875q0 2.265625 -1.265625 3.640625q-1.265625 1.375 -3.40625 1.375q-2.125 0 -3.40625 -1.359375q-1.265625 -1.375 -1.265625 -3.734375l0 -0.109375zm2.640625 0.1875q0 1.40625 0.53125 2.15625q0.53125 0.734375 1.515625 0.734375q0.953125 0 1.484375 -0.734375q0.546875 -0.734375 0.546875 -2.34375q0 -1.375 -0.546875 -2.125q-0.53125 -0.765625 -1.515625 -0.765625q-0.953125 0 -1.484375 0.75q-0.53125 0.75 -0.53125 2.328125zm7.9081726 -0.171875q0 -2.3125 1.03125 -3.671875q1.046875 -1.359375 2.84375 -1.359375q1.4375 0 2.375 1.0625l0 -5.03125l2.640625 0l0 14.0l-2.375 0l-0.125 -1.046875q-0.984375 1.234375 -2.53125 1.234375q-1.75 0 -2.8125 -1.375q-1.046875 -1.375 -1.046875 -3.8125zm2.640625 0.1875q0 1.390625 0.484375 2.125q0.484375 0.734375 1.40625 0.734375q1.21875 0 1.71875 -1.03125l0 -3.890625q-0.5 -1.015625 -1.703125 -1.015625q-1.90625 0 -1.90625 3.078125z" fill-rule="nonzero"/><path fill="#000000" fill-opacity="0.0" d="m146.32545 102.656624l391.24414 0l0 15.433075l-391.24414 0z" fill-rule="evenodd"/><path fill="#6aa84f" d="m216.02107 117.29316l0 -13.265625l4.078125 0q1.75 0 3.125 0.796875q1.390625 0.78125 2.15625 2.234375q0.78125 1.453125 0.78125 3.296875l0 0.609375q0 1.859375 -0.765625 3.296875q-0.765625 1.4375 -2.15625 2.234375q-1.375 0.78125 -3.109375 0.796875l-4.109375 0zm2.734375 -11.046875l0 8.84375l1.3125 0q1.609375 0 2.453125 -1.046875q0.84375 -1.046875 0.859375 -2.984375l0 -0.703125q0 -2.03125 -0.84375 -3.0625q-0.828125 -1.046875 -2.4375 -1.046875l-1.34375 0zm12.296616 11.046875l-2.734375 0l0 -13.265625l2.734375 0l0 13.265625zm2.5321198 0l0 -13.265625l4.078125 0q1.75 0 3.125 0.796875q1.390625 0.78125 2.15625 2.234375q0.78125 1.453125 0.78125 3.296875l0 0.609375q0 1.859375 -0.765625 3.296875q-0.765625 1.4375 -2.15625 2.234375q-1.375 0.78125 -3.109375 0.796875l-4.109375 0zm2.734375 -11.046875l0 8.84375l1.3125 0q1.609375 0 2.453125 -1.046875q0.84375 -1.046875 0.859375 -2.984375l0 -0.703125q0 -2.03125 -0.84375 -3.0625q-0.828125 -1.046875 -2.4375 -1.046875l-1.34375 0zm17.59871 -2.21875l3.40625 9.625l3.390625 -9.625l3.59375 0l0 13.265625l-2.75 0l0 -3.625l0.28125 -6.265625l-3.578125 9.890625l-1.875 0l-3.578125 -9.875l0.28125 6.25l0 3.625l-2.734375 0l0 -13.265625l3.5625 0zm17.139313 13.453125q-2.171875 0 -3.53125 -1.328125q-1.359375 -1.34375 -1.359375 -3.546875l0 -0.265625q0 -1.484375 0.5625 -2.640625q0.578125 -1.171875 1.625 -1.796875q1.0625 -0.640625 2.40625 -0.640625q2.03125 0 3.1875 1.28125q1.15625 1.265625 1.15625 3.609375l0 1.0625l-6.265625 0q0.125 0.96875 0.765625 1.5625q0.640625 0.578125 1.625 0.578125q1.515625 0 2.375 -1.109375l1.296875 1.453125q-0.59375 0.84375 -1.609375 1.3125q-1.0 0.46875 -2.234375 0.46875zm-0.296875 -8.09375q-0.78125 0 -1.28125 0.53125q-0.484375 0.53125 -0.609375 1.515625l3.65625 0l0 -0.21875q-0.015625 -0.875 -0.484375 -1.34375q-0.453125 -0.484375 -1.28125 -0.484375zm8.9904785 -4.375l0 2.421875l1.6875 0l0 1.9375l-1.6875 0l0 4.921875q0 0.546875 0.203125 0.78125q0.21875 0.234375 0.8125 0.234375q0.4375 0 0.78125 -0.0625l0 2.0q-0.78125 0.234375 -1.59375 0.234375q-2.78125 0 -2.828125 -2.796875l0 -5.3125l-1.4375 0l0 -1.9375l1.4375 0l0 -2.421875l2.625 0zm5.725647 3.5q1.046875 -1.25 2.640625 -1.25q3.203125 0 3.25 3.71875l0 6.3125l-2.640625 0l0 -6.234375q0 -0.859375 -0.359375 -1.25q-0.359375 -0.40625 -1.21875 -0.40625q-1.15625 0 -1.671875 0.890625l0 7.0l-2.625 0l0 -14.0l2.625 0l0 5.21875zm7.4551086 3.765625q0 -1.46875 0.5625 -2.609375q0.578125 -1.15625 1.640625 -1.78125q1.0625 -0.625 2.453125 -0.625q2.0 0 3.265625 1.21875q1.265625 1.21875 1.40625 3.3125l0.015625 0.671875q0 2.265625 -1.265625 3.640625q-1.265625 1.375 -3.40625 1.375q-2.125 0 -3.40625 -1.359375q-1.265625 -1.375 -1.265625 -3.734375l0 -0.109375zm2.640625 0.1875q0 1.40625 0.53125 2.15625q0.53125 0.734375 1.515625 0.734375q0.953125 0 1.484375 -0.734375q0.546875 -0.734375 0.546875 -2.34375q0 -1.375 -0.546875 -2.125q-0.53125 -0.765625 -1.515625 -0.765625q-0.953125 0 -1.484375 0.75q-0.53125 0.75 -0.53125 2.328125zm7.9081726 -0.171875q0 -2.3125 1.03125 -3.671875q1.046875 -1.359375 2.84375 -1.359375q1.4375 0 2.375 1.0625l0 -5.03125l2.640625 0l0 14.0l-2.375 0l-0.125 -1.046875q-0.984375 1.234375 -2.53125 1.234375q-1.75 0 -2.8125 -1.375q-1.046875 -1.375 -1.046875 -3.8125zm2.640625 0.1875q0 1.390625 0.484375 2.125q0.484375 0.734375 1.40625 0.734375q1.21875 0 1.71875 -1.03125l0 -3.890625q-0.5 -1.015625 -1.703125 -1.015625q-1.90625 0 -1.90625 3.078125zm13.402985 0.1875l-5.125 0l0 -2.109375l5.125 0l0 2.109375zm9.170441 1.140625q0 -0.765625 -0.546875 -1.171875q-0.546875 -0.421875 -1.96875 -0.875q-1.421875 -0.46875 -2.25 -0.921875q-2.265625 -1.21875 -2.265625 -3.28125q0 -1.078125 0.609375 -1.921875q0.609375 -0.84375 1.734375 -1.3125q1.140625 -0.484375 2.5625 -0.484375q1.40625 0 2.515625 0.515625q1.125 0.515625 1.734375 1.453125q0.609375 0.9375 0.609375 2.140625l-2.71875 0q0 -0.90625 -0.578125 -1.40625q-0.578125 -0.515625 -1.609375 -0.515625q-1.015625 0 -1.578125 0.421875q-0.546875 0.421875 -0.546875 1.109375q0 0.65625 0.65625 1.09375q0.65625 0.4375 1.921875 0.8125q2.328125 0.703125 3.390625 1.75q1.0625 1.03125 1.0625 2.578125q0 1.71875 -1.296875 2.703125q-1.296875 0.984375 -3.5 0.984375q-1.53125 0 -2.796875 -0.5625q-1.25 -0.5625 -1.921875 -1.53125q-0.65625 -0.984375 -0.65625 -2.265625l2.75 0q0 2.1875 2.625 2.1875q0.96875 0 1.515625 -0.390625q0.546875 -0.390625 0.546875 -1.109375zm13.296967 -1.359375q0 2.28125 -1.046875 3.65625q-1.03125 1.375 -2.78125 1.375q-1.5 0 -2.421875 -1.046875l0 4.65625l-2.625 0l0 -13.65625l2.4375 0l0.09375 0.96875q0.953125 -1.140625 2.5 -1.140625q1.8125 0 2.828125 1.34375q1.015625 1.34375 1.015625 3.71875l0 0.125zm-2.640625 -0.1875q0 -1.375 -0.484375 -2.109375q-0.484375 -0.75 -1.421875 -0.75q-1.234375 0 -1.703125 0.9375l0 4.03125q0.484375 0.984375 1.71875 0.984375q1.890625 0 1.890625 -3.09375zm8.80014 5.21875q-2.171875 0 -3.53125 -1.328125q-1.359375 -1.34375 -1.359375 -3.546875l0 -0.265625q0 -1.484375 0.5625 -2.640625q0.578125 -1.171875 1.625 -1.796875q1.0625 -0.640625 2.40625 -0.640625q2.03125 0 3.1875 1.28125q1.15625 1.265625 1.15625 3.609375l0 1.0625l-6.265625 0q0.125 0.96875 0.765625 1.5625q0.640625 0.578125 1.625 0.578125q1.515625 0 2.375 -1.109375l1.296875 1.453125q-0.59375 0.84375 -1.609375 1.3125q-1.0 0.46875 -2.234375 0.46875zm-0.296875 -8.09375q-0.78125 0 -1.28125 0.53125q-0.484375 0.53125 -0.609375 1.515625l3.65625 0l0 -0.21875q-0.015625 -0.875 -0.484375 -1.34375q-0.453125 -0.484375 -1.28125 -0.484375zm9.943573 5.96875q0.734375 0 1.1875 -0.390625q0.453125 -0.40625 0.46875 -1.078125l2.46875 0q0 1.0 -0.546875 1.84375q-0.53125 0.828125 -1.46875 1.296875q-0.9375 0.453125 -2.0625 0.453125q-2.109375 0 -3.34375 -1.34375q-1.21875 -1.34375 -1.21875 -3.71875l0 -0.171875q0 -2.28125 1.21875 -3.625q1.21875 -1.359375 3.328125 -1.359375q1.84375 0 2.953125 1.046875q1.125 1.046875 1.140625 2.796875l-2.46875 0q-0.015625 -0.765625 -0.46875 -1.234375q-0.453125 -0.484375 -1.203125 -0.484375q-0.921875 0 -1.390625 0.671875q-0.46875 0.671875 -0.46875 2.171875l0 0.265625q0 1.53125 0.453125 2.203125q0.46875 0.65625 1.421875 0.65625zm8.416443 1.9375l-2.65625 0l0 -9.859375l2.65625 0l0 9.859375zm-2.796875 -12.40625q0 -0.59375 0.390625 -0.96875q0.390625 -0.390625 1.078125 -0.390625q0.671875 0 1.0625 0.390625q0.40625 0.375 0.40625 0.96875q0 0.59375 -0.40625 0.984375q-0.390625 0.375 -1.0625 0.375q-0.671875 0 -1.078125 -0.375q-0.390625 -0.390625 -0.390625 -0.984375zm5.602722 12.40625l0 -7.921875l-1.46875 0l0 -1.9375l1.46875 0l0 -0.453125q0.015625 -1.859375 1.140625 -2.859375q1.125 -1.015625 3.171875 -1.015625q1.234375 0 2.984375 0.546875l-0.375 2.171875q-0.90625 -0.265625 -1.390625 -0.34375q-0.484375 -0.078125 -1.0625 -0.078125q-1.828125 0 -1.828125 1.640625l0 0.390625l1.9375 0l0 1.9375l-1.9375 0l0 7.921875l-2.640625 0zm8.53125 0l-2.640625 0l0 -9.859375l2.640625 0l0 9.859375zm6.2723083 -1.9375q0.734375 0 1.1875 -0.390625q0.453125 -0.40625 0.46875 -1.078125l2.46875 0q0 1.0 -0.546875 1.84375q-0.53125 0.828125 -1.46875 1.296875q-0.9375 0.453125 -2.0625 0.453125q-2.109375 0 -3.34375 -1.34375q-1.21875 -1.34375 -1.21875 -3.71875l0 -0.171875q0 -2.28125 1.21875 -3.625q1.21875 -1.359375 3.328125 -1.359375q1.84375 0 2.953125 1.046875q1.125 1.046875 1.140625 2.796875l-2.46875 0q-0.015625 -0.765625 -0.46875 -1.234375q-0.453125 -0.484375 -1.203125 -0.484375q-0.921875 0 -1.390625 0.671875q-0.46875 0.671875 -0.46875 2.171875l0 0.265625q0 1.53125 0.453125 2.203125q0.46875 0.65625 1.421875 0.65625zm13.359161 1.9375l-2.734375 0l0 -13.265625l2.734375 0l0 13.265625zm1.9383545 -5.0q0 -2.3125 1.03125 -3.671875q1.046875 -1.359375 2.84375 -1.359375q1.4375 0 2.375 1.0625l0 -5.03125l2.640625 0l0 14.0l-2.375 0l-0.125 -1.046875q-0.984375 1.234375 -2.53125 1.234375q-1.75 0 -2.8125 -1.375q-1.046875 -1.375 -1.046875 -3.8125zm2.640625 0.1875q0 1.390625 0.484375 2.125q0.484375 0.734375 1.40625 0.734375q1.21875 0 1.71875 -1.03125l0 -3.890625q-0.5 -1.015625 -1.703125 -1.015625q-1.90625 0 -1.90625 3.078125zm12.82489 5.0q-2.171875 0 -3.53125 -1.328125q-1.359375 -1.34375 -1.359375 -3.546875l0 -0.265625q0 -1.484375 0.5625 -2.640625q0.578125 -1.171875 1.625 -1.796875q1.0625 -0.640625 2.40625 -0.640625q2.03125 0 3.1875 1.28125q1.15625 1.265625 1.15625 3.609375l0 1.0625l-6.265625 0q0.125 0.96875 0.765625 1.5625q0.640625 0.578125 1.625 0.578125q1.515625 0 2.375 -1.109375l1.296875 1.453125q-0.59375 0.84375 -1.609375 1.3125q-1.0 0.46875 -2.234375 0.46875zm-0.296875 -8.09375q-0.78125 0 -1.28125 0.53125q-0.484375 0.53125 -0.609375 1.515625l3.65625 0l0 -0.21875q-0.015625 -0.875 -0.484375 -1.34375q-0.453125 -0.484375 -1.28125 -0.484375zm8.271698 -1.953125l0.078125 1.140625q1.0625 -1.3125 2.828125 -1.3125q1.578125 0 2.34375 0.921875q0.765625 0.90625 0.78125 2.734375l0 6.375l-2.640625 0l0 -6.296875q0 -0.84375 -0.359375 -1.21875q-0.359375 -0.375 -1.21875 -0.375q-1.109375 0 -1.65625 0.9375l0 6.953125l-2.640625 0l0 -9.859375l2.484375 0zm11.167328 -2.421875l0 2.421875l1.6875 0l0 1.9375l-1.6875 0l0 4.921875q0 0.546875 0.203125 0.78125q0.21875 0.234375 0.8125 0.234375q0.4375 0 0.78125 -0.0625l0 2.0q-0.78125 0.234375 -1.59375 0.234375q-2.78125 0 -2.828125 -2.796875l0 -5.3125l-1.4375 0l0 -1.9375l1.4375 0l0 -2.421875l2.625 0zm5.944397 12.28125l-2.65625 0l0 -9.859375l2.65625 0l0 9.859375zm-2.796875 -12.40625q0 -0.59375 0.390625 -0.96875q0.390625 -0.390625 1.078125 -0.390625q0.671875 0 1.0625 0.390625q0.40625 0.375 0.40625 0.96875q0 0.59375 -0.40625 0.984375q-0.390625 0.375 -1.0625 0.375q-0.671875 0 -1.078125 -0.375q-0.390625 -0.390625 -0.390625 -0.984375zm5.602722 12.40625l0 -7.921875l-1.46875 0l0 -1.9375l1.46875 0l0 -0.453125q0.015625 -1.859375 1.140625 -2.859375q1.125 -1.015625 3.171875 -1.015625q1.234375 0 2.984375 0.546875l-0.375 2.171875q-0.90625 -0.265625 -1.390625 -0.34375q-0.484375 -0.078125 -1.0625 -0.078125q-1.828125 0 -1.828125 1.640625l0 0.390625l1.9375 0l0 1.9375l-1.9375 0l0 7.921875l-2.640625 0zm8.53125 0l-2.640625 0l0 -9.859375l2.640625 0l0 9.859375zm6.7098083 0.1875q-2.171875 0 -3.53125 -1.328125q-1.359375 -1.34375 -1.359375 -3.546875l0 -0.265625q0 -1.484375 0.5625 -2.640625q0.578125 -1.171875 1.625 -1.796875q1.0625 -0.640625 2.40625 -0.640625q2.03125 0 3.1875 1.28125q1.15625 1.265625 1.15625 3.609375l0 1.0625l-6.265625 0q0.125 0.96875 0.765625 1.5625q0.640625 0.578125 1.625 0.578125q1.515625 0 2.375 -1.109375l1.296875 1.453125q-0.59375 0.84375 -1.609375 1.3125q-1.0 0.46875 -2.234375 0.46875zm-0.296875 -8.09375q-0.78125 0 -1.28125 0.53125q-0.484375 0.53125 -0.609375 1.515625l3.65625 0l0 -0.21875q-0.015625 -0.875 -0.484375 -1.34375q-0.453125 -0.484375 -1.28125 -0.484375zm11.381073 0.515625q-0.53125 -0.0625 -0.9375 -0.0625q-1.5 0 -1.96875 1.0l0 6.453125l-2.625 0l0 -9.859375l2.484375 0l0.078125 1.171875q0.78125 -1.34375 2.1875 -1.34375q0.4375 0 0.828125 0.109375l-0.046875 2.53125z" fill-rule="nonzero"/></g></svg>